<svg width="337" height="196" viewBox="0 0 337 196" fill="none" xmlns="http://www.w3.org/2000/svg">
<g clip-path="url(#clip0_1171_3226)">
<path d="M2.75 4.25L4.5 6L2.75 7.75L1 6L2.75 4.25Z" fill="#C69FF1" stroke="#C69FF1" stroke-linecap="round" stroke-linejoin="round"/>
<path d="M6 1L7.75 2.75L6 4.5L4.25 2.75L6 1Z" fill="#C69FF1" stroke="#C69FF1" stroke-linecap="round" stroke-linejoin="round"/>
<path d="M9.25 4.25L11 6L9.25 7.75L7.5 6L9.25 4.25Z" fill="#C69FF1" stroke="#C69FF1" stroke-linecap="round" stroke-linejoin="round"/>
<path d="M6 7.5L7.75 9.25L6 11L4.25 9.25L6 7.5Z" fill="#C69FF1" stroke="#C69FF1" stroke-linecap="round" stroke-linejoin="round"/>
</g>
<path d="M16.799 10V2.72727H19.4624C19.9785 2.72727 20.4058 2.8125 20.7443 2.98295C21.0829 3.15104 21.3362 3.3795 21.5043 3.66832C21.6723 3.95478 21.7564 4.27794 21.7564 4.63778C21.7564 4.94081 21.7008 5.1965 21.5895 5.40483C21.4782 5.6108 21.3291 5.77651 21.142 5.90199C20.9574 6.02509 20.7538 6.11506 20.5312 6.17188V6.2429C20.7727 6.25473 21.0083 6.33286 21.2379 6.47727C21.4699 6.61932 21.6617 6.82173 21.8132 7.08452C21.9647 7.3473 22.0405 7.6669 22.0405 8.04332C22.0405 8.41501 21.9529 8.74882 21.7777 9.04474C21.6049 9.3383 21.3374 9.5715 20.9751 9.74432C20.6129 9.91477 20.1501 10 19.5866 10H16.799ZM17.8963 9.05895H19.4801C20.0057 9.05895 20.3821 8.95715 20.6094 8.75355C20.8366 8.54995 20.9503 8.29545 20.9503 7.99006C20.9503 7.76042 20.8923 7.54972 20.7763 7.35795C20.6603 7.16619 20.4946 7.01349 20.2791 6.89986C20.0661 6.78622 19.8127 6.7294 19.5192 6.7294H17.8963V9.05895ZM17.8963 5.87358H19.3665C19.6127 5.87358 19.834 5.82623 20.0305 5.73153C20.2294 5.63684 20.3868 5.50426 20.5028 5.33381C20.6212 5.16098 20.6804 4.95739 20.6804 4.72301C20.6804 4.42235 20.575 4.17022 20.3643 3.96662C20.1536 3.76302 19.8305 3.66122 19.3949 3.66122H17.8963V5.87358ZM26.712 7.73793V4.54545H27.7773V10H26.7333V9.0554H26.6765C26.551 9.34659 26.3498 9.58925 26.0728 9.78338C25.7982 9.97514 25.4561 10.071 25.0465 10.071C24.6961 10.071 24.386 9.99408 24.1161 9.8402C23.8486 9.68395 23.6379 9.45312 23.484 9.14773C23.3325 8.84233 23.2567 8.46473 23.2567 8.01491V4.54545H24.3185V7.88707C24.3185 8.25876 24.4215 8.55469 24.6275 8.77486C24.8335 8.99503 25.101 9.10511 25.43 9.10511C25.6289 9.10511 25.8266 9.0554 26.0231 8.95597C26.2219 8.85653 26.3865 8.7062 26.5167 8.50497C26.6493 8.30374 26.7144 8.04806 26.712 7.73793ZM31.7502 4.54545V5.39773H28.7708V4.54545H31.7502ZM29.5698 3.23864H30.6316V8.39844C30.6316 8.6044 30.6623 8.75947 30.7239 8.86364C30.7855 8.96544 30.8648 9.03527 30.9618 9.07315C31.0613 9.10866 31.169 9.12642 31.285 9.12642C31.3702 9.12642 31.4448 9.1205 31.5087 9.10866C31.5726 9.09683 31.6223 9.08736 31.6578 9.08026L31.8496 9.95739C31.7881 9.98106 31.7005 10.0047 31.5868 10.0284C31.4732 10.0545 31.3311 10.0687 31.1607 10.071C30.8813 10.0758 30.6209 10.026 30.3794 9.92188C30.138 9.81771 29.9426 9.65672 29.7935 9.43892C29.6444 9.22112 29.5698 8.94768 29.5698 8.61861V3.23864ZM35.4709 4.54545V5.39773H32.4915V4.54545H35.4709ZM33.2905 3.23864H34.3523V8.39844C34.3523 8.6044 34.383 8.75947 34.4446 8.86364C34.5062 8.96544 34.5855 9.03527 34.6825 9.07315C34.782 9.10866 34.8897 9.12642 35.0057 9.12642C35.0909 9.12642 35.1655 9.1205 35.2294 9.10866C35.2933 9.09683 35.343 9.08736 35.3786 9.08026L35.5703 9.95739C35.5088 9.98106 35.4212 10.0047 35.3075 10.0284C35.1939 10.0545 35.0518 10.0687 34.8814 10.071C34.602 10.0758 34.3416 10.026 34.1001 9.92188C33.8587 9.81771 33.6634 9.65672 33.5142 9.43892C33.3651 9.22112 33.2905 8.94768 33.2905 8.61861V3.23864ZM38.8844 10.1101C38.373 10.1101 37.9268 9.9929 37.5456 9.75852C37.1645 9.52415 36.8685 9.19626 36.6578 8.77486C36.4471 8.35346 36.3418 7.86103 36.3418 7.29759C36.3418 6.73177 36.4471 6.23698 36.6578 5.81321C36.8685 5.38944 37.1645 5.06037 37.5456 4.82599C37.9268 4.59162 38.373 4.47443 38.8844 4.47443C39.3958 4.47443 39.842 4.59162 40.2232 4.82599C40.6043 5.06037 40.9003 5.38944 41.111 5.81321C41.3217 6.23698 41.427 6.73177 41.427 7.29759C41.427 7.86103 41.3217 8.35346 41.111 8.77486C40.9003 9.19626 40.6043 9.52415 40.2232 9.75852C39.842 9.9929 39.3958 10.1101 38.8844 10.1101ZM38.888 9.21875C39.2194 9.21875 39.494 9.13116 39.7118 8.95597C39.9296 8.78078 40.0906 8.54759 40.1948 8.25639C40.3013 7.9652 40.3546 7.64441 40.3546 7.29403C40.3546 6.94602 40.3013 6.62642 40.1948 6.33523C40.0906 6.04167 39.9296 5.80611 39.7118 5.62855C39.494 5.45099 39.2194 5.36222 38.888 5.36222C38.5542 5.36222 38.2772 5.45099 38.057 5.62855C37.8392 5.80611 37.677 6.04167 37.5705 6.33523C37.4663 6.62642 37.4142 6.94602 37.4142 7.29403C37.4142 7.64441 37.4663 7.9652 37.5705 8.25639C37.677 8.54759 37.8392 8.78078 38.057 8.95597C38.2772 9.13116 38.5542 9.21875 38.888 9.21875ZM43.674 6.76136V10H42.6122V4.54545H43.6314V5.43324H43.6989C43.8243 5.14441 44.0208 4.91241 44.2884 4.73722C44.5582 4.56203 44.898 4.47443 45.3075 4.47443C45.6792 4.47443 46.0047 4.55256 46.2841 4.70881C46.5634 4.86269 46.7801 5.09233 46.9339 5.39773C47.0878 5.70312 47.1648 6.08073 47.1648 6.53054V10H46.103V6.65838C46.103 6.26302 46 5.95407 45.794 5.73153C45.5881 5.50663 45.3052 5.39418 44.9453 5.39418C44.6991 5.39418 44.4801 5.44744 44.2884 5.55398C44.099 5.66051 43.9486 5.81676 43.8374 6.02273C43.7285 6.22633 43.674 6.47254 43.674 6.76136Z" fill="#C69FF1"/>
<rect x="0.5" y="20.5" width="336" height="175" rx="4.5" stroke="#9747FF" stroke-dasharray="10 5"/>
<path d="M20 46C20 42.6863 22.6863 40 26 40H73C76.3137 40 79 42.6863 79 46V66C79 69.3137 76.3137 72 73 72H26C22.6863 72 20 69.3137 20 66V46Z" fill="#FAFAFA"/>
<path d="M30.9588 60V51.2727H34.1548C34.7741 51.2727 35.2869 51.375 35.6932 51.5795C36.0994 51.7812 36.4034 52.0554 36.6051 52.402C36.8068 52.7457 36.9077 53.1335 36.9077 53.5653C36.9077 53.929 36.8409 54.2358 36.7074 54.4858C36.5739 54.733 36.3949 54.9318 36.1705 55.0824C35.9489 55.2301 35.7045 55.3381 35.4375 55.4062V55.4915C35.7273 55.5057 36.0099 55.5994 36.2855 55.7727C36.5639 55.9432 36.794 56.1861 36.9759 56.5014C37.1577 56.8168 37.2486 57.2003 37.2486 57.652C37.2486 58.098 37.1435 58.4986 36.9332 58.8537C36.7259 59.206 36.4048 59.4858 35.9702 59.6932C35.5355 59.8977 34.9801 60 34.304 60H30.9588ZM32.2756 58.8707H34.1761C34.8068 58.8707 35.2585 58.7486 35.5312 58.5043C35.804 58.2599 35.9403 57.9545 35.9403 57.5881C35.9403 57.3125 35.8707 57.0597 35.7315 56.8295C35.5923 56.5994 35.3935 56.4162 35.1349 56.2798C34.8793 56.1435 34.5753 56.0753 34.223 56.0753H32.2756V58.8707ZM32.2756 55.0483H34.0398C34.3352 55.0483 34.6009 54.9915 34.8366 54.8778C35.0753 54.7642 35.2642 54.6051 35.4034 54.4006C35.5455 54.1932 35.6165 53.9489 35.6165 53.6676C35.6165 53.3068 35.4901 53.0043 35.2372 52.7599C34.9844 52.5156 34.5966 52.3935 34.0739 52.3935H32.2756V55.0483ZM42.8544 57.2855V53.4545H44.1328V60H42.88V58.8665H42.8118C42.6612 59.2159 42.4197 59.5071 42.0874 59.7401C41.7578 59.9702 41.3473 60.0852 40.8558 60.0852C40.4354 60.0852 40.0632 59.9929 39.7393 59.8082C39.4183 59.6207 39.1655 59.3438 38.9808 58.9773C38.799 58.6108 38.7081 58.1577 38.7081 57.6179V53.4545H39.9822V57.4645C39.9822 57.9105 40.1058 58.2656 40.353 58.5298C40.6001 58.794 40.9212 58.9261 41.3161 58.9261C41.5547 58.9261 41.7919 58.8665 42.0277 58.7472C42.2663 58.6278 42.4638 58.4474 42.62 58.206C42.7791 57.9645 42.8572 57.6577 42.8544 57.2855ZM48.9002 53.4545V54.4773H45.3249V53.4545H48.9002ZM46.2837 51.8864H47.5579V58.0781C47.5579 58.3253 47.5948 58.5114 47.6687 58.6364C47.7425 58.7585 47.8377 58.8423 47.9542 58.8878C48.0735 58.9304 48.2028 58.9517 48.342 58.9517C48.4442 58.9517 48.5337 58.9446 48.6104 58.9304C48.6871 58.9162 48.7468 58.9048 48.7894 58.8963L49.0195 59.9489C48.9457 59.9773 48.8406 60.0057 48.7042 60.0341C48.5678 60.0653 48.3974 60.0824 48.1928 60.0852C47.8576 60.0909 47.5451 60.0312 47.2553 59.9062C46.9656 59.7812 46.7312 59.5881 46.5522 59.3267C46.3732 59.0653 46.2837 58.7372 46.2837 58.3423V51.8864ZM53.3651 53.4545V54.4773H49.7898V53.4545H53.3651ZM50.7486 51.8864H52.0227V58.0781C52.0227 58.3253 52.0597 58.5114 52.1335 58.6364C52.2074 58.7585 52.3026 58.8423 52.419 58.8878C52.5384 58.9304 52.6676 58.9517 52.8068 58.9517C52.9091 58.9517 52.9986 58.9446 53.0753 58.9304C53.152 58.9162 53.2116 58.9048 53.2543 58.8963L53.4844 59.9489C53.4105 59.9773 53.3054 60.0057 53.169 60.0341C53.0327 60.0653 52.8622 60.0824 52.6577 60.0852C52.3224 60.0909 52.0099 60.0312 51.7202 59.9062C51.4304 59.7812 51.196 59.5881 51.017 59.3267C50.8381 59.0653 50.7486 58.7372 50.7486 58.3423V51.8864ZM57.4613 60.1321C56.8477 60.1321 56.3121 59.9915 55.8548 59.7102C55.3974 59.429 55.0423 59.0355 54.7894 58.5298C54.5366 58.0241 54.4102 57.4332 54.4102 56.7571C54.4102 56.0781 54.5366 55.4844 54.7894 54.9759C55.0423 54.4673 55.3974 54.0724 55.8548 53.7912C56.3121 53.5099 56.8477 53.3693 57.4613 53.3693C58.0749 53.3693 58.6104 53.5099 59.0678 53.7912C59.5252 54.0724 59.8803 54.4673 60.1332 54.9759C60.386 55.4844 60.5124 56.0781 60.5124 56.7571C60.5124 57.4332 60.386 58.0241 60.1332 58.5298C59.8803 59.0355 59.5252 59.429 59.0678 59.7102C58.6104 59.9915 58.0749 60.1321 57.4613 60.1321ZM57.4656 59.0625C57.8633 59.0625 58.1928 58.9574 58.4542 58.7472C58.7156 58.5369 58.9087 58.2571 59.0337 57.9077C59.1616 57.5582 59.2255 57.1733 59.2255 56.7528C59.2255 56.3352 59.1616 55.9517 59.0337 55.6023C58.9087 55.25 58.7156 54.9673 58.4542 54.7543C58.1928 54.5412 57.8633 54.4347 57.4656 54.4347C57.065 54.4347 56.7326 54.5412 56.4684 54.7543C56.207 54.9673 56.0124 55.25 55.8846 55.6023C55.7596 55.9517 55.6971 56.3352 55.6971 56.7528C55.6971 57.1733 55.7596 57.5582 55.8846 57.9077C56.0124 58.2571 56.207 58.5369 56.4684 58.7472C56.7326 58.9574 57.065 59.0625 57.4656 59.0625ZM63.2088 56.1136V60H61.9347V53.4545H63.1577V54.5199H63.2386C63.3892 54.1733 63.625 53.8949 63.946 53.6847C64.2699 53.4744 64.6776 53.3693 65.169 53.3693C65.6151 53.3693 66.0057 53.4631 66.3409 53.6506C66.6761 53.8352 66.9361 54.1108 67.1207 54.4773C67.3054 54.8437 67.3977 55.2969 67.3977 55.8366V60H66.1236V55.9901C66.1236 55.5156 66 55.1449 65.7528 54.8778C65.5057 54.608 65.1662 54.473 64.7344 54.473C64.4389 54.473 64.1761 54.5369 63.946 54.6648C63.7188 54.7926 63.5384 54.9801 63.4048 55.2273C63.2741 55.4716 63.2088 55.767 63.2088 56.1136Z" fill="#18181B"/>
<path d="M99 46C99 42.6863 101.686 40 105 40H166C169.314 40 172 42.6863 172 46V66C172 69.3137 169.314 72 166 72H105C101.686 72 99 69.3137 99 66V46Z" fill="#FAFAFA"/>
<path d="M109.959 60V51.2727H113.155C113.774 51.2727 114.287 51.375 114.693 51.5795C115.099 51.7812 115.403 52.0554 115.605 52.402C115.807 52.7457 115.908 53.1335 115.908 53.5653C115.908 53.929 115.841 54.2358 115.707 54.4858C115.574 54.733 115.395 54.9318 115.17 55.0824C114.949 55.2301 114.705 55.3381 114.438 55.4062V55.4915C114.727 55.5057 115.01 55.5994 115.286 55.7727C115.564 55.9432 115.794 56.1861 115.976 56.5014C116.158 56.8168 116.249 57.2003 116.249 57.652C116.249 58.098 116.143 58.4986 115.933 58.8537C115.726 59.206 115.405 59.4858 114.97 59.6932C114.536 59.8977 113.98 60 113.304 60H109.959ZM111.276 58.8707H113.176C113.807 58.8707 114.259 58.7486 114.531 58.5043C114.804 58.2599 114.94 57.9545 114.94 57.5881C114.94 57.3125 114.871 57.0597 114.732 56.8295C114.592 56.5994 114.393 56.4162 114.135 56.2798C113.879 56.1435 113.575 56.0753 113.223 56.0753H111.276V58.8707ZM111.276 55.0483H113.04C113.335 55.0483 113.601 54.9915 113.837 54.8778C114.075 54.7642 114.264 54.6051 114.403 54.4006C114.545 54.1932 114.616 53.9489 114.616 53.6676C114.616 53.3068 114.49 53.0043 114.237 52.7599C113.984 52.5156 113.597 52.3935 113.074 52.3935H111.276V55.0483ZM121.854 57.2855V53.4545H123.133V60H121.88V58.8665H121.812C121.661 59.2159 121.42 59.5071 121.087 59.7401C120.758 59.9702 120.347 60.0852 119.856 60.0852C119.435 60.0852 119.063 59.9929 118.739 59.8082C118.418 59.6207 118.165 59.3438 117.981 58.9773C117.799 58.6108 117.708 58.1577 117.708 57.6179V53.4545H118.982V57.4645C118.982 57.9105 119.106 58.2656 119.353 58.5298C119.6 58.794 119.921 58.9261 120.316 58.9261C120.555 58.9261 120.792 58.8665 121.028 58.7472C121.266 58.6278 121.464 58.4474 121.62 58.206C121.779 57.9645 121.857 57.6577 121.854 57.2855ZM127.9 53.4545V54.4773H124.325V53.4545H127.9ZM125.284 51.8864H126.558V58.0781C126.558 58.3253 126.595 58.5114 126.669 58.6364C126.743 58.7585 126.838 58.8423 126.954 58.8878C127.074 58.9304 127.203 58.9517 127.342 58.9517C127.444 58.9517 127.534 58.9446 127.61 58.9304C127.687 58.9162 127.747 58.9048 127.789 58.8963L128.02 59.9489C127.946 59.9773 127.841 60.0057 127.704 60.0341C127.568 60.0653 127.397 60.0824 127.193 60.0852C126.858 60.0909 126.545 60.0312 126.255 59.9062C125.966 59.7812 125.731 59.5881 125.552 59.3267C125.373 59.0653 125.284 58.7372 125.284 58.3423V51.8864ZM132.365 53.4545V54.4773H128.79V53.4545H132.365ZM129.749 51.8864H131.023V58.0781C131.023 58.3253 131.06 58.5114 131.134 58.6364C131.207 58.7585 131.303 58.8423 131.419 58.8878C131.538 58.9304 131.668 58.9517 131.807 58.9517C131.909 58.9517 131.999 58.9446 132.075 58.9304C132.152 58.9162 132.212 58.9048 132.254 58.8963L132.484 59.9489C132.411 59.9773 132.305 60.0057 132.169 60.0341C132.033 60.0653 131.862 60.0824 131.658 60.0852C131.322 60.0909 131.01 60.0312 130.72 59.9062C130.43 59.7812 130.196 59.5881 130.017 59.3267C129.838 59.0653 129.749 58.7372 129.749 58.3423V51.8864ZM136.461 60.1321C135.848 60.1321 135.312 59.9915 134.855 59.7102C134.397 59.429 134.042 59.0355 133.789 58.5298C133.537 58.0241 133.41 57.4332 133.41 56.7571C133.41 56.0781 133.537 55.4844 133.789 54.9759C134.042 54.4673 134.397 54.0724 134.855 53.7912C135.312 53.5099 135.848 53.3693 136.461 53.3693C137.075 53.3693 137.61 53.5099 138.068 53.7912C138.525 54.0724 138.88 54.4673 139.133 54.9759C139.386 55.4844 139.512 56.0781 139.512 56.7571C139.512 57.4332 139.386 58.0241 139.133 58.5298C138.88 59.0355 138.525 59.429 138.068 59.7102C137.61 59.9915 137.075 60.1321 136.461 60.1321ZM136.466 59.0625C136.863 59.0625 137.193 58.9574 137.454 58.7472C137.716 58.5369 137.909 58.2571 138.034 57.9077C138.162 57.5582 138.225 57.1733 138.225 56.7528C138.225 56.3352 138.162 55.9517 138.034 55.6023C137.909 55.25 137.716 54.9673 137.454 54.7543C137.193 54.5412 136.863 54.4347 136.466 54.4347C136.065 54.4347 135.733 54.5412 135.468 54.7543C135.207 54.9673 135.012 55.25 134.885 55.6023C134.76 55.9517 134.697 56.3352 134.697 56.7528C134.697 57.1733 134.76 57.5582 134.885 57.9077C135.012 58.2571 135.207 58.5369 135.468 58.7472C135.733 58.9574 136.065 59.0625 136.466 59.0625ZM142.209 56.1136V60H140.935V53.4545H142.158V54.5199H142.239C142.389 54.1733 142.625 53.8949 142.946 53.6847C143.27 53.4744 143.678 53.3693 144.169 53.3693C144.615 53.3693 145.006 53.4631 145.341 53.6506C145.676 53.8352 145.936 54.1108 146.121 54.4773C146.305 54.8437 146.398 55.2969 146.398 55.8366V60H145.124V55.9901C145.124 55.5156 145 55.1449 144.753 54.8778C144.506 54.608 144.166 54.473 143.734 54.473C143.439 54.473 143.176 54.5369 142.946 54.6648C142.719 54.7926 142.538 54.9801 142.405 55.2273C142.274 55.4716 142.209 55.767 142.209 56.1136Z" fill="#18181B"/>
<g clip-path="url(#clip1_1171_3226)">
<path d="M154.75 54.25L156.5 56L154.75 57.75L153 56L154.75 54.25Z" stroke="#18181B" stroke-linecap="round" stroke-linejoin="round"/>
<path d="M158 51L159.75 52.75L158 54.5L156.25 52.75L158 51Z" stroke="#18181B" stroke-linecap="round" stroke-linejoin="round"/>
<path d="M161.25 54.25L163 56L161.25 57.75L159.5 56L161.25 54.25Z" stroke="#18181B" stroke-linecap="round" stroke-linejoin="round"/>
<path d="M158 57.5L159.75 59.25L158 61L156.25 59.25L158 57.5Z" stroke="#18181B" stroke-linecap="round" stroke-linejoin="round"/>
</g>
<path d="M192 46C192 42.6863 194.686 40 198 40H259C262.314 40 265 42.6863 265 46V66C265 69.3137 262.314 72 259 72H198C194.686 72 192 69.3137 192 66V46Z" fill="#FAFAFA"/>
<g clip-path="url(#clip2_1171_3226)">
<path d="M202.75 54.25L204.5 56L202.75 57.75L201 56L202.75 54.25Z" stroke="#18181B" stroke-linecap="round" stroke-linejoin="round"/>
<path d="M206 51L207.75 52.75L206 54.5L204.25 52.75L206 51Z" stroke="#18181B" stroke-linecap="round" stroke-linejoin="round"/>
<path d="M209.25 54.25L211 56L209.25 57.75L207.5 56L209.25 54.25Z" stroke="#18181B" stroke-linecap="round" stroke-linejoin="round"/>
<path d="M206 57.5L207.75 59.25L206 61L204.25 59.25L206 57.5Z" stroke="#18181B" stroke-linecap="round" stroke-linejoin="round"/>
</g>
<path d="M216.959 60V51.2727H220.155C220.774 51.2727 221.287 51.375 221.693 51.5795C222.099 51.7812 222.403 52.0554 222.605 52.402C222.807 52.7457 222.908 53.1335 222.908 53.5653C222.908 53.929 222.841 54.2358 222.707 54.4858C222.574 54.733 222.395 54.9318 222.17 55.0824C221.949 55.2301 221.705 55.3381 221.438 55.4062V55.4915C221.727 55.5057 222.01 55.5994 222.286 55.7727C222.564 55.9432 222.794 56.1861 222.976 56.5014C223.158 56.8168 223.249 57.2003 223.249 57.652C223.249 58.098 223.143 58.4986 222.933 58.8537C222.726 59.206 222.405 59.4858 221.97 59.6932C221.536 59.8977 220.98 60 220.304 60H216.959ZM218.276 58.8707H220.176C220.807 58.8707 221.259 58.7486 221.531 58.5043C221.804 58.2599 221.94 57.9545 221.94 57.5881C221.94 57.3125 221.871 57.0597 221.732 56.8295C221.592 56.5994 221.393 56.4162 221.135 56.2798C220.879 56.1435 220.575 56.0753 220.223 56.0753H218.276V58.8707ZM218.276 55.0483H220.04C220.335 55.0483 220.601 54.9915 220.837 54.8778C221.075 54.7642 221.264 54.6051 221.403 54.4006C221.545 54.1932 221.616 53.9489 221.616 53.6676C221.616 53.3068 221.49 53.0043 221.237 52.7599C220.984 52.5156 220.597 52.3935 220.074 52.3935H218.276V55.0483ZM228.854 57.2855V53.4545H230.133V60H228.88V58.8665H228.812C228.661 59.2159 228.42 59.5071 228.087 59.7401C227.758 59.9702 227.347 60.0852 226.856 60.0852C226.435 60.0852 226.063 59.9929 225.739 59.8082C225.418 59.6207 225.165 59.3438 224.981 58.9773C224.799 58.6108 224.708 58.1577 224.708 57.6179V53.4545H225.982V57.4645C225.982 57.9105 226.106 58.2656 226.353 58.5298C226.6 58.794 226.921 58.9261 227.316 58.9261C227.555 58.9261 227.792 58.8665 228.028 58.7472C228.266 58.6278 228.464 58.4474 228.62 58.206C228.779 57.9645 228.857 57.6577 228.854 57.2855ZM234.9 53.4545V54.4773H231.325V53.4545H234.9ZM232.284 51.8864H233.558V58.0781C233.558 58.3253 233.595 58.5114 233.669 58.6364C233.743 58.7585 233.838 58.8423 233.954 58.8878C234.074 58.9304 234.203 58.9517 234.342 58.9517C234.444 58.9517 234.534 58.9446 234.61 58.9304C234.687 58.9162 234.747 58.9048 234.789 58.8963L235.02 59.9489C234.946 59.9773 234.841 60.0057 234.704 60.0341C234.568 60.0653 234.397 60.0824 234.193 60.0852C233.858 60.0909 233.545 60.0312 233.255 59.9062C232.966 59.7812 232.731 59.5881 232.552 59.3267C232.373 59.0653 232.284 58.7372 232.284 58.3423V51.8864ZM239.365 53.4545V54.4773H235.79V53.4545H239.365ZM236.749 51.8864H238.023V58.0781C238.023 58.3253 238.06 58.5114 238.134 58.6364C238.207 58.7585 238.303 58.8423 238.419 58.8878C238.538 58.9304 238.668 58.9517 238.807 58.9517C238.909 58.9517 238.999 58.9446 239.075 58.9304C239.152 58.9162 239.212 58.9048 239.254 58.8963L239.484 59.9489C239.411 59.9773 239.305 60.0057 239.169 60.0341C239.033 60.0653 238.862 60.0824 238.658 60.0852C238.322 60.0909 238.01 60.0312 237.72 59.9062C237.43 59.7812 237.196 59.5881 237.017 59.3267C236.838 59.0653 236.749 58.7372 236.749 58.3423V51.8864ZM243.461 60.1321C242.848 60.1321 242.312 59.9915 241.855 59.7102C241.397 59.429 241.042 59.0355 240.789 58.5298C240.537 58.0241 240.41 57.4332 240.41 56.7571C240.41 56.0781 240.537 55.4844 240.789 54.9759C241.042 54.4673 241.397 54.0724 241.855 53.7912C242.312 53.5099 242.848 53.3693 243.461 53.3693C244.075 53.3693 244.61 53.5099 245.068 53.7912C245.525 54.0724 245.88 54.4673 246.133 54.9759C246.386 55.4844 246.512 56.0781 246.512 56.7571C246.512 57.4332 246.386 58.0241 246.133 58.5298C245.88 59.0355 245.525 59.429 245.068 59.7102C244.61 59.9915 244.075 60.1321 243.461 60.1321ZM243.466 59.0625C243.863 59.0625 244.193 58.9574 244.454 58.7472C244.716 58.5369 244.909 58.2571 245.034 57.9077C245.162 57.5582 245.225 57.1733 245.225 56.7528C245.225 56.3352 245.162 55.9517 245.034 55.6023C244.909 55.25 244.716 54.9673 244.454 54.7543C244.193 54.5412 243.863 54.4347 243.466 54.4347C243.065 54.4347 242.733 54.5412 242.468 54.7543C242.207 54.9673 242.012 55.25 241.885 55.6023C241.76 55.9517 241.697 56.3352 241.697 56.7528C241.697 57.1733 241.76 57.5582 241.885 57.9077C242.012 58.2571 242.207 58.5369 242.468 58.7472C242.733 58.9574 243.065 59.0625 243.466 59.0625ZM249.209 56.1136V60H247.935V53.4545H249.158V54.5199H249.239C249.389 54.1733 249.625 53.8949 249.946 53.6847C250.27 53.4744 250.678 53.3693 251.169 53.3693C251.615 53.3693 252.006 53.4631 252.341 53.6506C252.676 53.8352 252.936 54.1108 253.121 54.4773C253.305 54.8437 253.398 55.2969 253.398 55.8366V60H252.124V55.9901C252.124 55.5156 252 55.1449 251.753 54.8778C251.506 54.608 251.166 54.473 250.734 54.473C250.439 54.473 250.176 54.5369 249.946 54.6648C249.719 54.7926 249.538 54.9801 249.405 55.2273C249.274 55.4716 249.209 55.767 249.209 56.1136Z" fill="#18181B"/>
<path d="M285 46C285 42.6863 287.686 40 291 40H311C314.314 40 317 42.6863 317 46V66C317 69.3137 314.314 72 311 72H291C287.686 72 285 69.3137 285 66V46Z" fill="#FAFAFA"/>
<g clip-path="url(#clip3_1171_3226)">
<path d="M296.125 53.375L298.75 56L296.125 58.625L293.5 56L296.125 53.375Z" stroke="#18181B" stroke-width="1.5" stroke-linecap="round" stroke-linejoin="round"/>
<path d="M301 48.5L303.625 51.125L301 53.75L298.375 51.125L301 48.5Z" stroke="#18181B" stroke-width="1.5" stroke-linecap="round" stroke-linejoin="round"/>
<path d="M305.875 53.375L308.5 56L305.875 58.625L303.25 56L305.875 53.375Z" stroke="#18181B" stroke-width="1.5" stroke-linecap="round" stroke-linejoin="round"/>
<path d="M301 58.25L303.625 60.875L301 63.5L298.375 60.875L301 58.25Z" stroke="#18181B" stroke-width="1.5" stroke-linecap="round" stroke-linejoin="round"/>
</g>
<path d="M26 92.5H73C76.0376 92.5 78.5 94.9624 78.5 98V118C78.5 121.038 76.0376 123.5 73 123.5H26C22.9624 123.5 20.5 121.038 20.5 118V98C20.5 94.9624 22.9624 92.5 26 92.5Z" stroke="#27272A"/>
<path d="M30.9588 112V103.273H34.1548C34.7741 103.273 35.2869 103.375 35.6932 103.58C36.0994 103.781 36.4034 104.055 36.6051 104.402C36.8068 104.746 36.9077 105.134 36.9077 105.565C36.9077 105.929 36.8409 106.236 36.7074 106.486C36.5739 106.733 36.3949 106.932 36.1705 107.082C35.9489 107.23 35.7045 107.338 35.4375 107.406V107.491C35.7273 107.506 36.0099 107.599 36.2855 107.773C36.5639 107.943 36.794 108.186 36.9759 108.501C37.1577 108.817 37.2486 109.2 37.2486 109.652C37.2486 110.098 37.1435 110.499 36.9332 110.854C36.7259 111.206 36.4048 111.486 35.9702 111.693C35.5355 111.898 34.9801 112 34.304 112H30.9588ZM32.2756 110.871H34.1761C34.8068 110.871 35.2585 110.749 35.5312 110.504C35.804 110.26 35.9403 109.955 35.9403 109.588C35.9403 109.312 35.8707 109.06 35.7315 108.83C35.5923 108.599 35.3935 108.416 35.1349 108.28C34.8793 108.143 34.5753 108.075 34.223 108.075H32.2756V110.871ZM32.2756 107.048H34.0398C34.3352 107.048 34.6009 106.991 34.8366 106.878C35.0753 106.764 35.2642 106.605 35.4034 106.401C35.5455 106.193 35.6165 105.949 35.6165 105.668C35.6165 105.307 35.4901 105.004 35.2372 104.76C34.9844 104.516 34.5966 104.393 34.0739 104.393H32.2756V107.048ZM42.8544 109.286V105.455H44.1328V112H42.88V110.866H42.8118C42.6612 111.216 42.4197 111.507 42.0874 111.74C41.7578 111.97 41.3473 112.085 40.8558 112.085C40.4354 112.085 40.0632 111.993 39.7393 111.808C39.4183 111.621 39.1655 111.344 38.9808 110.977C38.799 110.611 38.7081 110.158 38.7081 109.618V105.455H39.9822V109.464C39.9822 109.911 40.1058 110.266 40.353 110.53C40.6001 110.794 40.9212 110.926 41.3161 110.926C41.5547 110.926 41.7919 110.866 42.0277 110.747C42.2663 110.628 42.4638 110.447 42.62 110.206C42.7791 109.964 42.8572 109.658 42.8544 109.286ZM48.9002 105.455V106.477H45.3249V105.455H48.9002ZM46.2837 103.886H47.5579V110.078C47.5579 110.325 47.5948 110.511 47.6687 110.636C47.7425 110.759 47.8377 110.842 47.9542 110.888C48.0735 110.93 48.2028 110.952 48.342 110.952C48.4442 110.952 48.5337 110.945 48.6104 110.93C48.6871 110.916 48.7468 110.905 48.7894 110.896L49.0195 111.949C48.9457 111.977 48.8406 112.006 48.7042 112.034C48.5678 112.065 48.3974 112.082 48.1928 112.085C47.8576 112.091 47.5451 112.031 47.2553 111.906C46.9656 111.781 46.7312 111.588 46.5522 111.327C46.3732 111.065 46.2837 110.737 46.2837 110.342V103.886ZM53.3651 105.455V106.477H49.7898V105.455H53.3651ZM50.7486 103.886H52.0227V110.078C52.0227 110.325 52.0597 110.511 52.1335 110.636C52.2074 110.759 52.3026 110.842 52.419 110.888C52.5384 110.93 52.6676 110.952 52.8068 110.952C52.9091 110.952 52.9986 110.945 53.0753 110.93C53.152 110.916 53.2116 110.905 53.2543 110.896L53.4844 111.949C53.4105 111.977 53.3054 112.006 53.169 112.034C53.0327 112.065 52.8622 112.082 52.6577 112.085C52.3224 112.091 52.0099 112.031 51.7202 111.906C51.4304 111.781 51.196 111.588 51.017 111.327C50.8381 111.065 50.7486 110.737 50.7486 110.342V103.886ZM57.4613 112.132C56.8477 112.132 56.3121 111.991 55.8548 111.71C55.3974 111.429 55.0423 111.036 54.7894 110.53C54.5366 110.024 54.4102 109.433 54.4102 108.757C54.4102 108.078 54.5366 107.484 54.7894 106.976C55.0423 106.467 55.3974 106.072 55.8548 105.791C56.3121 105.51 56.8477 105.369 57.4613 105.369C58.0749 105.369 58.6104 105.51 59.0678 105.791C59.5252 106.072 59.8803 106.467 60.1332 106.976C60.386 107.484 60.5124 108.078 60.5124 108.757C60.5124 109.433 60.386 110.024 60.1332 110.53C59.8803 111.036 59.5252 111.429 59.0678 111.71C58.6104 111.991 58.0749 112.132 57.4613 112.132ZM57.4656 111.062C57.8633 111.062 58.1928 110.957 58.4542 110.747C58.7156 110.537 58.9087 110.257 59.0337 109.908C59.1616 109.558 59.2255 109.173 59.2255 108.753C59.2255 108.335 59.1616 107.952 59.0337 107.602C58.9087 107.25 58.7156 106.967 58.4542 106.754C58.1928 106.541 57.8633 106.435 57.4656 106.435C57.065 106.435 56.7326 106.541 56.4684 106.754C56.207 106.967 56.0124 107.25 55.8846 107.602C55.7596 107.952 55.6971 108.335 55.6971 108.753C55.6971 109.173 55.7596 109.558 55.8846 109.908C56.0124 110.257 56.207 110.537 56.4684 110.747C56.7326 110.957 57.065 111.062 57.4656 111.062ZM63.2088 108.114V112H61.9347V105.455H63.1577V106.52H63.2386C63.3892 106.173 63.625 105.895 63.946 105.685C64.2699 105.474 64.6776 105.369 65.169 105.369C65.6151 105.369 66.0057 105.463 66.3409 105.651C66.6761 105.835 66.9361 106.111 67.1207 106.477C67.3054 106.844 67.3977 107.297 67.3977 107.837V112H66.1236V107.99C66.1236 107.516 66 107.145 65.7528 106.878C65.5057 106.608 65.1662 106.473 64.7344 106.473C64.4389 106.473 64.1761 106.537 63.946 106.665C63.7188 106.793 63.5384 106.98 63.4048 107.227C63.2741 107.472 63.2088 107.767 63.2088 108.114Z" fill="#FAFAFA"/>
<path d="M105 92.5H166C169.038 92.5 171.5 94.9624 171.5 98V118C171.5 121.038 169.038 123.5 166 123.5H105C101.962 123.5 99.5 121.038 99.5 118V98C99.5 94.9624 101.962 92.5 105 92.5Z" stroke="#27272A"/>
<path d="M109.959 112V103.273H113.155C113.774 103.273 114.287 103.375 114.693 103.58C115.099 103.781 115.403 104.055 115.605 104.402C115.807 104.746 115.908 105.134 115.908 105.565C115.908 105.929 115.841 106.236 115.707 106.486C115.574 106.733 115.395 106.932 115.17 107.082C114.949 107.23 114.705 107.338 114.438 107.406V107.491C114.727 107.506 115.01 107.599 115.286 107.773C115.564 107.943 115.794 108.186 115.976 108.501C116.158 108.817 116.249 109.2 116.249 109.652C116.249 110.098 116.143 110.499 115.933 110.854C115.726 111.206 115.405 111.486 114.97 111.693C114.536 111.898 113.98 112 113.304 112H109.959ZM111.276 110.871H113.176C113.807 110.871 114.259 110.749 114.531 110.504C114.804 110.26 114.94 109.955 114.94 109.588C114.94 109.312 114.871 109.06 114.732 108.83C114.592 108.599 114.393 108.416 114.135 108.28C113.879 108.143 113.575 108.075 113.223 108.075H111.276V110.871ZM111.276 107.048H113.04C113.335 107.048 113.601 106.991 113.837 106.878C114.075 106.764 114.264 106.605 114.403 106.401C114.545 106.193 114.616 105.949 114.616 105.668C114.616 105.307 114.49 105.004 114.237 104.76C113.984 104.516 113.597 104.393 113.074 104.393H111.276V107.048ZM121.854 109.286V105.455H123.133V112H121.88V110.866H121.812C121.661 111.216 121.42 111.507 121.087 111.74C120.758 111.97 120.347 112.085 119.856 112.085C119.435 112.085 119.063 111.993 118.739 111.808C118.418 111.621 118.165 111.344 117.981 110.977C117.799 110.611 117.708 110.158 117.708 109.618V105.455H118.982V109.464C118.982 109.911 119.106 110.266 119.353 110.53C119.6 110.794 119.921 110.926 120.316 110.926C120.555 110.926 120.792 110.866 121.028 110.747C121.266 110.628 121.464 110.447 121.62 110.206C121.779 109.964 121.857 109.658 121.854 109.286ZM127.9 105.455V106.477H124.325V105.455H127.9ZM125.284 103.886H126.558V110.078C126.558 110.325 126.595 110.511 126.669 110.636C126.743 110.759 126.838 110.842 126.954 110.888C127.074 110.93 127.203 110.952 127.342 110.952C127.444 110.952 127.534 110.945 127.61 110.93C127.687 110.916 127.747 110.905 127.789 110.896L128.02 111.949C127.946 111.977 127.841 112.006 127.704 112.034C127.568 112.065 127.397 112.082 127.193 112.085C126.858 112.091 126.545 112.031 126.255 111.906C125.966 111.781 125.731 111.588 125.552 111.327C125.373 111.065 125.284 110.737 125.284 110.342V103.886ZM132.365 105.455V106.477H128.79V105.455H132.365ZM129.749 103.886H131.023V110.078C131.023 110.325 131.06 110.511 131.134 110.636C131.207 110.759 131.303 110.842 131.419 110.888C131.538 110.93 131.668 110.952 131.807 110.952C131.909 110.952 131.999 110.945 132.075 110.93C132.152 110.916 132.212 110.905 132.254 110.896L132.484 111.949C132.411 111.977 132.305 112.006 132.169 112.034C132.033 112.065 131.862 112.082 131.658 112.085C131.322 112.091 131.01 112.031 130.72 111.906C130.43 111.781 130.196 111.588 130.017 111.327C129.838 111.065 129.749 110.737 129.749 110.342V103.886ZM136.461 112.132C135.848 112.132 135.312 111.991 134.855 111.71C134.397 111.429 134.042 111.036 133.789 110.53C133.537 110.024 133.41 109.433 133.41 108.757C133.41 108.078 133.537 107.484 133.789 106.976C134.042 106.467 134.397 106.072 134.855 105.791C135.312 105.51 135.848 105.369 136.461 105.369C137.075 105.369 137.61 105.51 138.068 105.791C138.525 106.072 138.88 106.467 139.133 106.976C139.386 107.484 139.512 108.078 139.512 108.757C139.512 109.433 139.386 110.024 139.133 110.53C138.88 111.036 138.525 111.429 138.068 111.71C137.61 111.991 137.075 112.132 136.461 112.132ZM136.466 111.062C136.863 111.062 137.193 110.957 137.454 110.747C137.716 110.537 137.909 110.257 138.034 109.908C138.162 109.558 138.225 109.173 138.225 108.753C138.225 108.335 138.162 107.952 138.034 107.602C137.909 107.25 137.716 106.967 137.454 106.754C137.193 106.541 136.863 106.435 136.466 106.435C136.065 106.435 135.733 106.541 135.468 106.754C135.207 106.967 135.012 107.25 134.885 107.602C134.76 107.952 134.697 108.335 134.697 108.753C134.697 109.173 134.76 109.558 134.885 109.908C135.012 110.257 135.207 110.537 135.468 110.747C135.733 110.957 136.065 111.062 136.466 111.062ZM142.209 108.114V112H140.935V105.455H142.158V106.52H142.239C142.389 106.173 142.625 105.895 142.946 105.685C143.27 105.474 143.678 105.369 144.169 105.369C144.615 105.369 145.006 105.463 145.341 105.651C145.676 105.835 145.936 106.111 146.121 106.477C146.305 106.844 146.398 107.297 146.398 107.837V112H145.124V107.99C145.124 107.516 145 107.145 144.753 106.878C144.506 106.608 144.166 106.473 143.734 106.473C143.439 106.473 143.176 106.537 142.946 106.665C142.719 106.793 142.538 106.98 142.405 107.227C142.274 107.472 142.209 107.767 142.209 108.114Z" fill="#FAFAFA"/>
<g clip-path="url(#clip4_1171_3226)">
<path d="M154.75 106.25L156.5 108L154.75 109.75L153 108L154.75 106.25Z" stroke="#FAFAFA" stroke-linecap="round" stroke-linejoin="round"/>
<path d="M158 103L159.75 104.75L158 106.5L156.25 104.75L158 103Z" stroke="#FAFAFA" stroke-linecap="round" stroke-linejoin="round"/>
<path d="M161.25 106.25L163 108L161.25 109.75L159.5 108L161.25 106.25Z" stroke="#FAFAFA" stroke-linecap="round" stroke-linejoin="round"/>
<path d="M158 109.5L159.75 111.25L158 113L156.25 111.25L158 109.5Z" stroke="#FAFAFA" stroke-linecap="round" stroke-linejoin="round"/>
</g>
<path d="M198 92.5H259C262.038 92.5 264.5 94.9624 264.5 98V118C264.5 121.038 262.038 123.5 259 123.5H198C194.962 123.5 192.5 121.038 192.5 118V98C192.5 94.9624 194.962 92.5 198 92.5Z" stroke="#27272A"/>
<g clip-path="url(#clip5_1171_3226)">
<path d="M202.75 106.25L204.5 108L202.75 109.75L201 108L202.75 106.25Z" stroke="#FAFAFA" stroke-linecap="round" stroke-linejoin="round"/>
<path d="M206 103L207.75 104.75L206 106.5L204.25 104.75L206 103Z" stroke="#FAFAFA" stroke-linecap="round" stroke-linejoin="round"/>
<path d="M209.25 106.25L211 108L209.25 109.75L207.5 108L209.25 106.25Z" stroke="#FAFAFA" stroke-linecap="round" stroke-linejoin="round"/>
<path d="M206 109.5L207.75 111.25L206 113L204.25 111.25L206 109.5Z" stroke="#FAFAFA" stroke-linecap="round" stroke-linejoin="round"/>
</g>
<path d="M216.959 112V103.273H220.155C220.774 103.273 221.287 103.375 221.693 103.58C222.099 103.781 222.403 104.055 222.605 104.402C222.807 104.746 222.908 105.134 222.908 105.565C222.908 105.929 222.841 106.236 222.707 106.486C222.574 106.733 222.395 106.932 222.17 107.082C221.949 107.23 221.705 107.338 221.438 107.406V107.491C221.727 107.506 222.01 107.599 222.286 107.773C222.564 107.943 222.794 108.186 222.976 108.501C223.158 108.817 223.249 109.2 223.249 109.652C223.249 110.098 223.143 110.499 222.933 110.854C222.726 111.206 222.405 111.486 221.97 111.693C221.536 111.898 220.98 112 220.304 112H216.959ZM218.276 110.871H220.176C220.807 110.871 221.259 110.749 221.531 110.504C221.804 110.26 221.94 109.955 221.94 109.588C221.94 109.312 221.871 109.06 221.732 108.83C221.592 108.599 221.393 108.416 221.135 108.28C220.879 108.143 220.575 108.075 220.223 108.075H218.276V110.871ZM218.276 107.048H220.04C220.335 107.048 220.601 106.991 220.837 106.878C221.075 106.764 221.264 106.605 221.403 106.401C221.545 106.193 221.616 105.949 221.616 105.668C221.616 105.307 221.49 105.004 221.237 104.76C220.984 104.516 220.597 104.393 220.074 104.393H218.276V107.048ZM228.854 109.286V105.455H230.133V112H228.88V110.866H228.812C228.661 111.216 228.42 111.507 228.087 111.74C227.758 111.97 227.347 112.085 226.856 112.085C226.435 112.085 226.063 111.993 225.739 111.808C225.418 111.621 225.165 111.344 224.981 110.977C224.799 110.611 224.708 110.158 224.708 109.618V105.455H225.982V109.464C225.982 109.911 226.106 110.266 226.353 110.53C226.6 110.794 226.921 110.926 227.316 110.926C227.555 110.926 227.792 110.866 228.028 110.747C228.266 110.628 228.464 110.447 228.62 110.206C228.779 109.964 228.857 109.658 228.854 109.286ZM234.9 105.455V106.477H231.325V105.455H234.9ZM232.284 103.886H233.558V110.078C233.558 110.325 233.595 110.511 233.669 110.636C233.743 110.759 233.838 110.842 233.954 110.888C234.074 110.93 234.203 110.952 234.342 110.952C234.444 110.952 234.534 110.945 234.61 110.93C234.687 110.916 234.747 110.905 234.789 110.896L235.02 111.949C234.946 111.977 234.841 112.006 234.704 112.034C234.568 112.065 234.397 112.082 234.193 112.085C233.858 112.091 233.545 112.031 233.255 111.906C232.966 111.781 232.731 111.588 232.552 111.327C232.373 111.065 232.284 110.737 232.284 110.342V103.886ZM239.365 105.455V106.477H235.79V105.455H239.365ZM236.749 103.886H238.023V110.078C238.023 110.325 238.06 110.511 238.134 110.636C238.207 110.759 238.303 110.842 238.419 110.888C238.538 110.93 238.668 110.952 238.807 110.952C238.909 110.952 238.999 110.945 239.075 110.93C239.152 110.916 239.212 110.905 239.254 110.896L239.484 111.949C239.411 111.977 239.305 112.006 239.169 112.034C239.033 112.065 238.862 112.082 238.658 112.085C238.322 112.091 238.01 112.031 237.72 111.906C237.43 111.781 237.196 111.588 237.017 111.327C236.838 111.065 236.749 110.737 236.749 110.342V103.886ZM243.461 112.132C242.848 112.132 242.312 111.991 241.855 111.71C241.397 111.429 241.042 111.036 240.789 110.53C240.537 110.024 240.41 109.433 240.41 108.757C240.41 108.078 240.537 107.484 240.789 106.976C241.042 106.467 241.397 106.072 241.855 105.791C242.312 105.51 242.848 105.369 243.461 105.369C244.075 105.369 244.61 105.51 245.068 105.791C245.525 106.072 245.88 106.467 246.133 106.976C246.386 107.484 246.512 108.078 246.512 108.757C246.512 109.433 246.386 110.024 246.133 110.53C245.88 111.036 245.525 111.429 245.068 111.71C244.61 111.991 244.075 112.132 243.461 112.132ZM243.466 111.062C243.863 111.062 244.193 110.957 244.454 110.747C244.716 110.537 244.909 110.257 245.034 109.908C245.162 109.558 245.225 109.173 245.225 108.753C245.225 108.335 245.162 107.952 245.034 107.602C244.909 107.25 244.716 106.967 244.454 106.754C244.193 106.541 243.863 106.435 243.466 106.435C243.065 106.435 242.733 106.541 242.468 106.754C242.207 106.967 242.012 107.25 241.885 107.602C241.76 107.952 241.697 108.335 241.697 108.753C241.697 109.173 241.76 109.558 241.885 109.908C242.012 110.257 242.207 110.537 242.468 110.747C242.733 110.957 243.065 111.062 243.466 111.062ZM249.209 108.114V112H247.935V105.455H249.158V106.52H249.239C249.389 106.173 249.625 105.895 249.946 105.685C250.27 105.474 250.678 105.369 251.169 105.369C251.615 105.369 252.006 105.463 252.341 105.651C252.676 105.835 252.936 106.111 253.121 106.477C253.305 106.844 253.398 107.297 253.398 107.837V112H252.124V107.99C252.124 107.516 252 107.145 251.753 106.878C251.506 106.608 251.166 106.473 250.734 106.473C250.439 106.473 250.176 106.537 249.946 106.665C249.719 106.793 249.538 106.98 249.405 107.227C249.274 107.472 249.209 107.767 249.209 108.114Z" fill="#FAFAFA"/>
<path d="M291 92.5H311C314.038 92.5 316.5 94.9624 316.5 98V118C316.5 121.038 314.038 123.5 311 123.5H291C287.962 123.5 285.5 121.038 285.5 118V98C285.5 94.9624 287.962 92.5 291 92.5Z" stroke="#27272A"/>
<g clip-path="url(#clip6_1171_3226)">
<path d="M296.125 105.375L298.75 108L296.125 110.625L293.5 108L296.125 105.375Z" stroke="#FAFAFA" stroke-width="1.5" stroke-linecap="round" stroke-linejoin="round"/>
<path d="M301 100.5L303.625 103.125L301 105.75L298.375 103.125L301 100.5Z" stroke="#FAFAFA" stroke-width="1.5" stroke-linecap="round" stroke-linejoin="round"/>
<path d="M305.875 105.375L308.5 108L305.875 110.625L303.25 108L305.875 105.375Z" stroke="#FAFAFA" stroke-width="1.5" stroke-linecap="round" stroke-linejoin="round"/>
<path d="M301 110.25L303.625 112.875L301 115.5L298.375 112.875L301 110.25Z" stroke="#FAFAFA" stroke-width="1.5" stroke-linecap="round" stroke-linejoin="round"/>
</g>
<path d="M20 150C20 146.686 22.6863 144 26 144H73C76.3137 144 79 146.686 79 150V170C79 173.314 76.3137 176 73 176H26C22.6863 176 20 173.314 20 170V150Z" fill="#2D0607"/>
<path d="M30.9588 164V155.273H34.1548C34.7741 155.273 35.2869 155.375 35.6932 155.58C36.0994 155.781 36.4034 156.055 36.6051 156.402C36.8068 156.746 36.9077 157.134 36.9077 157.565C36.9077 157.929 36.8409 158.236 36.7074 158.486C36.5739 158.733 36.3949 158.932 36.1705 159.082C35.9489 159.23 35.7045 159.338 35.4375 159.406V159.491C35.7273 159.506 36.0099 159.599 36.2855 159.773C36.5639 159.943 36.794 160.186 36.9759 160.501C37.1577 160.817 37.2486 161.2 37.2486 161.652C37.2486 162.098 37.1435 162.499 36.9332 162.854C36.7259 163.206 36.4048 163.486 35.9702 163.693C35.5355 163.898 34.9801 164 34.304 164H30.9588ZM32.2756 162.871H34.1761C34.8068 162.871 35.2585 162.749 35.5312 162.504C35.804 162.26 35.9403 161.955 35.9403 161.588C35.9403 161.312 35.8707 161.06 35.7315 160.83C35.5923 160.599 35.3935 160.416 35.1349 160.28C34.8793 160.143 34.5753 160.075 34.223 160.075H32.2756V162.871ZM32.2756 159.048H34.0398C34.3352 159.048 34.6009 158.991 34.8366 158.878C35.0753 158.764 35.2642 158.605 35.4034 158.401C35.5455 158.193 35.6165 157.949 35.6165 157.668C35.6165 157.307 35.4901 157.004 35.2372 156.76C34.9844 156.516 34.5966 156.393 34.0739 156.393H32.2756V159.048ZM42.8544 161.286V157.455H44.1328V164H42.88V162.866H42.8118C42.6612 163.216 42.4197 163.507 42.0874 163.74C41.7578 163.97 41.3473 164.085 40.8558 164.085C40.4354 164.085 40.0632 163.993 39.7393 163.808C39.4183 163.621 39.1655 163.344 38.9808 162.977C38.799 162.611 38.7081 162.158 38.7081 161.618V157.455H39.9822V161.464C39.9822 161.911 40.1058 162.266 40.353 162.53C40.6001 162.794 40.9212 162.926 41.3161 162.926C41.5547 162.926 41.7919 162.866 42.0277 162.747C42.2663 162.628 42.4638 162.447 42.62 162.206C42.7791 161.964 42.8572 161.658 42.8544 161.286ZM48.9002 157.455V158.477H45.3249V157.455H48.9002ZM46.2837 155.886H47.5579V162.078C47.5579 162.325 47.5948 162.511 47.6687 162.636C47.7425 162.759 47.8377 162.842 47.9542 162.888C48.0735 162.93 48.2028 162.952 48.342 162.952C48.4442 162.952 48.5337 162.945 48.6104 162.93C48.6871 162.916 48.7468 162.905 48.7894 162.896L49.0195 163.949C48.9457 163.977 48.8406 164.006 48.7042 164.034C48.5678 164.065 48.3974 164.082 48.1928 164.085C47.8576 164.091 47.5451 164.031 47.2553 163.906C46.9656 163.781 46.7312 163.588 46.5522 163.327C46.3732 163.065 46.2837 162.737 46.2837 162.342V155.886ZM53.3651 157.455V158.477H49.7898V157.455H53.3651ZM50.7486 155.886H52.0227V162.078C52.0227 162.325 52.0597 162.511 52.1335 162.636C52.2074 162.759 52.3026 162.842 52.419 162.888C52.5384 162.93 52.6676 162.952 52.8068 162.952C52.9091 162.952 52.9986 162.945 53.0753 162.93C53.152 162.916 53.2116 162.905 53.2543 162.896L53.4844 163.949C53.4105 163.977 53.3054 164.006 53.169 164.034C53.0327 164.065 52.8622 164.082 52.6577 164.085C52.3224 164.091 52.0099 164.031 51.7202 163.906C51.4304 163.781 51.196 163.588 51.017 163.327C50.8381 163.065 50.7486 162.737 50.7486 162.342V155.886ZM57.4613 164.132C56.8477 164.132 56.3121 163.991 55.8548 163.71C55.3974 163.429 55.0423 163.036 54.7894 162.53C54.5366 162.024 54.4102 161.433 54.4102 160.757C54.4102 160.078 54.5366 159.484 54.7894 158.976C55.0423 158.467 55.3974 158.072 55.8548 157.791C56.3121 157.51 56.8477 157.369 57.4613 157.369C58.0749 157.369 58.6104 157.51 59.0678 157.791C59.5252 158.072 59.8803 158.467 60.1332 158.976C60.386 159.484 60.5124 160.078 60.5124 160.757C60.5124 161.433 60.386 162.024 60.1332 162.53C59.8803 163.036 59.5252 163.429 59.0678 163.71C58.6104 163.991 58.0749 164.132 57.4613 164.132ZM57.4656 163.062C57.8633 163.062 58.1928 162.957 58.4542 162.747C58.7156 162.537 58.9087 162.257 59.0337 161.908C59.1616 161.558 59.2255 161.173 59.2255 160.753C59.2255 160.335 59.1616 159.952 59.0337 159.602C58.9087 159.25 58.7156 158.967 58.4542 158.754C58.1928 158.541 57.8633 158.435 57.4656 158.435C57.065 158.435 56.7326 158.541 56.4684 158.754C56.207 158.967 56.0124 159.25 55.8846 159.602C55.7596 159.952 55.6971 160.335 55.6971 160.753C55.6971 161.173 55.7596 161.558 55.8846 161.908C56.0124 162.257 56.207 162.537 56.4684 162.747C56.7326 162.957 57.065 163.062 57.4656 163.062ZM63.2088 160.114V164H61.9347V157.455H63.1577V158.52H63.2386C63.3892 158.173 63.625 157.895 63.946 157.685C64.2699 157.474 64.6776 157.369 65.169 157.369C65.6151 157.369 66.0057 157.463 66.3409 157.651C66.6761 157.835 66.9361 158.111 67.1207 158.477C67.3054 158.844 67.3977 159.297 67.3977 159.837V164H66.1236V159.99C66.1236 159.516 66 159.145 65.7528 158.878C65.5057 158.608 65.1662 158.473 64.7344 158.473C64.4389 158.473 64.1761 158.537 63.946 158.665C63.7188 158.793 63.5384 158.98 63.4048 159.227C63.2741 159.472 63.2088 159.767 63.2088 160.114Z" fill="#FF9EA1"/>
<path d="M99 150C99 146.686 101.686 144 105 144H166C169.314 144 172 146.686 172 150V170C172 173.314 169.314 176 166 176H105C101.686 176 99 173.314 99 170V150Z" fill="#2D0607"/>
<path d="M109.959 164V155.273H113.155C113.774 155.273 114.287 155.375 114.693 155.58C115.099 155.781 115.403 156.055 115.605 156.402C115.807 156.746 115.908 157.134 115.908 157.565C115.908 157.929 115.841 158.236 115.707 158.486C115.574 158.733 115.395 158.932 115.17 159.082C114.949 159.23 114.705 159.338 114.438 159.406V159.491C114.727 159.506 115.01 159.599 115.286 159.773C115.564 159.943 115.794 160.186 115.976 160.501C116.158 160.817 116.249 161.2 116.249 161.652C116.249 162.098 116.143 162.499 115.933 162.854C115.726 163.206 115.405 163.486 114.97 163.693C114.536 163.898 113.98 164 113.304 164H109.959ZM111.276 162.871H113.176C113.807 162.871 114.259 162.749 114.531 162.504C114.804 162.26 114.94 161.955 114.94 161.588C114.94 161.312 114.871 161.06 114.732 160.83C114.592 160.599 114.393 160.416 114.135 160.28C113.879 160.143 113.575 160.075 113.223 160.075H111.276V162.871ZM111.276 159.048H113.04C113.335 159.048 113.601 158.991 113.837 158.878C114.075 158.764 114.264 158.605 114.403 158.401C114.545 158.193 114.616 157.949 114.616 157.668C114.616 157.307 114.49 157.004 114.237 156.76C113.984 156.516 113.597 156.393 113.074 156.393H111.276V159.048ZM121.854 161.286V157.455H123.133V164H121.88V162.866H121.812C121.661 163.216 121.42 163.507 121.087 163.74C120.758 163.97 120.347 164.085 119.856 164.085C119.435 164.085 119.063 163.993 118.739 163.808C118.418 163.621 118.165 163.344 117.981 162.977C117.799 162.611 117.708 162.158 117.708 161.618V157.455H118.982V161.464C118.982 161.911 119.106 162.266 119.353 162.53C119.6 162.794 119.921 162.926 120.316 162.926C120.555 162.926 120.792 162.866 121.028 162.747C121.266 162.628 121.464 162.447 121.62 162.206C121.779 161.964 121.857 161.658 121.854 161.286ZM127.9 157.455V158.477H124.325V157.455H127.9ZM125.284 155.886H126.558V162.078C126.558 162.325 126.595 162.511 126.669 162.636C126.743 162.759 126.838 162.842 126.954 162.888C127.074 162.93 127.203 162.952 127.342 162.952C127.444 162.952 127.534 162.945 127.61 162.93C127.687 162.916 127.747 162.905 127.789 162.896L128.02 163.949C127.946 163.977 127.841 164.006 127.704 164.034C127.568 164.065 127.397 164.082 127.193 164.085C126.858 164.091 126.545 164.031 126.255 163.906C125.966 163.781 125.731 163.588 125.552 163.327C125.373 163.065 125.284 162.737 125.284 162.342V155.886ZM132.365 157.455V158.477H128.79V157.455H132.365ZM129.749 155.886H131.023V162.078C131.023 162.325 131.06 162.511 131.134 162.636C131.207 162.759 131.303 162.842 131.419 162.888C131.538 162.93 131.668 162.952 131.807 162.952C131.909 162.952 131.999 162.945 132.075 162.93C132.152 162.916 132.212 162.905 132.254 162.896L132.484 163.949C132.411 163.977 132.305 164.006 132.169 164.034C132.033 164.065 131.862 164.082 131.658 164.085C131.322 164.091 131.01 164.031 130.72 163.906C130.43 163.781 130.196 163.588 130.017 163.327C129.838 163.065 129.749 162.737 129.749 162.342V155.886ZM136.461 164.132C135.848 164.132 135.312 163.991 134.855 163.71C134.397 163.429 134.042 163.036 133.789 162.53C133.537 162.024 133.41 161.433 133.41 160.757C133.41 160.078 133.537 159.484 133.789 158.976C134.042 158.467 134.397 158.072 134.855 157.791C135.312 157.51 135.848 157.369 136.461 157.369C137.075 157.369 137.61 157.51 138.068 157.791C138.525 158.072 138.88 158.467 139.133 158.976C139.386 159.484 139.512 160.078 139.512 160.757C139.512 161.433 139.386 162.024 139.133 162.53C138.88 163.036 138.525 163.429 138.068 163.71C137.61 163.991 137.075 164.132 136.461 164.132ZM136.466 163.062C136.863 163.062 137.193 162.957 137.454 162.747C137.716 162.537 137.909 162.257 138.034 161.908C138.162 161.558 138.225 161.173 138.225 160.753C138.225 160.335 138.162 159.952 138.034 159.602C137.909 159.25 137.716 158.967 137.454 158.754C137.193 158.541 136.863 158.435 136.466 158.435C136.065 158.435 135.733 158.541 135.468 158.754C135.207 158.967 135.012 159.25 134.885 159.602C134.76 159.952 134.697 160.335 134.697 160.753C134.697 161.173 134.76 161.558 134.885 161.908C135.012 162.257 135.207 162.537 135.468 162.747C135.733 162.957 136.065 163.062 136.466 163.062ZM142.209 160.114V164H140.935V157.455H142.158V158.52H142.239C142.389 158.173 142.625 157.895 142.946 157.685C143.27 157.474 143.678 157.369 144.169 157.369C144.615 157.369 145.006 157.463 145.341 157.651C145.676 157.835 145.936 158.111 146.121 158.477C146.305 158.844 146.398 159.297 146.398 159.837V164H145.124V159.99C145.124 159.516 145 159.145 144.753 158.878C144.506 158.608 144.166 158.473 143.734 158.473C143.439 158.473 143.176 158.537 142.946 158.665C142.719 158.793 142.538 158.98 142.405 159.227C142.274 159.472 142.209 159.767 142.209 160.114Z" fill="#FF9EA1"/>
<g clip-path="url(#clip7_1171_3226)">
<path d="M154.75 158.25L156.5 160L154.75 161.75L153 160L154.75 158.25Z" stroke="#FF9EA1" stroke-linecap="round" stroke-linejoin="round"/>
<path d="M158 155L159.75 156.75L158 158.5L156.25 156.75L158 155Z" stroke="#FF9EA1" stroke-linecap="round" stroke-linejoin="round"/>
<path d="M161.25 158.25L163 160L161.25 161.75L159.5 160L161.25 158.25Z" stroke="#FF9EA1" stroke-linecap="round" stroke-linejoin="round"/>
<path d="M158 161.5L159.75 163.25L158 165L156.25 163.25L158 161.5Z" stroke="#FF9EA1" stroke-linecap="round" stroke-linejoin="round"/>
</g>
<path d="M192 150C192 146.686 194.686 144 198 144H259C262.314 144 265 146.686 265 150V170C265 173.314 262.314 176 259 176H198C194.686 176 192 173.314 192 170V150Z" fill="#2D0607"/>
<g clip-path="url(#clip8_1171_3226)">
<path d="M202.75 158.25L204.5 160L202.75 161.75L201 160L202.75 158.25Z" stroke="#FF9EA1" stroke-linecap="round" stroke-linejoin="round"/>
<path d="M206 155L207.75 156.75L206 158.5L204.25 156.75L206 155Z" stroke="#FF9EA1" stroke-linecap="round" stroke-linejoin="round"/>
<path d="M209.25 158.25L211 160L209.25 161.75L207.5 160L209.25 158.25Z" stroke="#FF9EA1" stroke-linecap="round" stroke-linejoin="round"/>
<path d="M206 161.5L207.75 163.25L206 165L204.25 163.25L206 161.5Z" stroke="#FF9EA1" stroke-linecap="round" stroke-linejoin="round"/>
</g>
<path d="M216.959 164V155.273H220.155C220.774 155.273 221.287 155.375 221.693 155.58C222.099 155.781 222.403 156.055 222.605 156.402C222.807 156.746 222.908 157.134 222.908 157.565C222.908 157.929 222.841 158.236 222.707 158.486C222.574 158.733 222.395 158.932 222.17 159.082C221.949 159.23 221.705 159.338 221.438 159.406V159.491C221.727 159.506 222.01 159.599 222.286 159.773C222.564 159.943 222.794 160.186 222.976 160.501C223.158 160.817 223.249 161.2 223.249 161.652C223.249 162.098 223.143 162.499 222.933 162.854C222.726 163.206 222.405 163.486 221.97 163.693C221.536 163.898 220.98 164 220.304 164H216.959ZM218.276 162.871H220.176C220.807 162.871 221.259 162.749 221.531 162.504C221.804 162.26 221.94 161.955 221.94 161.588C221.94 161.312 221.871 161.06 221.732 160.83C221.592 160.599 221.393 160.416 221.135 160.28C220.879 160.143 220.575 160.075 220.223 160.075H218.276V162.871ZM218.276 159.048H220.04C220.335 159.048 220.601 158.991 220.837 158.878C221.075 158.764 221.264 158.605 221.403 158.401C221.545 158.193 221.616 157.949 221.616 157.668C221.616 157.307 221.49 157.004 221.237 156.76C220.984 156.516 220.597 156.393 220.074 156.393H218.276V159.048ZM228.854 161.286V157.455H230.133V164H228.88V162.866H228.812C228.661 163.216 228.42 163.507 228.087 163.74C227.758 163.97 227.347 164.085 226.856 164.085C226.435 164.085 226.063 163.993 225.739 163.808C225.418 163.621 225.165 163.344 224.981 162.977C224.799 162.611 224.708 162.158 224.708 161.618V157.455H225.982V161.464C225.982 161.911 226.106 162.266 226.353 162.53C226.6 162.794 226.921 162.926 227.316 162.926C227.555 162.926 227.792 162.866 228.028 162.747C228.266 162.628 228.464 162.447 228.62 162.206C228.779 161.964 228.857 161.658 228.854 161.286ZM234.9 157.455V158.477H231.325V157.455H234.9ZM232.284 155.886H233.558V162.078C233.558 162.325 233.595 162.511 233.669 162.636C233.743 162.759 233.838 162.842 233.954 162.888C234.074 162.93 234.203 162.952 234.342 162.952C234.444 162.952 234.534 162.945 234.61 162.93C234.687 162.916 234.747 162.905 234.789 162.896L235.02 163.949C234.946 163.977 234.841 164.006 234.704 164.034C234.568 164.065 234.397 164.082 234.193 164.085C233.858 164.091 233.545 164.031 233.255 163.906C232.966 163.781 232.731 163.588 232.552 163.327C232.373 163.065 232.284 162.737 232.284 162.342V155.886ZM239.365 157.455V158.477H235.79V157.455H239.365ZM236.749 155.886H238.023V162.078C238.023 162.325 238.06 162.511 238.134 162.636C238.207 162.759 238.303 162.842 238.419 162.888C238.538 162.93 238.668 162.952 238.807 162.952C238.909 162.952 238.999 162.945 239.075 162.93C239.152 162.916 239.212 162.905 239.254 162.896L239.484 163.949C239.411 163.977 239.305 164.006 239.169 164.034C239.033 164.065 238.862 164.082 238.658 164.085C238.322 164.091 238.01 164.031 237.72 163.906C237.43 163.781 237.196 163.588 237.017 163.327C236.838 163.065 236.749 162.737 236.749 162.342V155.886ZM243.461 164.132C242.848 164.132 242.312 163.991 241.855 163.71C241.397 163.429 241.042 163.036 240.789 162.53C240.537 162.024 240.41 161.433 240.41 160.757C240.41 160.078 240.537 159.484 240.789 158.976C241.042 158.467 241.397 158.072 241.855 157.791C242.312 157.51 242.848 157.369 243.461 157.369C244.075 157.369 244.61 157.51 245.068 157.791C245.525 158.072 245.88 158.467 246.133 158.976C246.386 159.484 246.512 160.078 246.512 160.757C246.512 161.433 246.386 162.024 246.133 162.53C245.88 163.036 245.525 163.429 245.068 163.71C244.61 163.991 244.075 164.132 243.461 164.132ZM243.466 163.062C243.863 163.062 244.193 162.957 244.454 162.747C244.716 162.537 244.909 162.257 245.034 161.908C245.162 161.558 245.225 161.173 245.225 160.753C245.225 160.335 245.162 159.952 245.034 159.602C244.909 159.25 244.716 158.967 244.454 158.754C244.193 158.541 243.863 158.435 243.466 158.435C243.065 158.435 242.733 158.541 242.468 158.754C242.207 158.967 242.012 159.25 241.885 159.602C241.76 159.952 241.697 160.335 241.697 160.753C241.697 161.173 241.76 161.558 241.885 161.908C242.012 162.257 242.207 162.537 242.468 162.747C242.733 162.957 243.065 163.062 243.466 163.062ZM249.209 160.114V164H247.935V157.455H249.158V158.52H249.239C249.389 158.173 249.625 157.895 249.946 157.685C250.27 157.474 250.678 157.369 251.169 157.369C251.615 157.369 252.006 157.463 252.341 157.651C252.676 157.835 252.936 158.111 253.121 158.477C253.305 158.844 253.398 159.297 253.398 159.837V164H252.124V159.99C252.124 159.516 252 159.145 251.753 158.878C251.506 158.608 251.166 158.473 250.734 158.473C250.439 158.473 250.176 158.537 249.946 158.665C249.719 158.793 249.538 158.98 249.405 159.227C249.274 159.472 249.209 159.767 249.209 160.114Z" fill="#FF9EA1"/>
<path d="M285 150C285 146.686 287.686 144 291 144H311C314.314 144 317 146.686 317 150V170C317 173.314 314.314 176 311 176H291C287.686 176 285 173.314 285 170V150Z" fill="#2D0607"/>
<g clip-path="url(#clip9_1171_3226)">
<path d="M296.125 157.375L298.75 160L296.125 162.625L293.5 160L296.125 157.375Z" stroke="#FF9EA1" stroke-width="1.5" stroke-linecap="round" stroke-linejoin="round"/>
<path d="M301 152.5L303.625 155.125L301 157.75L298.375 155.125L301 152.5Z" stroke="#FF9EA1" stroke-width="1.5" stroke-linecap="round" stroke-linejoin="round"/>
<path d="M305.875 157.375L308.5 160L305.875 162.625L303.25 160L305.875 157.375Z" stroke="#FF9EA1" stroke-width="1.5" stroke-linecap="round" stroke-linejoin="round"/>
<path d="M301 162.25L303.625 164.875L301 167.5L298.375 164.875L301 162.25Z" stroke="#FF9EA1" stroke-width="1.5" stroke-linecap="round" stroke-linejoin="round"/>
</g>
<defs>
<clipPath id="clip0_1171_3226">
<rect width="12" height="12" fill="white"/>
</clipPath>
<clipPath id="clip1_1171_3226">
<rect width="12" height="12" fill="white" transform="translate(152 50)"/>
</clipPath>
<clipPath id="clip2_1171_3226">
<rect width="12" height="12" fill="white" transform="translate(200 50)"/>
</clipPath>
<clipPath id="clip3_1171_3226">
<rect width="18" height="18" fill="white" transform="translate(292 47)"/>
</clipPath>
<clipPath id="clip4_1171_3226">
<rect width="12" height="12" fill="white" transform="translate(152 102)"/>
</clipPath>
<clipPath id="clip5_1171_3226">
<rect width="12" height="12" fill="white" transform="translate(200 102)"/>
</clipPath>
<clipPath id="clip6_1171_3226">
<rect width="18" height="18" fill="white" transform="translate(292 99)"/>
</clipPath>
<clipPath id="clip7_1171_3226">
<rect width="12" height="12" fill="white" transform="translate(152 154)"/>
</clipPath>
<clipPath id="clip8_1171_3226">
<rect width="12" height="12" fill="white" transform="translate(200 154)"/>
</clipPath>
<clipPath id="clip9_1171_3226">
<rect width="18" height="18" fill="white" transform="translate(292 151)"/>
</clipPath>
</defs>
</svg>
