<svg width="64" height="64" viewBox="0 0 64 64" fill="none" xmlns="http://www.w3.org/2000/svg">
<g clip-path="url(#clip0_947_3190)">
<mask id="mask0_947_3190" style="mask-type:alpha" maskUnits="userSpaceOnUse" x="0" y="0" width="64" height="64">
<path d="M32 64C49.6731 64 64 49.6731 64 32C64 14.3269 49.6731 0 32 0C14.3269 0 0 14.3269 0 32C0 49.6731 14.3269 64 32 64Z" fill="black"/>
</mask>
<g mask="url(#mask0_947_3190)">
<path d="M32 64C49.6731 64 64 49.6731 64 32C64 14.3269 49.6731 0 32 0C14.3269 0 0 14.3269 0 32C0 49.6731 14.3269 64 32 64Z" fill="#09090B"/>
<path d="M53.1586 56.0073L24.584 19.2002H19.2002V44.7895H23.5073V24.6699L49.7776 58.6118C50.963 57.8185 52.0923 56.9478 53.1586 56.0073Z" fill="url(#paint0_linear_947_3190)"/>
<path d="M45.1553 19.2002H40.8887V44.8002H45.1553V19.2002Z" fill="url(#paint1_linear_947_3190)"/>
</g>
</g>
<defs>
<linearGradient id="paint0_linear_947_3190" x1="38.7558" y1="41.4224" x2="51.378" y2="57.0669" gradientUnits="userSpaceOnUse">
<stop stop-color="white"/>
<stop offset="1" stop-color="white" stop-opacity="0"/>
</linearGradient>
<linearGradient id="paint1_linear_947_3190" x1="43.022" y1="19.2002" x2="42.9505" y2="38.0002" gradientUnits="userSpaceOnUse">
<stop stop-color="white"/>
<stop offset="1" stop-color="white" stop-opacity="0"/>
</linearGradient>
<clipPath id="clip0_947_3190">
<rect width="64" height="64" fill="white"/>
</clipPath>
</defs>
</svg>
