<svg width="300" height="192" viewBox="0 0 300 192" fill="none" xmlns="http://www.w3.org/2000/svg">
<g clip-path="url(#clip0_1171_5155)">
<path d="M0 8C0 3.58173 3.58172 0 8 0H292C296.418 0 300 3.58172 300 8V184C300 188.418 296.418 192 292 192H7.99999C3.58171 192 0 188.418 0 184V8Z" fill="#09090B"/>
<mask id="path-3-inside-1_1171_5155" fill="white">
<path d="M0 0H300V28H0V0Z"/>
</mask>
<path d="M300 27H0V29H300V27Z" fill="#27272A" mask="url(#path-3-inside-1_1171_5155)"/>
<g clip-path="url(#clip1_1171_5155)">
<path d="M12.5833 16.9167C14.4243 16.9167 15.9167 15.4243 15.9167 13.5833C15.9167 11.7424 14.4243 10.25 12.5833 10.25C10.7424 10.25 9.25 11.7424 9.25 13.5833C9.25 15.4243 10.7424 16.9167 12.5833 16.9167Z" stroke="#A1A1AA" stroke-width="0.8" stroke-linecap="round" stroke-linejoin="round"/>
<path d="M16.7502 17.7497L14.9585 15.958" stroke="#A1A1AA" stroke-width="0.8" stroke-linecap="round" stroke-linejoin="round"/>
</g>
<path d="M22.4785 11.5449V10.7246H27.9766V11.5449H25.6963V18H24.7686V11.5449H22.4785ZM28.5137 19.9775L28.7383 19.2158L28.8311 19.2402C29.0101 19.2858 29.1729 19.2972 29.3193 19.2744C29.4658 19.2549 29.5977 19.1833 29.7148 19.0596C29.832 18.9359 29.9346 18.7438 30.0225 18.4834L30.1787 18.0293L28.0938 12.541H29.0557L30.2178 15.7783C30.3415 16.1169 30.4456 16.4521 30.5303 16.7842C30.6149 17.1162 30.7044 17.4385 30.7988 17.751H30.4766C30.571 17.4385 30.6605 17.1162 30.7451 16.7842C30.833 16.4489 30.9372 16.1136 31.0576 15.7783L32.2295 12.541H33.1865L30.7891 18.8154C30.6784 19.1051 30.5449 19.3428 30.3887 19.5283C30.2357 19.7171 30.0566 19.8555 29.8516 19.9434C29.6465 20.0345 29.4154 20.0801 29.1582 20.0801C29.002 20.0801 28.8669 20.0687 28.7529 20.0459C28.639 20.0231 28.5592 20.0003 28.5137 19.9775ZM34.2266 20.041V12.541H35.0762V13.415H35.1738C35.2357 13.3174 35.3219 13.1953 35.4326 13.0488C35.5433 12.8991 35.7028 12.7656 35.9111 12.6484C36.1195 12.5312 36.401 12.4727 36.7559 12.4727C37.2116 12.4727 37.612 12.5866 37.957 12.8145C38.3053 13.0423 38.5771 13.3678 38.7725 13.791C38.971 14.2109 39.0703 14.709 39.0703 15.2852C39.0703 15.8646 38.9727 16.3659 38.7773 16.7891C38.582 17.2122 38.3102 17.5394 37.9619 17.7705C37.6169 18.0016 37.2165 18.1172 36.7607 18.1172C36.4157 18.1172 36.1374 18.0586 35.9258 17.9414C35.7142 17.821 35.5514 17.6859 35.4375 17.5361C35.3236 17.3831 35.2357 17.2562 35.1738 17.1553H35.1055V20.041H34.2266ZM36.6289 17.3311C36.9707 17.3311 37.2555 17.2399 37.4834 17.0576C37.7145 16.8721 37.887 16.6247 38.001 16.3154C38.1182 16.0029 38.1768 15.6562 38.1768 15.2754C38.1768 14.8978 38.1198 14.5576 38.0059 14.2549C37.8919 13.9489 37.7194 13.7064 37.4883 13.5273C37.2604 13.3483 36.974 13.2588 36.6289 13.2588C36.2936 13.2588 36.012 13.3434 35.7842 13.5127C35.5563 13.682 35.3838 13.918 35.2666 14.2207C35.1527 14.5202 35.0957 14.8717 35.0957 15.2754C35.0957 15.679 35.1543 16.0355 35.2715 16.3447C35.3887 16.654 35.5612 16.8965 35.7891 17.0723C36.0202 17.2448 36.3001 17.3311 36.6289 17.3311ZM42.6445 18.1172C42.1172 18.1172 41.6615 18 41.2773 17.7656C40.8965 17.5312 40.6019 17.2041 40.3936 16.7842C40.1885 16.3643 40.0859 15.8743 40.0859 15.3145C40.0859 14.7546 40.1868 14.2614 40.3887 13.835C40.5905 13.4085 40.8753 13.0749 41.2432 12.834C41.6143 12.5931 42.0472 12.4727 42.542 12.4727C42.8317 12.4727 43.1165 12.5215 43.3965 12.6191C43.6797 12.7135 43.9352 12.8682 44.1631 13.083C44.3942 13.2946 44.5781 13.5745 44.7148 13.9229C44.8516 14.2712 44.9199 14.6976 44.9199 15.2021V15.5684H40.6816V14.8262H44.4463L44.0361 15.0996C44.0361 14.7415 43.9792 14.4242 43.8652 14.1475C43.7546 13.8675 43.5885 13.6494 43.3672 13.4932C43.1458 13.3337 42.8708 13.2539 42.542 13.2539C42.2132 13.2539 41.9316 13.3353 41.6973 13.498C41.4629 13.6576 41.2839 13.8675 41.1602 14.1279C41.0365 14.3851 40.9746 14.6618 40.9746 14.958V15.4512C40.9746 15.8548 41.0446 16.1982 41.1846 16.4814C41.3245 16.7614 41.5199 16.9746 41.7705 17.1211C42.0244 17.2643 42.3174 17.3359 42.6494 17.3359C42.8643 17.3359 43.0596 17.305 43.2354 17.2432C43.4111 17.1813 43.5625 17.0885 43.6895 16.9648C43.8164 16.8379 43.9141 16.6816 43.9824 16.4961L44.832 16.7305C44.7474 17.0039 44.6042 17.2448 44.4023 17.4531C44.2005 17.6615 43.9499 17.8242 43.6504 17.9414C43.3542 18.0586 43.0189 18.1172 42.6445 18.1172ZM50.5205 18.127C50.1755 18.127 49.8613 18.0618 49.5781 17.9316C49.2982 17.8014 49.0752 17.611 48.9092 17.3604C48.7432 17.1097 48.6602 16.8053 48.6602 16.4473C48.6602 16.1348 48.722 15.8809 48.8457 15.6855C48.9694 15.4902 49.1338 15.3372 49.3389 15.2266C49.5472 15.1126 49.7767 15.028 50.0273 14.9727C50.278 14.9173 50.5303 14.8734 50.7842 14.8408C51.1097 14.7985 51.375 14.766 51.5801 14.7432C51.7852 14.7204 51.9365 14.6813 52.0342 14.626C52.1351 14.5706 52.1855 14.4762 52.1855 14.3428V14.3135C52.1855 14.0856 52.1432 13.8936 52.0586 13.7373C51.974 13.5778 51.847 13.4557 51.6777 13.3711C51.5085 13.2865 51.2969 13.2441 51.043 13.2441C50.7826 13.2441 50.5596 13.2848 50.374 13.3662C50.1885 13.4476 50.0371 13.5501 49.9199 13.6738C49.806 13.7943 49.7197 13.918 49.6611 14.0449L48.8164 13.7666C48.9564 13.4346 49.1452 13.1758 49.3828 12.9902C49.6204 12.8014 49.8825 12.668 50.1689 12.5898C50.4554 12.5117 50.7386 12.4727 51.0186 12.4727C51.2008 12.4727 51.4076 12.4954 51.6387 12.541C51.873 12.5833 52.0977 12.6696 52.3125 12.7998C52.5306 12.93 52.7096 13.1237 52.8496 13.3809C52.9928 13.6348 53.0645 13.9749 53.0645 14.4014V18H52.2002V17.2578H52.1416C52.0798 17.3848 51.9805 17.5166 51.8438 17.6533C51.707 17.7868 51.5296 17.8991 51.3115 17.9902C51.0934 18.0814 50.8298 18.127 50.5205 18.127ZM50.6719 17.3506C50.9974 17.3506 51.2725 17.2871 51.4971 17.1602C51.7217 17.0332 51.8926 16.8688 52.0098 16.667C52.127 16.4619 52.1855 16.2487 52.1855 16.0273V15.2705C52.1497 15.3128 52.0716 15.3519 51.9512 15.3877C51.8307 15.4202 51.6924 15.4495 51.5361 15.4756C51.3831 15.5016 51.2334 15.5244 51.0869 15.5439C50.9437 15.5602 50.8298 15.5732 50.7451 15.583C50.5335 15.609 50.335 15.6546 50.1494 15.7197C49.9671 15.7816 49.8206 15.8743 49.71 15.998C49.5993 16.1185 49.5439 16.2829 49.5439 16.4912C49.5439 16.68 49.5928 16.8379 49.6904 16.9648C49.7881 17.0918 49.9215 17.1878 50.0908 17.2529C50.2601 17.318 50.4538 17.3506 50.6719 17.3506ZM59.6416 18.1172C59.1468 18.1172 58.7122 18 58.3379 17.7656C57.9668 17.5312 57.6771 17.2025 57.4688 16.7793C57.2604 16.3561 57.1562 15.8646 57.1562 15.3047C57.1562 14.735 57.2604 14.2386 57.4688 13.8154C57.6771 13.389 57.9668 13.0586 58.3379 12.8242C58.7122 12.5898 59.1468 12.4727 59.6416 12.4727C59.9053 12.4727 60.1543 12.5068 60.3887 12.5752C60.623 12.6436 60.8363 12.7428 61.0283 12.873C61.2236 13 61.3913 13.1579 61.5312 13.3467C61.6712 13.5322 61.7786 13.7438 61.8535 13.9814L61.0088 14.2207C60.9697 14.0807 60.9095 13.9521 60.8281 13.835C60.7467 13.7178 60.6475 13.6169 60.5303 13.5322C60.4163 13.4443 60.2845 13.3776 60.1348 13.332C59.985 13.2832 59.8206 13.2588 59.6416 13.2588C59.277 13.2588 58.9775 13.3548 58.7432 13.5469C58.5088 13.7357 58.3346 13.9847 58.2207 14.2939C58.1068 14.6032 58.0498 14.9401 58.0498 15.3047C58.0498 15.6628 58.1068 15.9964 58.2207 16.3057C58.3346 16.6117 58.5088 16.859 58.7432 17.0479C58.9775 17.2367 59.277 17.3311 59.6416 17.3311C59.8239 17.3311 59.9915 17.3066 60.1445 17.2578C60.2975 17.209 60.4326 17.1406 60.5498 17.0527C60.6702 16.9616 60.7712 16.8542 60.8525 16.7305C60.9339 16.6068 60.9941 16.4717 61.0332 16.3252L61.873 16.5645C61.8014 16.8086 61.694 17.0267 61.5508 17.2188C61.4108 17.4076 61.2432 17.5703 61.0479 17.707C60.8525 17.8405 60.6361 17.9414 60.3984 18.0098C60.1608 18.0814 59.9085 18.1172 59.6416 18.1172ZM65.3545 18.1172C64.8597 18.1172 64.4251 18 64.0508 17.7656C63.6797 17.5312 63.39 17.2025 63.1816 16.7793C62.9733 16.3561 62.8691 15.8646 62.8691 15.3047C62.8691 14.735 62.9733 14.2386 63.1816 13.8154C63.39 13.389 63.6797 13.0586 64.0508 12.8242C64.4251 12.5898 64.8597 12.4727 65.3545 12.4727C65.8525 12.4727 66.2887 12.5898 66.6631 12.8242C67.0374 13.0586 67.3288 13.389 67.5371 13.8154C67.7454 14.2386 67.8496 14.735 67.8496 15.3047C67.8496 15.8646 67.7454 16.3561 67.5371 16.7793C67.3288 17.2025 67.0374 17.5312 66.6631 17.7656C66.2887 18 65.8525 18.1172 65.3545 18.1172ZM65.3545 17.3311C65.7223 17.3311 66.0251 17.2367 66.2627 17.0479C66.5003 16.859 66.6761 16.6117 66.79 16.3057C66.904 15.9964 66.9609 15.6628 66.9609 15.3047C66.9609 14.9434 66.904 14.6081 66.79 14.2988C66.6761 13.9863 66.5003 13.7357 66.2627 13.5469C66.0251 13.3548 65.7223 13.2588 65.3545 13.2588C64.9899 13.2588 64.6904 13.3548 64.4561 13.5469C64.2217 13.7357 64.0475 13.9847 63.9336 14.2939C63.8197 14.6032 63.7627 14.9401 63.7627 15.3047C63.7627 15.6628 63.8197 15.9964 63.9336 16.3057C64.0475 16.6117 64.2217 16.859 64.4561 17.0479C64.6904 17.2367 64.9899 17.3311 65.3545 17.3311ZM69.1289 18V12.541H69.9834L69.9883 13.7617H69.9199C69.9948 13.4655 70.112 13.2214 70.2715 13.0293C70.4342 12.834 70.623 12.6875 70.8379 12.5898C71.056 12.4922 71.2822 12.4434 71.5166 12.4434C71.9137 12.4434 72.2344 12.5654 72.4785 12.8096C72.7259 13.0537 72.8854 13.3743 72.957 13.7715H72.8398C72.9049 13.498 73.0238 13.262 73.1963 13.0635C73.3688 12.8649 73.5771 12.7119 73.8213 12.6045C74.0687 12.4971 74.3372 12.4434 74.627 12.4434C74.9427 12.4434 75.2308 12.5117 75.4912 12.6484C75.7516 12.7852 75.9583 12.9919 76.1113 13.2686C76.2676 13.5452 76.3457 13.8952 76.3457 14.3184V18H75.4668V14.3428C75.4668 13.9489 75.3561 13.6673 75.1348 13.498C74.9134 13.3288 74.6562 13.2441 74.3633 13.2441C74.1191 13.2441 73.9076 13.2962 73.7285 13.4004C73.5527 13.5013 73.416 13.6413 73.3184 13.8203C73.224 13.9993 73.1768 14.2044 73.1768 14.4355V18H72.2979V14.2549C72.2979 13.9521 72.1969 13.708 71.9951 13.5225C71.7933 13.3369 71.5378 13.2441 71.2285 13.2441C71.0169 13.2441 70.8167 13.2946 70.6279 13.3955C70.4424 13.4932 70.2926 13.6396 70.1787 13.835C70.0648 14.0303 70.0078 14.2728 70.0078 14.5625V18H69.1289ZM77.8887 18V12.541H78.7432L78.748 13.7617H78.6797C78.7546 13.4655 78.8717 13.2214 79.0312 13.0293C79.194 12.834 79.3828 12.6875 79.5977 12.5898C79.8158 12.4922 80.042 12.4434 80.2764 12.4434C80.6735 12.4434 80.9941 12.5654 81.2383 12.8096C81.4857 13.0537 81.6452 13.3743 81.7168 13.7715H81.5996C81.6647 13.498 81.7835 13.262 81.9561 13.0635C82.1286 12.8649 82.3369 12.7119 82.5811 12.6045C82.8285 12.4971 83.097 12.4434 83.3867 12.4434C83.7025 12.4434 83.9906 12.5117 84.251 12.6484C84.5114 12.7852 84.7181 12.9919 84.8711 13.2686C85.0273 13.5452 85.1055 13.8952 85.1055 14.3184V18H84.2266V14.3428C84.2266 13.9489 84.1159 13.6673 83.8945 13.498C83.6732 13.3288 83.416 13.2441 83.123 13.2441C82.8789 13.2441 82.6673 13.2962 82.4883 13.4004C82.3125 13.5013 82.1758 13.6413 82.0781 13.8203C81.9837 13.9993 81.9365 14.2044 81.9365 14.4355V18H81.0576V14.2549C81.0576 13.9521 80.9567 13.708 80.7549 13.5225C80.5531 13.3369 80.2975 13.2441 79.9883 13.2441C79.7767 13.2441 79.5765 13.2946 79.3877 13.3955C79.2021 13.4932 79.0524 13.6396 78.9385 13.835C78.8245 14.0303 78.7676 14.2728 78.7676 14.5625V18H77.8887ZM88.1768 18.127C87.8317 18.127 87.5176 18.0618 87.2344 17.9316C86.9544 17.8014 86.7314 17.611 86.5654 17.3604C86.3994 17.1097 86.3164 16.8053 86.3164 16.4473C86.3164 16.1348 86.3783 15.8809 86.502 15.6855C86.6257 15.4902 86.79 15.3372 86.9951 15.2266C87.2035 15.1126 87.4329 15.028 87.6836 14.9727C87.9342 14.9173 88.1865 14.8734 88.4404 14.8408C88.766 14.7985 89.0312 14.766 89.2363 14.7432C89.4414 14.7204 89.5928 14.6813 89.6904 14.626C89.7913 14.5706 89.8418 14.4762 89.8418 14.3428V14.3135C89.8418 14.0856 89.7995 13.8936 89.7148 13.7373C89.6302 13.5778 89.5033 13.4557 89.334 13.3711C89.1647 13.2865 88.9531 13.2441 88.6992 13.2441C88.4388 13.2441 88.2158 13.2848 88.0303 13.3662C87.8447 13.4476 87.6934 13.5501 87.5762 13.6738C87.4622 13.7943 87.376 13.918 87.3174 14.0449L86.4727 13.7666C86.6126 13.4346 86.8014 13.1758 87.0391 12.9902C87.2767 12.8014 87.5387 12.668 87.8252 12.5898C88.1117 12.5117 88.3949 12.4727 88.6748 12.4727C88.8571 12.4727 89.0638 12.4954 89.2949 12.541C89.5293 12.5833 89.7539 12.6696 89.9688 12.7998C90.1868 12.93 90.3659 13.1237 90.5059 13.3809C90.6491 13.6348 90.7207 13.9749 90.7207 14.4014V18H89.8564V17.2578H89.7979C89.736 17.3848 89.6367 17.5166 89.5 17.6533C89.3633 17.7868 89.1859 17.8991 88.9678 17.9902C88.7497 18.0814 88.486 18.127 88.1768 18.127ZM88.3281 17.3506C88.6536 17.3506 88.9287 17.2871 89.1533 17.1602C89.3779 17.0332 89.5488 16.8688 89.666 16.667C89.7832 16.4619 89.8418 16.2487 89.8418 16.0273V15.2705C89.806 15.3128 89.7279 15.3519 89.6074 15.3877C89.487 15.4202 89.3486 15.4495 89.1924 15.4756C89.0394 15.5016 88.8896 15.5244 88.7432 15.5439C88.5999 15.5602 88.486 15.5732 88.4014 15.583C88.1898 15.609 87.9912 15.6546 87.8057 15.7197C87.6234 15.7816 87.4769 15.8743 87.3662 15.998C87.2555 16.1185 87.2002 16.2829 87.2002 16.4912C87.2002 16.68 87.249 16.8379 87.3467 16.9648C87.4443 17.0918 87.5778 17.1878 87.7471 17.2529C87.9163 17.318 88.11 17.3506 88.3281 17.3506ZM93.1426 14.7285V18H92.2637V12.541H93.1084L93.1133 13.8643H92.9912C93.1572 13.3597 93.3932 13.0016 93.6992 12.79C94.0085 12.5785 94.3698 12.4727 94.7832 12.4727C95.151 12.4727 95.4733 12.5492 95.75 12.7021C96.0267 12.8519 96.2415 13.0798 96.3945 13.3857C96.5508 13.6885 96.6289 14.071 96.6289 14.5332V18H95.75V14.6064C95.75 14.1865 95.6393 13.8577 95.418 13.6201C95.1999 13.3825 94.9004 13.2637 94.5195 13.2637C94.2591 13.2637 94.0247 13.3206 93.8164 13.4346C93.6081 13.5485 93.4437 13.7145 93.3232 13.9326C93.2028 14.1507 93.1426 14.416 93.1426 14.7285ZM100.218 18.1172C99.7653 18.1172 99.3649 18.0016 99.0166 17.7705C98.6683 17.5394 98.3965 17.2122 98.2012 16.7891C98.0059 16.3659 97.9082 15.8646 97.9082 15.2852C97.9082 14.709 98.0059 14.2109 98.2012 13.791C98.3997 13.3678 98.6732 13.0423 99.0215 12.8145C99.3698 12.5866 99.7702 12.4727 100.223 12.4727C100.577 12.4727 100.859 12.5312 101.067 12.6484C101.276 12.7656 101.435 12.8991 101.546 13.0488C101.66 13.1953 101.746 13.3174 101.805 13.415H101.873V10.7246H102.752V18H101.902V17.1553H101.805C101.746 17.2562 101.658 17.3831 101.541 17.5361C101.427 17.6859 101.264 17.821 101.053 17.9414C100.844 18.0586 100.566 18.1172 100.218 18.1172ZM100.35 17.3311C100.682 17.3311 100.962 17.2448 101.189 17.0723C101.417 16.8965 101.59 16.654 101.707 16.3447C101.824 16.0355 101.883 15.679 101.883 15.2754C101.883 14.8717 101.824 14.5202 101.707 14.2207C101.593 13.918 101.422 13.682 101.194 13.5127C100.966 13.3434 100.685 13.2588 100.35 13.2588C100.005 13.2588 99.7165 13.3483 99.4854 13.5273C99.2575 13.7064 99.0866 13.9489 98.9727 14.2549C98.8587 14.5576 98.8018 14.8978 98.8018 15.2754C98.8018 15.6562 98.8587 16.0029 98.9727 16.3154C99.0898 16.6247 99.264 16.8721 99.4951 17.0576C99.7262 17.2399 100.011 17.3311 100.35 17.3311ZM109.329 18.1172C108.834 18.1172 108.4 18 108.025 17.7656C107.654 17.5312 107.365 17.2025 107.156 16.7793C106.948 16.3561 106.844 15.8646 106.844 15.3047C106.844 14.735 106.948 14.2386 107.156 13.8154C107.365 13.389 107.654 13.0586 108.025 12.8242C108.4 12.5898 108.834 12.4727 109.329 12.4727C109.827 12.4727 110.263 12.5898 110.638 12.8242C111.012 13.0586 111.303 13.389 111.512 13.8154C111.72 14.2386 111.824 14.735 111.824 15.3047C111.824 15.8646 111.72 16.3561 111.512 16.7793C111.303 17.2025 111.012 17.5312 110.638 17.7656C110.263 18 109.827 18.1172 109.329 18.1172ZM109.329 17.3311C109.697 17.3311 110 17.2367 110.237 17.0479C110.475 16.859 110.651 16.6117 110.765 16.3057C110.879 15.9964 110.936 15.6628 110.936 15.3047C110.936 14.9434 110.879 14.6081 110.765 14.2988C110.651 13.9863 110.475 13.7357 110.237 13.5469C110 13.3548 109.697 13.2588 109.329 13.2588C108.965 13.2588 108.665 13.3548 108.431 13.5469C108.196 13.7357 108.022 13.9847 107.908 14.2939C107.794 14.6032 107.737 14.9401 107.737 15.3047C107.737 15.6628 107.794 15.9964 107.908 16.3057C108.022 16.6117 108.196 16.859 108.431 17.0479C108.665 17.2367 108.965 17.3311 109.329 17.3311ZM113.104 18V12.541H113.953V13.3809H114.012C114.113 13.1042 114.292 12.8828 114.549 12.7168C114.809 12.5475 115.102 12.4629 115.428 12.4629C115.493 12.4629 115.569 12.4645 115.657 12.4678C115.748 12.471 115.82 12.4743 115.872 12.4775V13.3613C115.846 13.3548 115.781 13.3451 115.677 13.332C115.573 13.319 115.462 13.3125 115.345 13.3125C115.084 13.3125 114.85 13.3678 114.642 13.4785C114.437 13.5859 114.275 13.7357 114.158 13.9277C114.041 14.1165 113.982 14.3346 113.982 14.582V18H113.104ZM121.541 18.1172C121.167 18.1172 120.833 18.0635 120.54 17.9561C120.25 17.8454 120.011 17.6826 119.822 17.4678C119.633 17.2529 119.507 16.9893 119.441 16.6768L120.276 16.4766C120.354 16.776 120.501 16.9958 120.716 17.1357C120.934 17.2757 121.206 17.3457 121.531 17.3457C121.912 17.3457 122.215 17.2643 122.439 17.1016C122.667 16.9388 122.781 16.7451 122.781 16.5205C122.781 16.3317 122.715 16.1755 122.581 16.0518C122.451 15.9248 122.251 15.8304 121.98 15.7686L121.072 15.5537C120.577 15.4365 120.21 15.2559 119.969 15.0117C119.728 14.7643 119.607 14.4486 119.607 14.0645C119.607 13.752 119.695 13.4769 119.871 13.2393C120.047 12.9984 120.286 12.8112 120.589 12.6777C120.895 12.541 121.242 12.4727 121.629 12.4727C122.003 12.4727 122.321 12.5296 122.581 12.6436C122.845 12.7542 123.058 12.9089 123.221 13.1074C123.387 13.3027 123.51 13.529 123.592 13.7861L122.796 13.9912C122.721 13.7959 122.596 13.6185 122.42 13.459C122.247 13.2995 121.985 13.2197 121.634 13.2197C121.308 13.2197 121.036 13.2946 120.818 13.4443C120.604 13.5941 120.496 13.7829 120.496 14.0107C120.496 14.2126 120.569 14.3753 120.716 14.499C120.862 14.6195 121.095 14.7171 121.414 14.792L122.239 14.9873C122.734 15.1045 123.1 15.2868 123.338 15.5342C123.576 15.7783 123.694 16.0876 123.694 16.4619C123.694 16.7809 123.603 17.0658 123.421 17.3164C123.242 17.5638 122.99 17.7591 122.664 17.9023C122.342 18.0456 121.967 18.1172 121.541 18.1172ZM127.264 18.1172C126.736 18.1172 126.281 18 125.896 17.7656C125.516 17.5312 125.221 17.2041 125.013 16.7842C124.808 16.3643 124.705 15.8743 124.705 15.3145C124.705 14.7546 124.806 14.2614 125.008 13.835C125.21 13.4085 125.494 13.0749 125.862 12.834C126.233 12.5931 126.666 12.4727 127.161 12.4727C127.451 12.4727 127.736 12.5215 128.016 12.6191C128.299 12.7135 128.554 12.8682 128.782 13.083C129.013 13.2946 129.197 13.5745 129.334 13.9229C129.471 14.2712 129.539 14.6976 129.539 15.2021V15.5684H125.301V14.8262H129.065L128.655 15.0996C128.655 14.7415 128.598 14.4242 128.484 14.1475C128.374 13.8675 128.208 13.6494 127.986 13.4932C127.765 13.3337 127.49 13.2539 127.161 13.2539C126.832 13.2539 126.551 13.3353 126.316 13.498C126.082 13.6576 125.903 13.8675 125.779 14.1279C125.656 14.3851 125.594 14.6618 125.594 14.958V15.4512C125.594 15.8548 125.664 16.1982 125.804 16.4814C125.944 16.7614 126.139 16.9746 126.39 17.1211C126.644 17.2643 126.937 17.3359 127.269 17.3359C127.483 17.3359 127.679 17.305 127.854 17.2432C128.03 17.1813 128.182 17.0885 128.309 16.9648C128.436 16.8379 128.533 16.6816 128.602 16.4961L129.451 16.7305C129.367 17.0039 129.223 17.2448 129.021 17.4531C128.82 17.6615 128.569 17.8242 128.27 17.9414C127.973 18.0586 127.638 18.1172 127.264 18.1172ZM132.425 18.127C132.08 18.127 131.766 18.0618 131.482 17.9316C131.202 17.8014 130.979 17.611 130.813 17.3604C130.647 17.1097 130.564 16.8053 130.564 16.4473C130.564 16.1348 130.626 15.8809 130.75 15.6855C130.874 15.4902 131.038 15.3372 131.243 15.2266C131.451 15.1126 131.681 15.028 131.932 14.9727C132.182 14.9173 132.435 14.8734 132.688 14.8408C133.014 14.7985 133.279 14.766 133.484 14.7432C133.689 14.7204 133.841 14.6813 133.938 14.626C134.039 14.5706 134.09 14.4762 134.09 14.3428V14.3135C134.09 14.0856 134.048 13.8936 133.963 13.7373C133.878 13.5778 133.751 13.4557 133.582 13.3711C133.413 13.2865 133.201 13.2441 132.947 13.2441C132.687 13.2441 132.464 13.2848 132.278 13.3662C132.093 13.4476 131.941 13.5501 131.824 13.6738C131.71 13.7943 131.624 13.918 131.565 14.0449L130.721 13.7666C130.861 13.4346 131.049 13.1758 131.287 12.9902C131.525 12.8014 131.787 12.668 132.073 12.5898C132.36 12.5117 132.643 12.4727 132.923 12.4727C133.105 12.4727 133.312 12.4954 133.543 12.541C133.777 12.5833 134.002 12.6696 134.217 12.7998C134.435 12.93 134.614 13.1237 134.754 13.3809C134.897 13.6348 134.969 13.9749 134.969 14.4014V18H134.104V17.2578H134.046C133.984 17.3848 133.885 17.5166 133.748 17.6533C133.611 17.7868 133.434 17.8991 133.216 17.9902C132.998 18.0814 132.734 18.127 132.425 18.127ZM132.576 17.3506C132.902 17.3506 133.177 17.2871 133.401 17.1602C133.626 17.0332 133.797 16.8688 133.914 16.667C134.031 16.4619 134.09 16.2487 134.09 16.0273V15.2705C134.054 15.3128 133.976 15.3519 133.855 15.3877C133.735 15.4202 133.597 15.4495 133.44 15.4756C133.287 15.5016 133.138 15.5244 132.991 15.5439C132.848 15.5602 132.734 15.5732 132.649 15.583C132.438 15.609 132.239 15.6546 132.054 15.7197C131.871 15.7816 131.725 15.8743 131.614 15.998C131.504 16.1185 131.448 16.2829 131.448 16.4912C131.448 16.68 131.497 16.8379 131.595 16.9648C131.692 17.0918 131.826 17.1878 131.995 17.2529C132.164 17.318 132.358 17.3506 132.576 17.3506ZM136.512 18V12.541H137.361V13.3809H137.42C137.521 13.1042 137.7 12.8828 137.957 12.7168C138.217 12.5475 138.51 12.4629 138.836 12.4629C138.901 12.4629 138.978 12.4645 139.065 12.4678C139.157 12.471 139.228 12.4743 139.28 12.4775V13.3613C139.254 13.3548 139.189 13.3451 139.085 13.332C138.981 13.319 138.87 13.3125 138.753 13.3125C138.493 13.3125 138.258 13.3678 138.05 13.4785C137.845 13.5859 137.684 13.7357 137.566 13.9277C137.449 14.1165 137.391 14.3346 137.391 14.582V18H136.512ZM142.337 18.1172C141.842 18.1172 141.408 18 141.033 17.7656C140.662 17.5312 140.372 17.2025 140.164 16.7793C139.956 16.3561 139.852 15.8646 139.852 15.3047C139.852 14.735 139.956 14.2386 140.164 13.8154C140.372 13.389 140.662 13.0586 141.033 12.8242C141.408 12.5898 141.842 12.4727 142.337 12.4727C142.601 12.4727 142.85 12.5068 143.084 12.5752C143.318 12.6436 143.532 12.7428 143.724 12.873C143.919 13 144.087 13.1579 144.227 13.3467C144.367 13.5322 144.474 13.7438 144.549 13.9814L143.704 14.2207C143.665 14.0807 143.605 13.9521 143.523 13.835C143.442 13.7178 143.343 13.6169 143.226 13.5322C143.112 13.4443 142.98 13.3776 142.83 13.332C142.68 13.2832 142.516 13.2588 142.337 13.2588C141.972 13.2588 141.673 13.3548 141.438 13.5469C141.204 13.7357 141.03 13.9847 140.916 14.2939C140.802 14.6032 140.745 14.9401 140.745 15.3047C140.745 15.6628 140.802 15.9964 140.916 16.3057C141.03 16.6117 141.204 16.859 141.438 17.0479C141.673 17.2367 141.972 17.3311 142.337 17.3311C142.519 17.3311 142.687 17.3066 142.84 17.2578C142.993 17.209 143.128 17.1406 143.245 17.0527C143.366 16.9616 143.466 16.8542 143.548 16.7305C143.629 16.6068 143.689 16.4717 143.729 16.3252L144.568 16.5645C144.497 16.8086 144.389 17.0267 144.246 17.2188C144.106 17.4076 143.938 17.5703 143.743 17.707C143.548 17.8405 143.331 17.9414 143.094 18.0098C142.856 18.0814 142.604 18.1172 142.337 18.1172ZM146.707 14.7285V18H145.828V10.7246H146.707V13.8643H146.556C146.722 13.3597 146.958 13.0016 147.264 12.79C147.573 12.5785 147.934 12.4727 148.348 12.4727C148.715 12.4727 149.038 12.5492 149.314 12.7021C149.594 12.8519 149.811 13.0798 149.964 13.3857C150.12 13.6885 150.198 14.071 150.198 14.5332V18H149.314V14.6064C149.314 14.1865 149.204 13.8577 148.982 13.6201C148.764 13.3825 148.465 13.2637 148.084 13.2637C147.824 13.2637 147.589 13.3206 147.381 13.4346C147.173 13.5485 147.008 13.7145 146.888 13.9326C146.767 14.1507 146.707 14.416 146.707 14.7285ZM152.415 18.0635C152.233 18.0635 152.076 18 151.946 17.873C151.819 17.7428 151.756 17.5866 151.756 17.4043C151.756 17.222 151.819 17.0674 151.946 16.9404C152.076 16.8102 152.233 16.7451 152.415 16.7451C152.597 16.7451 152.752 16.8102 152.879 16.9404C153.009 17.0674 153.074 17.222 153.074 17.4043C153.074 17.5866 153.009 17.7428 152.879 17.873C152.752 18 152.597 18.0635 152.415 18.0635ZM155.296 18.0635C155.114 18.0635 154.957 18 154.827 17.873C154.7 17.7428 154.637 17.5866 154.637 17.4043C154.637 17.222 154.7 17.0674 154.827 16.9404C154.957 16.8102 155.114 16.7451 155.296 16.7451C155.478 16.7451 155.633 16.8102 155.76 16.9404C155.89 17.0674 155.955 17.222 155.955 17.4043C155.955 17.5866 155.89 17.7428 155.76 17.873C155.633 18 155.478 18.0635 155.296 18.0635ZM158.177 18.0635C157.994 18.0635 157.838 18 157.708 17.873C157.581 17.7428 157.518 17.5866 157.518 17.4043C157.518 17.222 157.581 17.0674 157.708 16.9404C157.838 16.8102 157.994 16.7451 158.177 16.7451C158.359 16.7451 158.514 16.8102 158.641 16.9404C158.771 17.0674 158.836 17.222 158.836 17.4043C158.836 17.5866 158.771 17.7428 158.641 17.873C158.514 18 158.359 18.0635 158.177 18.0635Z" fill="#A1A1AA"/>
<path d="M11.2471 44.1221C10.7035 44.1221 10.2314 44.0358 9.83105 43.8633C9.43066 43.6908 9.11654 43.445 8.88867 43.126C8.66406 42.8037 8.54036 42.4212 8.51758 41.9785H9.63574C9.65853 42.2422 9.74316 42.4603 9.88965 42.6328C10.0394 42.8053 10.2331 42.9339 10.4707 43.0186C10.7083 43.1032 10.9655 43.1455 11.2422 43.1455C11.5514 43.1455 11.8249 43.0983 12.0625 43.0039C12.3034 42.9062 12.4938 42.7695 12.6338 42.5938C12.7738 42.4147 12.8438 42.208 12.8438 41.9736C12.8438 41.762 12.7819 41.5895 12.6582 41.4561C12.5378 41.3193 12.3734 41.207 12.165 41.1191C11.96 41.028 11.7256 40.9482 11.4619 40.8799L10.6123 40.6455C10.0166 40.486 9.55111 40.25 9.21582 39.9375C8.88379 39.625 8.71777 39.2197 8.71777 38.7217C8.71777 38.3018 8.83008 37.9355 9.05469 37.623C9.28255 37.3073 9.59017 37.0632 9.97754 36.8906C10.3682 36.7148 10.8076 36.627 11.2959 36.627C11.7939 36.627 12.2318 36.7148 12.6094 36.8906C12.9902 37.0632 13.2881 37.3008 13.5029 37.6035C13.721 37.9062 13.835 38.2513 13.8447 38.6387H12.7607C12.7249 38.3066 12.5703 38.0495 12.2969 37.8672C12.0267 37.6849 11.6849 37.5938 11.2715 37.5938C10.9785 37.5938 10.723 37.6393 10.5049 37.7305C10.29 37.8216 10.1224 37.9486 10.002 38.1113C9.88477 38.2708 9.82617 38.4531 9.82617 38.6582C9.82617 38.8893 9.89616 39.0765 10.0361 39.2197C10.1794 39.3597 10.3519 39.472 10.5537 39.5566C10.7588 39.638 10.9541 39.7031 11.1396 39.752L11.8477 39.9375C12.0788 39.9961 12.3164 40.0758 12.5605 40.1768C12.8079 40.2744 13.0358 40.403 13.2441 40.5625C13.4525 40.7188 13.6201 40.9141 13.7471 41.1484C13.8773 41.3796 13.9424 41.6595 13.9424 41.9883C13.9424 42.3984 13.8366 42.7646 13.625 43.0869C13.4134 43.4092 13.1058 43.6631 12.7021 43.8486C12.3018 44.0309 11.8167 44.1221 11.2471 44.1221ZM17.0479 44.0684C16.6768 44.0684 16.3512 43.9902 16.0713 43.834C15.7913 43.6777 15.5732 43.4466 15.417 43.1406C15.264 42.8346 15.1875 42.457 15.1875 42.0078V38.541H16.2617V41.876C16.2617 42.2699 16.3643 42.5775 16.5693 42.7988C16.7777 43.0202 17.0592 43.1309 17.4141 43.1309C17.6582 43.1309 17.8747 43.0788 18.0635 42.9746C18.2555 42.8672 18.4069 42.7126 18.5176 42.5107C18.6283 42.3057 18.6836 42.0599 18.6836 41.7734V38.541H19.7578V44H18.7324L18.7275 42.6621H18.8301C18.6706 43.1569 18.4378 43.515 18.1318 43.7363C17.8258 43.9577 17.4645 44.0684 17.0479 44.0684ZM23.4834 46.1582C23.0635 46.1582 22.6989 46.1045 22.3896 45.9971C22.0804 45.8896 21.8249 45.7464 21.623 45.5674C21.4245 45.3883 21.2731 45.1898 21.1689 44.9717L22.0674 44.5469C22.1325 44.651 22.2188 44.7601 22.3262 44.874C22.4368 44.9912 22.585 45.0905 22.7705 45.1719C22.9561 45.2533 23.1937 45.2939 23.4834 45.2939C23.9001 45.2939 24.237 45.1947 24.4941 44.9961C24.7546 44.8008 24.8848 44.4932 24.8848 44.0732V43.0088H24.792C24.7269 43.1292 24.6357 43.2594 24.5186 43.3994C24.4046 43.5394 24.2435 43.6615 24.0352 43.7656C23.8301 43.8665 23.5615 43.917 23.2295 43.917C22.7998 43.917 22.4124 43.8161 22.0674 43.6143C21.7256 43.4124 21.4538 43.113 21.252 42.7158C21.0501 42.3187 20.9492 41.8304 20.9492 41.251C20.9492 40.6715 21.0485 40.1751 21.2471 39.7617C21.4489 39.3451 21.7223 39.026 22.0674 38.8047C22.4157 38.5833 22.8079 38.4727 23.2441 38.4727C23.5794 38.4727 23.8512 38.528 24.0596 38.6387C24.2712 38.7493 24.4355 38.8812 24.5527 39.0342C24.6732 39.1839 24.7643 39.3158 24.8262 39.4297H24.9043V38.541H25.9541V44.0781C25.9541 44.5566 25.8451 44.9489 25.627 45.2549C25.4121 45.5641 25.1175 45.792 24.7432 45.9385C24.3721 46.085 23.9521 46.1582 23.4834 46.1582ZM23.4785 43.0234C23.7845 43.0234 24.0417 42.9535 24.25 42.8135C24.4616 42.6702 24.6211 42.4652 24.7285 42.1982C24.8359 41.9281 24.8896 41.6074 24.8896 41.2363C24.8896 40.8685 24.8359 40.5462 24.7285 40.2695C24.6211 39.9928 24.4616 39.7764 24.25 39.6201C24.0417 39.4639 23.7845 39.3857 23.4785 39.3857C23.1628 39.3857 22.8991 39.4688 22.6875 39.6348C22.4759 39.7975 22.3164 40.0189 22.209 40.2988C22.1016 40.5755 22.0479 40.888 22.0479 41.2363C22.0479 41.5911 22.1016 41.9036 22.209 42.1738C22.3164 42.4408 22.4759 42.6491 22.6875 42.7988C22.9023 42.9486 23.166 43.0234 23.4785 43.0234ZM29.6846 46.1582C29.2646 46.1582 28.9001 46.1045 28.5908 45.9971C28.2816 45.8896 28.026 45.7464 27.8242 45.5674C27.6257 45.3883 27.4743 45.1898 27.3701 44.9717L28.2686 44.5469C28.3337 44.651 28.4199 44.7601 28.5273 44.874C28.638 44.9912 28.7861 45.0905 28.9717 45.1719C29.1572 45.2533 29.3949 45.2939 29.6846 45.2939C30.1012 45.2939 30.4382 45.1947 30.6953 44.9961C30.9557 44.8008 31.0859 44.4932 31.0859 44.0732V43.0088H30.9932C30.9281 43.1292 30.8369 43.2594 30.7197 43.3994C30.6058 43.5394 30.4447 43.6615 30.2363 43.7656C30.0312 43.8665 29.7627 43.917 29.4307 43.917C29.001 43.917 28.6136 43.8161 28.2686 43.6143C27.9268 43.4124 27.6549 43.113 27.4531 42.7158C27.2513 42.3187 27.1504 41.8304 27.1504 41.251C27.1504 40.6715 27.2497 40.1751 27.4482 39.7617C27.6501 39.3451 27.9235 39.026 28.2686 38.8047C28.6169 38.5833 29.0091 38.4727 29.4453 38.4727C29.7806 38.4727 30.0524 38.528 30.2607 38.6387C30.4723 38.7493 30.6367 38.8812 30.7539 39.0342C30.8743 39.1839 30.9655 39.3158 31.0273 39.4297H31.1055V38.541H32.1553V44.0781C32.1553 44.5566 32.0462 44.9489 31.8281 45.2549C31.6133 45.5641 31.3187 45.792 30.9443 45.9385C30.5732 46.085 30.1533 46.1582 29.6846 46.1582ZM29.6797 43.0234C29.9857 43.0234 30.2428 42.9535 30.4512 42.8135C30.6628 42.6702 30.8223 42.4652 30.9297 42.1982C31.0371 41.9281 31.0908 41.6074 31.0908 41.2363C31.0908 40.8685 31.0371 40.5462 30.9297 40.2695C30.8223 39.9928 30.6628 39.7764 30.4512 39.6201C30.2428 39.4639 29.9857 39.3857 29.6797 39.3857C29.3639 39.3857 29.1003 39.4688 28.8887 39.6348C28.6771 39.7975 28.5176 40.0189 28.4102 40.2988C28.3027 40.5755 28.249 40.888 28.249 41.2363C28.249 41.5911 28.3027 41.9036 28.4102 42.1738C28.5176 42.4408 28.6771 42.6491 28.8887 42.7988C29.1035 42.9486 29.3672 43.0234 29.6797 43.0234ZM35.959 44.1123C35.4219 44.1123 34.958 43.9967 34.5674 43.7656C34.1768 43.5345 33.8757 43.209 33.6641 42.7891C33.4557 42.3691 33.3516 41.876 33.3516 41.3096C33.3516 40.7497 33.4541 40.2565 33.6592 39.8301C33.8675 39.4036 34.1605 39.0716 34.5381 38.834C34.9157 38.5931 35.3584 38.4727 35.8662 38.4727C36.1787 38.4727 36.4798 38.5247 36.7695 38.6289C37.0592 38.7298 37.3197 38.8893 37.5508 39.1074C37.7819 39.3255 37.9642 39.6087 38.0977 39.957C38.2344 40.3021 38.3027 40.722 38.3027 41.2168V41.5977H33.9521V40.7969H37.751L37.248 41.0605C37.248 40.7253 37.196 40.4307 37.0918 40.1768C36.9876 39.9196 36.833 39.7194 36.6279 39.5762C36.4261 39.4329 36.1722 39.3613 35.8662 39.3613C35.5635 39.3613 35.3047 39.4346 35.0898 39.5811C34.875 39.7275 34.7106 39.9212 34.5967 40.1621C34.486 40.3997 34.4307 40.6602 34.4307 40.9434V41.4902C34.4307 41.8646 34.4941 42.182 34.6211 42.4424C34.7513 42.6995 34.932 42.8949 35.1631 43.0283C35.3942 43.1585 35.6628 43.2236 35.9688 43.2236C36.1706 43.2236 36.3529 43.196 36.5156 43.1406C36.6784 43.082 36.8184 42.9958 36.9355 42.8818C37.056 42.7646 37.1471 42.6214 37.209 42.4521L38.2197 42.6914C38.1318 42.9714 37.9837 43.2188 37.7754 43.4336C37.5703 43.6484 37.3132 43.8161 37.0039 43.9365C36.6979 44.0537 36.3496 44.1123 35.959 44.1123ZM41.4424 44.1123C41.0485 44.1123 40.6969 44.0553 40.3877 43.9414C40.0817 43.8275 39.8294 43.6598 39.6309 43.4385C39.4355 43.2139 39.3053 42.9404 39.2402 42.6182L40.251 42.4082C40.3258 42.6914 40.4658 42.9014 40.6709 43.0381C40.876 43.1748 41.1364 43.2432 41.4521 43.2432C41.7972 43.2432 42.0723 43.1715 42.2773 43.0283C42.4824 42.8818 42.585 42.7077 42.585 42.5059C42.585 42.3301 42.5215 42.1852 42.3945 42.0713C42.2708 41.9574 42.0788 41.8727 41.8184 41.8174L40.9004 41.6074C40.3926 41.4935 40.015 41.3112 39.7676 41.0605C39.5202 40.8099 39.3965 40.4893 39.3965 40.0986C39.3965 39.7731 39.4876 39.4883 39.6699 39.2441C39.8522 39 40.1012 38.8112 40.417 38.6777C40.7327 38.541 41.0973 38.4727 41.5107 38.4727C41.9046 38.4727 42.2415 38.5296 42.5215 38.6436C42.8014 38.7575 43.0277 38.917 43.2002 39.1221C43.376 39.3271 43.5013 39.5648 43.5762 39.835L42.6143 40.0449C42.5459 39.8529 42.4271 39.6852 42.2578 39.542C42.0885 39.3955 41.8428 39.3223 41.5205 39.3223C41.2243 39.3223 40.9769 39.389 40.7783 39.5225C40.5798 39.6559 40.4805 39.8252 40.4805 40.0303C40.4805 40.2126 40.5456 40.3607 40.6758 40.4746C40.8092 40.5853 41.0257 40.6748 41.3252 40.7432L42.2041 40.9385C42.7087 41.0524 43.083 41.2314 43.3271 41.4756C43.5713 41.7197 43.6934 42.0322 43.6934 42.4131C43.6934 42.7451 43.5973 43.0397 43.4053 43.2969C43.2165 43.5508 42.9528 43.751 42.6143 43.8975C42.279 44.0407 41.8883 44.1123 41.4424 44.1123ZM47.209 38.541V39.415H44.25V38.541H47.209ZM45.0459 37.2422H46.1201V42.5254C46.1201 42.7435 46.1657 42.9046 46.2568 43.0088C46.3512 43.1097 46.5042 43.1602 46.7158 43.1602C46.7712 43.1602 46.8444 43.1536 46.9355 43.1406C47.0267 43.1276 47.1048 43.1146 47.1699 43.1016L47.3604 43.9609C47.2464 44 47.1243 44.0277 46.9941 44.0439C46.8639 44.0635 46.7354 44.0732 46.6084 44.0732C46.1136 44.0732 45.7295 43.9463 45.4561 43.6924C45.1826 43.4352 45.0459 43.0755 45.0459 42.6133V37.2422ZM48.2832 44V38.541H49.3574V44H48.2832ZM48.8252 37.7061C48.6396 37.7061 48.4801 37.6442 48.3467 37.5205C48.2165 37.3968 48.1514 37.2471 48.1514 37.0713C48.1514 36.8923 48.2165 36.7409 48.3467 36.6172C48.4801 36.4935 48.6396 36.4316 48.8252 36.4316C49.0107 36.4316 49.1702 36.4935 49.3037 36.6172C49.4372 36.7409 49.5039 36.8923 49.5039 37.0713C49.5039 37.2471 49.4372 37.3968 49.3037 37.5205C49.1702 37.6442 49.0107 37.7061 48.8252 37.7061ZM53.0977 44.1123C52.5866 44.1123 52.139 43.9951 51.7549 43.7607C51.374 43.5264 51.0778 43.1976 50.8662 42.7744C50.6546 42.3512 50.5488 41.8597 50.5488 41.2998C50.5488 40.7334 50.6546 40.2386 50.8662 39.8154C51.0778 39.389 51.374 39.0586 51.7549 38.8242C52.139 38.5898 52.5866 38.4727 53.0977 38.4727C53.612 38.4727 54.0596 38.5898 54.4404 38.8242C54.8245 39.0586 55.1224 39.389 55.334 39.8154C55.5456 40.2386 55.6514 40.7334 55.6514 41.2998C55.6514 41.8597 55.5456 42.3512 55.334 42.7744C55.1224 43.1976 54.8245 43.5264 54.4404 43.7607C54.0596 43.9951 53.612 44.1123 53.0977 44.1123ZM53.0977 43.2041C53.4297 43.2041 53.7031 43.1178 53.918 42.9453C54.1361 42.7695 54.2972 42.5384 54.4014 42.252C54.5088 41.9622 54.5625 41.6449 54.5625 41.2998C54.5625 40.9515 54.5088 40.6325 54.4014 40.3428C54.2972 40.0498 54.1361 39.8171 53.918 39.6445C53.7031 39.4688 53.4297 39.3809 53.0977 39.3809C52.7689 39.3809 52.4971 39.4688 52.2822 39.6445C52.0674 39.8171 51.9062 40.0482 51.7988 40.3379C51.6947 40.6276 51.6426 40.9482 51.6426 41.2998C51.6426 41.6449 51.6947 41.9622 51.7988 42.252C51.9062 42.5384 52.0674 42.7695 52.2822 42.9453C52.4971 43.1178 52.7689 43.2041 53.0977 43.2041ZM57.9219 40.7676V44H56.8477V38.541H57.873L57.8828 39.8789H57.7705C57.93 39.3906 58.1611 39.0342 58.4639 38.8096C58.7666 38.585 59.1328 38.4727 59.5625 38.4727C59.9336 38.4727 60.2575 38.5508 60.5342 38.707C60.8109 38.8633 61.0273 39.0944 61.1836 39.4004C61.3398 39.7031 61.418 40.0807 61.418 40.5332V44H60.3438V40.665C60.3438 40.2712 60.2412 39.9635 60.0361 39.7422C59.8311 39.5208 59.5495 39.4102 59.1914 39.4102C58.9505 39.4102 58.734 39.4639 58.542 39.5713C58.3499 39.6755 58.1986 39.8285 58.0879 40.0303C57.9772 40.2321 57.9219 40.4779 57.9219 40.7676ZM64.8213 44.1123C64.4274 44.1123 64.0758 44.0553 63.7666 43.9414C63.4606 43.8275 63.2083 43.6598 63.0098 43.4385C62.8145 43.2139 62.6842 42.9404 62.6191 42.6182L63.6299 42.4082C63.7048 42.6914 63.8447 42.9014 64.0498 43.0381C64.2549 43.1748 64.5153 43.2432 64.8311 43.2432C65.1761 43.2432 65.4512 43.1715 65.6562 43.0283C65.8613 42.8818 65.9639 42.7077 65.9639 42.5059C65.9639 42.3301 65.9004 42.1852 65.7734 42.0713C65.6497 41.9574 65.4577 41.8727 65.1973 41.8174L64.2793 41.6074C63.7715 41.4935 63.3939 41.3112 63.1465 41.0605C62.8991 40.8099 62.7754 40.4893 62.7754 40.0986C62.7754 39.7731 62.8665 39.4883 63.0488 39.2441C63.2311 39 63.4801 38.8112 63.7959 38.6777C64.1117 38.541 64.4762 38.4727 64.8896 38.4727C65.2835 38.4727 65.6204 38.5296 65.9004 38.6436C66.1803 38.7575 66.4066 38.917 66.5791 39.1221C66.7549 39.3271 66.8802 39.5648 66.9551 39.835L65.9932 40.0449C65.9248 39.8529 65.806 39.6852 65.6367 39.542C65.4674 39.3955 65.2217 39.3223 64.8994 39.3223C64.6032 39.3223 64.3558 39.389 64.1572 39.5225C63.9587 39.6559 63.8594 39.8252 63.8594 40.0303C63.8594 40.2126 63.9245 40.3607 64.0547 40.4746C64.1882 40.5853 64.4046 40.6748 64.7041 40.7432L65.583 40.9385C66.0876 41.0524 66.4619 41.2314 66.7061 41.4756C66.9502 41.7197 67.0723 42.0322 67.0723 42.4131C67.0723 42.7451 66.9762 43.0397 66.7842 43.2969C66.5954 43.5508 66.3317 43.751 65.9932 43.8975C65.6579 44.0407 65.2673 44.1123 64.8213 44.1123Z" fill="#A1A1AA"/>
<g clip-path="url(#clip2_1171_5155)">
<path d="M12 57V59" stroke="#FAFAFA" stroke-linecap="round" stroke-linejoin="round"/>
<path d="M16 57V59" stroke="#FAFAFA" stroke-linecap="round" stroke-linejoin="round"/>
<path d="M17.5 58H10.5C9.94772 58 9.5 58.4477 9.5 59V66C9.5 66.5523 9.94772 67 10.5 67H17.5C18.0523 67 18.5 66.5523 18.5 66V59C18.5 58.4477 18.0523 58 17.5 58Z" stroke="#FAFAFA" stroke-linecap="round" stroke-linejoin="round"/>
<path d="M9.5 61H18.5" stroke="#FAFAFA" stroke-linecap="round" stroke-linejoin="round"/>
<path d="M29.8232 66.0977C29.2015 66.0977 28.6465 65.9479 28.1582 65.6484C27.6732 65.3457 27.2907 64.916 27.0107 64.3594C26.734 63.7995 26.5957 63.1354 26.5957 62.3672C26.5957 61.5957 26.734 60.9316 27.0107 60.375C27.2907 59.8151 27.6732 59.3838 28.1582 59.0811C28.6465 58.7783 29.2015 58.627 29.8232 58.627C30.1911 58.627 30.5378 58.6807 30.8633 58.7881C31.1921 58.8955 31.4867 59.0534 31.7471 59.2617C32.0075 59.4668 32.224 59.7174 32.3965 60.0137C32.5723 60.3066 32.6927 60.6403 32.7578 61.0146H31.8301C31.778 60.764 31.6885 60.5443 31.5615 60.3555C31.4378 60.1667 31.2848 60.0072 31.1025 59.877C30.9235 59.7467 30.7249 59.6491 30.5068 59.584C30.2887 59.5189 30.0609 59.4863 29.8232 59.4863C29.387 59.4863 28.9932 59.597 28.6416 59.8184C28.29 60.0397 28.0117 60.3652 27.8066 60.7949C27.6016 61.2214 27.499 61.7454 27.499 62.3672C27.499 62.9857 27.6016 63.5098 27.8066 63.9395C28.015 64.3659 28.2949 64.6898 28.6465 64.9111C28.998 65.1292 29.3903 65.2383 29.8232 65.2383C30.0609 65.2383 30.2887 65.2057 30.5068 65.1406C30.7249 65.0723 30.9235 64.9746 31.1025 64.8477C31.2848 64.7174 31.4378 64.5579 31.5615 64.3691C31.6885 64.1771 31.778 63.9574 31.8301 63.71H32.7578C32.696 64.0811 32.5771 64.4131 32.4014 64.7061C32.2288 64.999 32.0124 65.2497 31.752 65.458C31.4915 65.6663 31.1969 65.8258 30.8682 65.9365C30.5426 66.0439 30.1943 66.0977 29.8232 66.0977ZM35.6045 66.127C35.2594 66.127 34.9453 66.0618 34.6621 65.9316C34.3822 65.8014 34.1592 65.611 33.9932 65.3604C33.8271 65.1097 33.7441 64.8053 33.7441 64.4473C33.7441 64.1348 33.806 63.8809 33.9297 63.6855C34.0534 63.4902 34.2178 63.3372 34.4229 63.2266C34.6312 63.1126 34.8607 63.028 35.1113 62.9727C35.362 62.9173 35.6143 62.8734 35.8682 62.8408C36.1937 62.7985 36.459 62.766 36.6641 62.7432C36.8691 62.7204 37.0205 62.6813 37.1182 62.626C37.2191 62.5706 37.2695 62.4762 37.2695 62.3428V62.3135C37.2695 62.0856 37.2272 61.8936 37.1426 61.7373C37.0579 61.5778 36.931 61.4557 36.7617 61.3711C36.5924 61.2865 36.3809 61.2441 36.127 61.2441C35.8665 61.2441 35.6436 61.2848 35.458 61.3662C35.2725 61.4476 35.1211 61.5501 35.0039 61.6738C34.89 61.7943 34.8037 61.918 34.7451 62.0449L33.9004 61.7666C34.0404 61.4346 34.2292 61.1758 34.4668 60.9902C34.7044 60.8014 34.9665 60.668 35.2529 60.5898C35.5394 60.5117 35.8226 60.4727 36.1025 60.4727C36.2848 60.4727 36.4915 60.4954 36.7227 60.541C36.957 60.5833 37.1816 60.6696 37.3965 60.7998C37.6146 60.93 37.7936 61.1237 37.9336 61.3809C38.0768 61.6348 38.1484 61.9749 38.1484 62.4014V66H37.2842V65.2578H37.2256C37.1637 65.3848 37.0645 65.5166 36.9277 65.6533C36.791 65.7868 36.6136 65.8991 36.3955 65.9902C36.1774 66.0814 35.9137 66.127 35.6045 66.127ZM35.7559 65.3506C36.0814 65.3506 36.3564 65.2871 36.5811 65.1602C36.8057 65.0332 36.9766 64.8688 37.0938 64.667C37.2109 64.4619 37.2695 64.2487 37.2695 64.0273V63.2705C37.2337 63.3128 37.1556 63.3519 37.0352 63.3877C36.9147 63.4202 36.7764 63.4495 36.6201 63.4756C36.4671 63.5016 36.3174 63.5244 36.1709 63.5439C36.0277 63.5602 35.9137 63.5732 35.8291 63.583C35.6175 63.609 35.4189 63.6546 35.2334 63.7197C35.0511 63.7816 34.9046 63.8743 34.7939 63.998C34.6833 64.1185 34.6279 64.2829 34.6279 64.4912C34.6279 64.68 34.6768 64.8379 34.7744 64.9648C34.8721 65.0918 35.0055 65.1878 35.1748 65.2529C35.3441 65.318 35.5378 65.3506 35.7559 65.3506ZM40.5703 58.7246V66H39.6914V58.7246H40.5703ZM44.4082 66.1172C43.8809 66.1172 43.4251 66 43.041 65.7656C42.6602 65.5312 42.3656 65.2041 42.1572 64.7842C41.9521 64.3643 41.8496 63.8743 41.8496 63.3145C41.8496 62.7546 41.9505 62.2614 42.1523 61.835C42.3542 61.4085 42.639 61.0749 43.0068 60.834C43.3779 60.5931 43.8109 60.4727 44.3057 60.4727C44.5954 60.4727 44.8802 60.5215 45.1602 60.6191C45.4434 60.7135 45.6989 60.8682 45.9268 61.083C46.1579 61.2946 46.3418 61.5745 46.4785 61.9229C46.6152 62.2712 46.6836 62.6976 46.6836 63.2021V63.5684H42.4453V62.8262H46.21L45.7998 63.0996C45.7998 62.7415 45.7428 62.4242 45.6289 62.1475C45.5182 61.8675 45.3522 61.6494 45.1309 61.4932C44.9095 61.3337 44.6344 61.2539 44.3057 61.2539C43.9769 61.2539 43.6953 61.3353 43.4609 61.498C43.2266 61.6576 43.0475 61.8675 42.9238 62.1279C42.8001 62.3851 42.7383 62.6618 42.7383 62.958V63.4512C42.7383 63.8548 42.8083 64.1982 42.9482 64.4814C43.0882 64.7614 43.2835 64.9746 43.5342 65.1211C43.7881 65.2643 44.0811 65.3359 44.4131 65.3359C44.6279 65.3359 44.8232 65.305 44.999 65.2432C45.1748 65.1813 45.3262 65.0885 45.4531 64.9648C45.5801 64.8379 45.6777 64.6816 45.7461 64.4961L46.5957 64.7305C46.5111 65.0039 46.3678 65.2448 46.166 65.4531C45.9642 65.6615 45.7135 65.8242 45.4141 65.9414C45.1178 66.0586 44.7826 66.1172 44.4082 66.1172ZM48.8223 62.7285V66H47.9434V60.541H48.7881L48.793 61.8643H48.6709C48.8369 61.3597 49.0729 61.0016 49.3789 60.79C49.6882 60.5785 50.0495 60.4727 50.4629 60.4727C50.8307 60.4727 51.153 60.5492 51.4297 60.7021C51.7064 60.8519 51.9212 61.0798 52.0742 61.3857C52.2305 61.6885 52.3086 62.071 52.3086 62.5332V66H51.4297V62.6064C51.4297 62.1865 51.319 61.8577 51.0977 61.6201C50.8796 61.3825 50.5801 61.2637 50.1992 61.2637C49.9388 61.2637 49.7044 61.3206 49.4961 61.4346C49.2878 61.5485 49.1234 61.7145 49.0029 61.9326C48.8825 62.1507 48.8223 62.416 48.8223 62.7285ZM55.8975 66.1172C55.445 66.1172 55.0446 66.0016 54.6963 65.7705C54.348 65.5394 54.0762 65.2122 53.8809 64.7891C53.6855 64.3659 53.5879 63.8646 53.5879 63.2852C53.5879 62.709 53.6855 62.2109 53.8809 61.791C54.0794 61.3678 54.3529 61.0423 54.7012 60.8145C55.0495 60.5866 55.4499 60.4727 55.9023 60.4727C56.2572 60.4727 56.5387 60.5312 56.7471 60.6484C56.9554 60.7656 57.1149 60.8991 57.2256 61.0488C57.3395 61.1953 57.4258 61.3174 57.4844 61.415H57.5527V58.7246H58.4316V66H57.582V65.1553H57.4844C57.4258 65.2562 57.3379 65.3831 57.2207 65.5361C57.1068 65.6859 56.944 65.821 56.7324 65.9414C56.5241 66.0586 56.2458 66.1172 55.8975 66.1172ZM56.0293 65.3311C56.3613 65.3311 56.6413 65.2448 56.8691 65.0723C57.097 64.8965 57.2695 64.654 57.3867 64.3447C57.5039 64.0355 57.5625 63.679 57.5625 63.2754C57.5625 62.8717 57.5039 62.5202 57.3867 62.2207C57.2728 61.918 57.1019 61.682 56.874 61.5127C56.6462 61.3434 56.3646 61.2588 56.0293 61.2588C55.6842 61.2588 55.3962 61.3483 55.165 61.5273C54.9372 61.7064 54.7663 61.9489 54.6523 62.2549C54.5384 62.5576 54.4814 62.8978 54.4814 63.2754C54.4814 63.6562 54.5384 64.0029 54.6523 64.3154C54.7695 64.6247 54.9437 64.8721 55.1748 65.0576C55.4059 65.2399 55.6908 65.3311 56.0293 65.3311ZM61.5029 66.127C61.1579 66.127 60.8438 66.0618 60.5605 65.9316C60.2806 65.8014 60.0576 65.611 59.8916 65.3604C59.7256 65.1097 59.6426 64.8053 59.6426 64.4473C59.6426 64.1348 59.7044 63.8809 59.8281 63.6855C59.9518 63.4902 60.1162 63.3372 60.3213 63.2266C60.5296 63.1126 60.7591 63.028 61.0098 62.9727C61.2604 62.9173 61.5127 62.8734 61.7666 62.8408C62.0921 62.7985 62.3574 62.766 62.5625 62.7432C62.7676 62.7204 62.9189 62.6813 63.0166 62.626C63.1175 62.5706 63.168 62.4762 63.168 62.3428V62.3135C63.168 62.0856 63.1257 61.8936 63.041 61.7373C62.9564 61.5778 62.8294 61.4557 62.6602 61.3711C62.4909 61.2865 62.2793 61.2441 62.0254 61.2441C61.765 61.2441 61.542 61.2848 61.3564 61.3662C61.1709 61.4476 61.0195 61.5501 60.9023 61.6738C60.7884 61.7943 60.7021 61.918 60.6436 62.0449L59.7988 61.7666C59.9388 61.4346 60.1276 61.1758 60.3652 60.9902C60.6029 60.8014 60.8649 60.668 61.1514 60.5898C61.4378 60.5117 61.721 60.4727 62.001 60.4727C62.1833 60.4727 62.39 60.4954 62.6211 60.541C62.8555 60.5833 63.0801 60.6696 63.2949 60.7998C63.513 60.93 63.6921 61.1237 63.832 61.3809C63.9753 61.6348 64.0469 61.9749 64.0469 62.4014V66H63.1826V65.2578H63.124C63.0622 65.3848 62.9629 65.5166 62.8262 65.6533C62.6895 65.7868 62.512 65.8991 62.2939 65.9902C62.0758 66.0814 61.8122 66.127 61.5029 66.127ZM61.6543 65.3506C61.9798 65.3506 62.2549 65.2871 62.4795 65.1602C62.7041 65.0332 62.875 64.8688 62.9922 64.667C63.1094 64.4619 63.168 64.2487 63.168 64.0273V63.2705C63.1322 63.3128 63.054 63.3519 62.9336 63.3877C62.8132 63.4202 62.6748 63.4495 62.5186 63.4756C62.3656 63.5016 62.2158 63.5244 62.0693 63.5439C61.9261 63.5602 61.8122 63.5732 61.7275 63.583C61.516 63.609 61.3174 63.6546 61.1318 63.7197C60.9495 63.7816 60.8031 63.8743 60.6924 63.998C60.5817 64.1185 60.5264 64.2829 60.5264 64.4912C60.5264 64.68 60.5752 64.8379 60.6729 64.9648C60.7705 65.0918 60.904 65.1878 61.0732 65.2529C61.2425 65.318 61.4362 65.3506 61.6543 65.3506ZM65.5898 66V60.541H66.4395V61.3809H66.498C66.599 61.1042 66.778 60.8828 67.0352 60.7168C67.2956 60.5475 67.5885 60.4629 67.9141 60.4629C67.9792 60.4629 68.0557 60.4645 68.1436 60.4678C68.2347 60.471 68.3063 60.4743 68.3584 60.4775V61.3613C68.3324 61.3548 68.2673 61.3451 68.1631 61.332C68.0589 61.319 67.9482 61.3125 67.8311 61.3125C67.5706 61.3125 67.3363 61.3678 67.1279 61.4785C66.9229 61.5859 66.7617 61.7357 66.6445 61.9277C66.5273 62.1165 66.4688 62.3346 66.4688 62.582V66H65.5898Z" fill="#FAFAFA"/>
<g clip-path="url(#clip3_1171_5155)">
<path d="M14 91C16.7614 91 19 88.7614 19 86C19 83.2386 16.7614 81 14 81C11.2386 81 9 83.2386 9 86C9 88.7614 11.2386 91 14 91Z" stroke="#FAFAFA" stroke-linecap="round" stroke-linejoin="round"/>
<path d="M12 87C12 87 12.75 88 14 88C15.25 88 16 87 16 87" stroke="#FAFAFA" stroke-linecap="round" stroke-linejoin="round"/>
<path d="M12.5 84.5H12.505" stroke="#FAFAFA" stroke-linecap="round" stroke-linejoin="round"/>
<path d="M15.5 84.5H15.505" stroke="#FAFAFA" stroke-linecap="round" stroke-linejoin="round"/>
</g>
<path d="M29.208 90.127C28.6839 90.127 28.2282 90.0423 27.8408 89.873C27.4567 89.7038 27.1556 89.4678 26.9375 89.165C26.7194 88.859 26.5957 88.5026 26.5664 88.0957H27.5186C27.5446 88.3691 27.6374 88.5954 27.7969 88.7744C27.9564 88.9502 28.1598 89.082 28.4072 89.1699C28.6579 89.2546 28.9248 89.2969 29.208 89.2969C29.5368 89.2969 29.8314 89.2432 30.0918 89.1357C30.3555 89.0283 30.5638 88.877 30.7168 88.6816C30.8698 88.4863 30.9463 88.2601 30.9463 88.0029C30.9463 87.7686 30.8796 87.5781 30.7461 87.4316C30.6159 87.2852 30.4417 87.1647 30.2236 87.0703C30.0055 86.9759 29.7663 86.8929 29.5059 86.8213L28.627 86.5723C28.041 86.4062 27.5853 86.1686 27.2598 85.8594C26.9342 85.5501 26.7715 85.1546 26.7715 84.6729C26.7715 84.2627 26.8822 83.9046 27.1035 83.5986C27.3249 83.2894 27.6243 83.0501 28.002 82.8809C28.3796 82.7116 28.8027 82.627 29.2715 82.627C29.75 82.627 30.1732 82.7116 30.541 82.8809C30.9089 83.0501 31.1986 83.2812 31.4102 83.5742C31.625 83.8639 31.7389 84.1927 31.752 84.5605H30.8438C30.8014 84.2057 30.6322 83.9323 30.3359 83.7402C30.0397 83.5449 29.6751 83.4473 29.2422 83.4473C28.9297 83.4473 28.6546 83.4993 28.417 83.6035C28.1826 83.7044 28.0003 83.8444 27.8701 84.0234C27.7399 84.1992 27.6748 84.401 27.6748 84.6289C27.6748 84.8828 27.7529 85.0879 27.9092 85.2441C28.0687 85.3971 28.2559 85.5176 28.4707 85.6055C28.6888 85.6901 28.8857 85.7568 29.0615 85.8057L29.7891 86.0059C29.9844 86.0579 30.1992 86.1296 30.4336 86.2207C30.6712 86.3118 30.8975 86.4339 31.1123 86.5869C31.3271 86.7367 31.5029 86.9287 31.6396 87.1631C31.7796 87.3942 31.8496 87.679 31.8496 88.0176C31.8496 88.4147 31.7454 88.7728 31.5371 89.0918C31.332 89.4108 31.0326 89.6631 30.6387 89.8486C30.2448 90.0342 29.7679 90.127 29.208 90.127ZM35.4824 90.1172C34.9551 90.1172 34.4993 90 34.1152 89.7656C33.7344 89.5312 33.4398 89.2041 33.2314 88.7842C33.0264 88.3643 32.9238 87.8743 32.9238 87.3145C32.9238 86.7546 33.0247 86.2614 33.2266 85.835C33.4284 85.4085 33.7132 85.0749 34.0811 84.834C34.4521 84.5931 34.8851 84.4727 35.3799 84.4727C35.6696 84.4727 35.9544 84.5215 36.2344 84.6191C36.5176 84.7135 36.7731 84.8682 37.001 85.083C37.2321 85.2946 37.416 85.5745 37.5527 85.9229C37.6895 86.2712 37.7578 86.6976 37.7578 87.2021V87.5684H33.5195V86.8262H37.2842L36.874 87.0996C36.874 86.7415 36.8171 86.4242 36.7031 86.1475C36.5924 85.8675 36.4264 85.6494 36.2051 85.4932C35.9837 85.3337 35.7087 85.2539 35.3799 85.2539C35.0511 85.2539 34.7695 85.3353 34.5352 85.498C34.3008 85.6576 34.1217 85.8675 33.998 86.1279C33.8743 86.3851 33.8125 86.6618 33.8125 86.958V87.4512C33.8125 87.8548 33.8825 88.1982 34.0225 88.4814C34.1624 88.7614 34.3577 88.9746 34.6084 89.1211C34.8623 89.2643 35.1553 89.3359 35.4873 89.3359C35.7021 89.3359 35.8975 89.305 36.0732 89.2432C36.249 89.1813 36.4004 89.0885 36.5273 88.9648C36.6543 88.8379 36.752 88.6816 36.8203 88.4961L37.6699 88.7305C37.5853 89.0039 37.4421 89.2448 37.2402 89.4531C37.0384 89.6615 36.7878 89.8242 36.4883 89.9414C36.1921 90.0586 35.8568 90.1172 35.4824 90.1172ZM40.6436 90.127C40.2985 90.127 39.9844 90.0618 39.7012 89.9316C39.4212 89.8014 39.1982 89.611 39.0322 89.3604C38.8662 89.1097 38.7832 88.8053 38.7832 88.4473C38.7832 88.1348 38.8451 87.8809 38.9688 87.6855C39.0924 87.4902 39.2568 87.3372 39.4619 87.2266C39.6702 87.1126 39.8997 87.028 40.1504 86.9727C40.401 86.9173 40.6533 86.8734 40.9072 86.8408C41.2327 86.7985 41.498 86.766 41.7031 86.7432C41.9082 86.7204 42.0596 86.6813 42.1572 86.626C42.2581 86.5706 42.3086 86.4762 42.3086 86.3428V86.3135C42.3086 86.0856 42.2663 85.8936 42.1816 85.7373C42.097 85.5778 41.9701 85.4557 41.8008 85.3711C41.6315 85.2865 41.4199 85.2441 41.166 85.2441C40.9056 85.2441 40.6826 85.2848 40.4971 85.3662C40.3115 85.4476 40.1602 85.5501 40.043 85.6738C39.929 85.7943 39.8428 85.918 39.7842 86.0449L38.9395 85.7666C39.0794 85.4346 39.2682 85.1758 39.5059 84.9902C39.7435 84.8014 40.0055 84.668 40.292 84.5898C40.5785 84.5117 40.8617 84.4727 41.1416 84.4727C41.3239 84.4727 41.5306 84.4954 41.7617 84.541C41.9961 84.5833 42.2207 84.6696 42.4355 84.7998C42.6536 84.93 42.8327 85.1237 42.9727 85.3809C43.1159 85.6348 43.1875 85.9749 43.1875 86.4014V90H42.3232V89.2578H42.2646C42.2028 89.3848 42.1035 89.5166 41.9668 89.6533C41.8301 89.7868 41.6527 89.8991 41.4346 89.9902C41.2165 90.0814 40.9528 90.127 40.6436 90.127ZM40.7949 89.3506C41.1204 89.3506 41.3955 89.2871 41.6201 89.1602C41.8447 89.0332 42.0156 88.8688 42.1328 88.667C42.25 88.4619 42.3086 88.2487 42.3086 88.0273V87.2705C42.2728 87.3128 42.1947 87.3519 42.0742 87.3877C41.9538 87.4202 41.8154 87.4495 41.6592 87.4756C41.5062 87.5016 41.3564 87.5244 41.21 87.5439C41.0667 87.5602 40.9528 87.5732 40.8682 87.583C40.6566 87.609 40.458 87.6546 40.2725 87.7197C40.0902 87.7816 39.9437 87.8743 39.833 87.998C39.7223 88.1185 39.667 88.2829 39.667 88.4912C39.667 88.68 39.7158 88.8379 39.8135 88.9648C39.9111 89.0918 40.0446 89.1878 40.2139 89.2529C40.3831 89.318 40.5768 89.3506 40.7949 89.3506ZM44.7305 90V84.541H45.5801V85.3809H45.6387C45.7396 85.1042 45.9186 84.8828 46.1758 84.7168C46.4362 84.5475 46.7292 84.4629 47.0547 84.4629C47.1198 84.4629 47.1963 84.4645 47.2842 84.4678C47.3753 84.471 47.4469 84.4743 47.499 84.4775V85.3613C47.473 85.3548 47.4079 85.3451 47.3037 85.332C47.1995 85.319 47.0889 85.3125 46.9717 85.3125C46.7113 85.3125 46.4769 85.3678 46.2686 85.4785C46.0635 85.5859 45.9023 85.7357 45.7852 85.9277C45.668 86.1165 45.6094 86.3346 45.6094 86.582V90H44.7305ZM50.5557 90.1172C50.0609 90.1172 49.6263 90 49.252 89.7656C48.8809 89.5312 48.5911 89.2025 48.3828 88.7793C48.1745 88.3561 48.0703 87.8646 48.0703 87.3047C48.0703 86.735 48.1745 86.2386 48.3828 85.8154C48.5911 85.389 48.8809 85.0586 49.252 84.8242C49.6263 84.5898 50.0609 84.4727 50.5557 84.4727C50.8193 84.4727 51.0684 84.5068 51.3027 84.5752C51.5371 84.6436 51.7503 84.7428 51.9424 84.873C52.1377 85 52.3053 85.1579 52.4453 85.3467C52.5853 85.5322 52.6927 85.7438 52.7676 85.9814L51.9229 86.2207C51.8838 86.0807 51.8236 85.9521 51.7422 85.835C51.6608 85.7178 51.5615 85.6169 51.4443 85.5322C51.3304 85.4443 51.1986 85.3776 51.0488 85.332C50.8991 85.2832 50.7347 85.2588 50.5557 85.2588C50.1911 85.2588 49.8916 85.3548 49.6572 85.5469C49.4229 85.7357 49.2487 85.9847 49.1348 86.2939C49.0208 86.6032 48.9639 86.9401 48.9639 87.3047C48.9639 87.6628 49.0208 87.9964 49.1348 88.3057C49.2487 88.6117 49.4229 88.859 49.6572 89.0479C49.8916 89.2367 50.1911 89.3311 50.5557 89.3311C50.738 89.3311 50.9056 89.3066 51.0586 89.2578C51.2116 89.209 51.3467 89.1406 51.4639 89.0527C51.5843 88.9616 51.6852 88.8542 51.7666 88.7305C51.848 88.6068 51.9082 88.4717 51.9473 88.3252L52.7871 88.5645C52.7155 88.8086 52.6081 89.0267 52.4648 89.2188C52.3249 89.4076 52.1572 89.5703 51.9619 89.707C51.7666 89.8405 51.5501 89.9414 51.3125 90.0098C51.0749 90.0814 50.8226 90.1172 50.5557 90.1172ZM54.9258 86.7285V90H54.0469V82.7246H54.9258V85.8643H54.7744C54.9404 85.3597 55.1764 85.0016 55.4824 84.79C55.7917 84.5785 56.153 84.4727 56.5664 84.4727C56.9342 84.4727 57.2565 84.5492 57.5332 84.7021C57.8132 84.8519 58.0296 85.0798 58.1826 85.3857C58.3389 85.6885 58.417 86.071 58.417 86.5332V90H57.5332V86.6064C57.5332 86.1865 57.4225 85.8577 57.2012 85.6201C56.9831 85.3825 56.6836 85.2637 56.3027 85.2637C56.0423 85.2637 55.8079 85.3206 55.5996 85.4346C55.3913 85.5485 55.2269 85.7145 55.1064 85.9326C54.986 86.1507 54.9258 86.416 54.9258 86.7285ZM62.8848 90V82.7246H67.3184V83.5449H63.8125V85.918H67.0791V86.7383H63.8125V89.1797H67.3623V90H62.8848ZM68.793 90V84.541H69.6475L69.6523 85.7617H69.584C69.6589 85.4655 69.776 85.2214 69.9355 85.0293C70.0983 84.834 70.2871 84.6875 70.502 84.5898C70.7201 84.4922 70.9463 84.4434 71.1807 84.4434C71.5778 84.4434 71.8984 84.5654 72.1426 84.8096C72.39 85.0537 72.5495 85.3743 72.6211 85.7715H72.5039C72.569 85.498 72.6878 85.262 72.8604 85.0635C73.0329 84.8649 73.2412 84.7119 73.4854 84.6045C73.7327 84.4971 74.0013 84.4434 74.291 84.4434C74.6068 84.4434 74.8949 84.5117 75.1553 84.6484C75.4157 84.7852 75.6224 84.9919 75.7754 85.2686C75.9316 85.5452 76.0098 85.8952 76.0098 86.3184V90H75.1309V86.3428C75.1309 85.9489 75.0202 85.6673 74.7988 85.498C74.5775 85.3288 74.3203 85.2441 74.0273 85.2441C73.7832 85.2441 73.5716 85.2962 73.3926 85.4004C73.2168 85.5013 73.0801 85.6413 72.9824 85.8203C72.888 85.9993 72.8408 86.2044 72.8408 86.4355V90H71.9619V86.2549C71.9619 85.9521 71.861 85.708 71.6592 85.5225C71.4574 85.3369 71.2018 85.2441 70.8926 85.2441C70.681 85.2441 70.4808 85.2946 70.292 85.3955C70.1064 85.4932 69.9567 85.6396 69.8428 85.835C69.7288 86.0303 69.6719 86.2728 69.6719 86.5625V90H68.793ZM79.7744 90.1172C79.2796 90.1172 78.8451 90 78.4707 89.7656C78.0996 89.5312 77.8099 89.2025 77.6016 88.7793C77.3932 88.3561 77.2891 87.8646 77.2891 87.3047C77.2891 86.735 77.3932 86.2386 77.6016 85.8154C77.8099 85.389 78.0996 85.0586 78.4707 84.8242C78.8451 84.5898 79.2796 84.4727 79.7744 84.4727C80.2725 84.4727 80.7087 84.5898 81.083 84.8242C81.4574 85.0586 81.7487 85.389 81.957 85.8154C82.1654 86.2386 82.2695 86.735 82.2695 87.3047C82.2695 87.8646 82.1654 88.3561 81.957 88.7793C81.7487 89.2025 81.4574 89.5312 81.083 89.7656C80.7087 90 80.2725 90.1172 79.7744 90.1172ZM79.7744 89.3311C80.1423 89.3311 80.445 89.2367 80.6826 89.0479C80.9202 88.859 81.096 88.6117 81.21 88.3057C81.3239 87.9964 81.3809 87.6628 81.3809 87.3047C81.3809 86.9434 81.3239 86.6081 81.21 86.2988C81.096 85.9863 80.9202 85.7357 80.6826 85.5469C80.445 85.3548 80.1423 85.2588 79.7744 85.2588C79.4098 85.2588 79.1104 85.3548 78.876 85.5469C78.6416 85.7357 78.4674 85.9847 78.3535 86.2939C78.2396 86.6032 78.1826 86.9401 78.1826 87.3047C78.1826 87.6628 78.2396 87.9964 78.3535 88.3057C78.4674 88.6117 78.6416 88.859 78.876 89.0479C79.1104 89.2367 79.4098 89.3311 79.7744 89.3311ZM83.5439 84.541H84.4277V90.3906C84.431 90.7357 84.3724 91.0319 84.252 91.2793C84.1315 91.5267 83.9525 91.7155 83.7148 91.8457C83.4772 91.9759 83.181 92.041 82.8262 92.041H82.6504V91.2305H82.8115C83.0654 91.2305 83.251 91.1572 83.3682 91.0107C83.4854 90.8675 83.5439 90.6608 83.5439 90.3906V84.541ZM83.9883 83.6475C83.8223 83.6475 83.679 83.5905 83.5586 83.4766C83.4382 83.3626 83.3779 83.2259 83.3779 83.0664C83.3779 82.9036 83.4382 82.7669 83.5586 82.6562C83.679 82.5423 83.8223 82.4854 83.9883 82.4854C84.1576 82.4854 84.3024 82.5423 84.4229 82.6562C84.5433 82.7669 84.6035 82.9036 84.6035 83.0664C84.6035 83.2259 84.5433 83.3626 84.4229 83.4766C84.3024 83.5905 84.1576 83.6475 83.9883 83.6475ZM85.9707 90V84.541H86.8496V90H85.9707ZM86.415 83.6475C86.249 83.6475 86.1058 83.5905 85.9854 83.4766C85.8649 83.3626 85.8047 83.2259 85.8047 83.0664C85.8047 82.9036 85.8649 82.7669 85.9854 82.6562C86.1058 82.5423 86.249 82.4854 86.415 82.4854C86.5843 82.4854 86.7292 82.5423 86.8496 82.6562C86.9701 82.7669 87.0303 82.9036 87.0303 83.0664C87.0303 83.2259 86.9701 83.3626 86.8496 83.4766C86.7292 83.5905 86.5843 83.6475 86.415 83.6475ZM90.248 90.1172C89.8737 90.1172 89.54 90.0635 89.2471 89.9561C88.9574 89.8454 88.7181 89.6826 88.5293 89.4678C88.3405 89.2529 88.2135 88.9893 88.1484 88.6768L88.9834 88.4766C89.0615 88.776 89.208 88.9958 89.4229 89.1357C89.641 89.2757 89.9128 89.3457 90.2383 89.3457C90.6191 89.3457 90.9219 89.2643 91.1465 89.1016C91.3743 88.9388 91.4883 88.7451 91.4883 88.5205C91.4883 88.3317 91.4215 88.1755 91.2881 88.0518C91.1579 87.9248 90.9577 87.8304 90.6875 87.7686L89.7793 87.5537C89.2845 87.4365 88.9167 87.2559 88.6758 87.0117C88.4349 86.7643 88.3145 86.4486 88.3145 86.0645C88.3145 85.752 88.4023 85.4769 88.5781 85.2393C88.7539 84.9984 88.9932 84.8112 89.2959 84.6777C89.6019 84.541 89.9486 84.4727 90.3359 84.4727C90.7103 84.4727 91.0277 84.5296 91.2881 84.6436C91.5518 84.7542 91.765 84.9089 91.9277 85.1074C92.0938 85.3027 92.2174 85.529 92.2988 85.7861L91.5029 85.9912C91.4281 85.7959 91.3027 85.6185 91.127 85.459C90.9544 85.2995 90.6924 85.2197 90.3408 85.2197C90.0153 85.2197 89.7435 85.2946 89.5254 85.4443C89.3105 85.5941 89.2031 85.7829 89.2031 86.0107C89.2031 86.2126 89.2764 86.3753 89.4229 86.499C89.5693 86.6195 89.8021 86.7171 90.1211 86.792L90.9463 86.9873C91.4411 87.1045 91.8073 87.2868 92.0449 87.5342C92.2826 87.7783 92.4014 88.0876 92.4014 88.4619C92.4014 88.7809 92.3102 89.0658 92.1279 89.3164C91.9489 89.5638 91.6966 89.7591 91.3711 89.9023C91.0488 90.0456 90.6745 90.1172 90.248 90.1172Z" fill="#FAFAFA"/>
<path d="M17 105H11C10.4477 105 10 105.448 10 106V114C10 114.552 10.4477 115 11 115H17C17.5523 115 18 114.552 18 114V106C18 105.448 17.5523 105 17 105Z" stroke="#FAFAFA" stroke-linecap="round" stroke-linejoin="round"/>
<path d="M12 107H16" stroke="#FAFAFA" stroke-linecap="round" stroke-linejoin="round"/>
<path d="M16 111V113" stroke="#FAFAFA" stroke-linecap="round" stroke-linejoin="round"/>
<path d="M16 109H16.005" stroke="#FAFAFA" stroke-linecap="round" stroke-linejoin="round"/>
<path d="M14 109H14.005" stroke="#FAFAFA" stroke-linecap="round" stroke-linejoin="round"/>
<path d="M12 109H12.005" stroke="#FAFAFA" stroke-linecap="round" stroke-linejoin="round"/>
<path d="M14 111H14.005" stroke="#FAFAFA" stroke-linecap="round" stroke-linejoin="round"/>
<path d="M12 111H12.005" stroke="#FAFAFA" stroke-linecap="round" stroke-linejoin="round"/>
<path d="M14 113H14.005" stroke="#FAFAFA" stroke-linecap="round" stroke-linejoin="round"/>
<path d="M12 113H12.005" stroke="#FAFAFA" stroke-linecap="round" stroke-linejoin="round"/>
<path d="M29.8232 114.098C29.2015 114.098 28.6465 113.948 28.1582 113.648C27.6732 113.346 27.2907 112.916 27.0107 112.359C26.734 111.799 26.5957 111.135 26.5957 110.367C26.5957 109.596 26.734 108.932 27.0107 108.375C27.2907 107.815 27.6732 107.384 28.1582 107.081C28.6465 106.778 29.2015 106.627 29.8232 106.627C30.1911 106.627 30.5378 106.681 30.8633 106.788C31.1921 106.896 31.4867 107.053 31.7471 107.262C32.0075 107.467 32.224 107.717 32.3965 108.014C32.5723 108.307 32.6927 108.64 32.7578 109.015H31.8301C31.778 108.764 31.6885 108.544 31.5615 108.355C31.4378 108.167 31.2848 108.007 31.1025 107.877C30.9235 107.747 30.7249 107.649 30.5068 107.584C30.2887 107.519 30.0609 107.486 29.8232 107.486C29.387 107.486 28.9932 107.597 28.6416 107.818C28.29 108.04 28.0117 108.365 27.8066 108.795C27.6016 109.221 27.499 109.745 27.499 110.367C27.499 110.986 27.6016 111.51 27.8066 111.939C28.015 112.366 28.2949 112.69 28.6465 112.911C28.998 113.129 29.3903 113.238 29.8232 113.238C30.0609 113.238 30.2887 113.206 30.5068 113.141C30.7249 113.072 30.9235 112.975 31.1025 112.848C31.2848 112.717 31.4378 112.558 31.5615 112.369C31.6885 112.177 31.778 111.957 31.8301 111.71H32.7578C32.696 112.081 32.5771 112.413 32.4014 112.706C32.2288 112.999 32.0124 113.25 31.752 113.458C31.4915 113.666 31.1969 113.826 30.8682 113.937C30.5426 114.044 30.1943 114.098 29.8232 114.098ZM35.6045 114.127C35.2594 114.127 34.9453 114.062 34.6621 113.932C34.3822 113.801 34.1592 113.611 33.9932 113.36C33.8271 113.11 33.7441 112.805 33.7441 112.447C33.7441 112.135 33.806 111.881 33.9297 111.686C34.0534 111.49 34.2178 111.337 34.4229 111.227C34.6312 111.113 34.8607 111.028 35.1113 110.973C35.362 110.917 35.6143 110.873 35.8682 110.841C36.1937 110.799 36.459 110.766 36.6641 110.743C36.8691 110.72 37.0205 110.681 37.1182 110.626C37.2191 110.571 37.2695 110.476 37.2695 110.343V110.313C37.2695 110.086 37.2272 109.894 37.1426 109.737C37.0579 109.578 36.931 109.456 36.7617 109.371C36.5924 109.286 36.3809 109.244 36.127 109.244C35.8665 109.244 35.6436 109.285 35.458 109.366C35.2725 109.448 35.1211 109.55 35.0039 109.674C34.89 109.794 34.8037 109.918 34.7451 110.045L33.9004 109.767C34.0404 109.435 34.2292 109.176 34.4668 108.99C34.7044 108.801 34.9665 108.668 35.2529 108.59C35.5394 108.512 35.8226 108.473 36.1025 108.473C36.2848 108.473 36.4915 108.495 36.7227 108.541C36.957 108.583 37.1816 108.67 37.3965 108.8C37.6146 108.93 37.7936 109.124 37.9336 109.381C38.0768 109.635 38.1484 109.975 38.1484 110.401V114H37.2842V113.258H37.2256C37.1637 113.385 37.0645 113.517 36.9277 113.653C36.791 113.787 36.6136 113.899 36.3955 113.99C36.1774 114.081 35.9137 114.127 35.6045 114.127ZM35.7559 113.351C36.0814 113.351 36.3564 113.287 36.5811 113.16C36.8057 113.033 36.9766 112.869 37.0938 112.667C37.2109 112.462 37.2695 112.249 37.2695 112.027V111.271C37.2337 111.313 37.1556 111.352 37.0352 111.388C36.9147 111.42 36.7764 111.45 36.6201 111.476C36.4671 111.502 36.3174 111.524 36.1709 111.544C36.0277 111.56 35.9137 111.573 35.8291 111.583C35.6175 111.609 35.4189 111.655 35.2334 111.72C35.0511 111.782 34.9046 111.874 34.7939 111.998C34.6833 112.118 34.6279 112.283 34.6279 112.491C34.6279 112.68 34.6768 112.838 34.7744 112.965C34.8721 113.092 35.0055 113.188 35.1748 113.253C35.3441 113.318 35.5378 113.351 35.7559 113.351ZM40.5703 106.725V114H39.6914V106.725H40.5703ZM44.335 114.117C43.8402 114.117 43.4056 114 43.0312 113.766C42.6602 113.531 42.3704 113.202 42.1621 112.779C41.9538 112.356 41.8496 111.865 41.8496 111.305C41.8496 110.735 41.9538 110.239 42.1621 109.815C42.3704 109.389 42.6602 109.059 43.0312 108.824C43.4056 108.59 43.8402 108.473 44.335 108.473C44.5986 108.473 44.8477 108.507 45.082 108.575C45.3164 108.644 45.5296 108.743 45.7217 108.873C45.917 109 46.0846 109.158 46.2246 109.347C46.3646 109.532 46.472 109.744 46.5469 109.981L45.7021 110.221C45.6631 110.081 45.6029 109.952 45.5215 109.835C45.4401 109.718 45.3408 109.617 45.2236 109.532C45.1097 109.444 44.9779 109.378 44.8281 109.332C44.6784 109.283 44.514 109.259 44.335 109.259C43.9704 109.259 43.6709 109.355 43.4365 109.547C43.2021 109.736 43.028 109.985 42.9141 110.294C42.8001 110.603 42.7432 110.94 42.7432 111.305C42.7432 111.663 42.8001 111.996 42.9141 112.306C43.028 112.612 43.2021 112.859 43.4365 113.048C43.6709 113.237 43.9704 113.331 44.335 113.331C44.5173 113.331 44.6849 113.307 44.8379 113.258C44.9909 113.209 45.126 113.141 45.2432 113.053C45.3636 112.962 45.4645 112.854 45.5459 112.73C45.6273 112.607 45.6875 112.472 45.7266 112.325L46.5664 112.564C46.4948 112.809 46.3874 113.027 46.2441 113.219C46.1042 113.408 45.9365 113.57 45.7412 113.707C45.5459 113.84 45.3294 113.941 45.0918 114.01C44.8542 114.081 44.6019 114.117 44.335 114.117ZM49.6768 114.068C49.3089 114.068 48.985 113.993 48.7051 113.844C48.4284 113.691 48.2119 113.461 48.0557 113.155C47.9027 112.849 47.8262 112.467 47.8262 112.008V108.541H48.7051V111.935C48.7051 112.354 48.8158 112.683 49.0371 112.921C49.2585 113.159 49.5596 113.277 49.9404 113.277C50.2008 113.277 50.4336 113.22 50.6387 113.106C50.847 112.993 51.0114 112.826 51.1318 112.608C51.2523 112.387 51.3125 112.122 51.3125 111.812V108.541H52.1963V114H51.3467V112.677H51.4639C51.2946 113.188 51.0537 113.548 50.7412 113.756C50.432 113.964 50.0771 114.068 49.6768 114.068ZM54.623 106.725V114H53.7441V106.725H54.623ZM57.6943 114.127C57.3493 114.127 57.0352 114.062 56.752 113.932C56.472 113.801 56.249 113.611 56.083 113.36C55.917 113.11 55.834 112.805 55.834 112.447C55.834 112.135 55.8958 111.881 56.0195 111.686C56.1432 111.49 56.3076 111.337 56.5127 111.227C56.721 111.113 56.9505 111.028 57.2012 110.973C57.4518 110.917 57.7041 110.873 57.958 110.841C58.2835 110.799 58.5488 110.766 58.7539 110.743C58.959 110.72 59.1104 110.681 59.208 110.626C59.3089 110.571 59.3594 110.476 59.3594 110.343V110.313C59.3594 110.086 59.3171 109.894 59.2324 109.737C59.1478 109.578 59.0208 109.456 58.8516 109.371C58.6823 109.286 58.4707 109.244 58.2168 109.244C57.9564 109.244 57.7334 109.285 57.5479 109.366C57.3623 109.448 57.2109 109.55 57.0938 109.674C56.9798 109.794 56.8936 109.918 56.835 110.045L55.9902 109.767C56.1302 109.435 56.319 109.176 56.5566 108.99C56.7943 108.801 57.0563 108.668 57.3428 108.59C57.6292 108.512 57.9124 108.473 58.1924 108.473C58.3747 108.473 58.5814 108.495 58.8125 108.541C59.0469 108.583 59.2715 108.67 59.4863 108.8C59.7044 108.93 59.8835 109.124 60.0234 109.381C60.1667 109.635 60.2383 109.975 60.2383 110.401V114H59.374V113.258H59.3154C59.2536 113.385 59.1543 113.517 59.0176 113.653C58.8809 113.787 58.7035 113.899 58.4854 113.99C58.2673 114.081 58.0036 114.127 57.6943 114.127ZM57.8457 113.351C58.1712 113.351 58.4463 113.287 58.6709 113.16C58.8955 113.033 59.0664 112.869 59.1836 112.667C59.3008 112.462 59.3594 112.249 59.3594 112.027V111.271C59.3236 111.313 59.2454 111.352 59.125 111.388C59.0046 111.42 58.8662 111.45 58.71 111.476C58.557 111.502 58.4072 111.524 58.2607 111.544C58.1175 111.56 58.0036 111.573 57.9189 111.583C57.7074 111.609 57.5088 111.655 57.3232 111.72C57.141 111.782 56.9945 111.874 56.8838 111.998C56.7731 112.118 56.7178 112.283 56.7178 112.491C56.7178 112.68 56.7666 112.838 56.8643 112.965C56.9619 113.092 57.0954 113.188 57.2646 113.253C57.4339 113.318 57.6276 113.351 57.8457 113.351ZM63.9297 108.541V109.293H61.1074V108.541H63.9297ZM61.9277 107.242H62.8066V112.584C62.8066 112.828 62.8555 113.007 62.9531 113.121C63.054 113.232 63.2201 113.287 63.4512 113.287C63.5065 113.287 63.5765 113.281 63.6611 113.268C63.749 113.255 63.8288 113.242 63.9004 113.229L64.0811 113.971C63.9899 114.003 63.8857 114.028 63.7686 114.044C63.6546 114.06 63.5407 114.068 63.4268 114.068C62.9548 114.068 62.5869 113.945 62.3232 113.697C62.0596 113.447 61.9277 113.098 61.9277 112.652V107.242ZM67.1768 114.117C66.682 114.117 66.2474 114 65.873 113.766C65.502 113.531 65.2122 113.202 65.0039 112.779C64.7956 112.356 64.6914 111.865 64.6914 111.305C64.6914 110.735 64.7956 110.239 65.0039 109.815C65.2122 109.389 65.502 109.059 65.873 108.824C66.2474 108.59 66.682 108.473 67.1768 108.473C67.6748 108.473 68.111 108.59 68.4854 108.824C68.8597 109.059 69.151 109.389 69.3594 109.815C69.5677 110.239 69.6719 110.735 69.6719 111.305C69.6719 111.865 69.5677 112.356 69.3594 112.779C69.151 113.202 68.8597 113.531 68.4854 113.766C68.111 114 67.6748 114.117 67.1768 114.117ZM67.1768 113.331C67.5446 113.331 67.8473 113.237 68.085 113.048C68.3226 112.859 68.4984 112.612 68.6123 112.306C68.7262 111.996 68.7832 111.663 68.7832 111.305C68.7832 110.943 68.7262 110.608 68.6123 110.299C68.4984 109.986 68.3226 109.736 68.085 109.547C67.8473 109.355 67.5446 109.259 67.1768 109.259C66.8122 109.259 66.5127 109.355 66.2783 109.547C66.0439 109.736 65.8698 109.985 65.7559 110.294C65.6419 110.603 65.585 110.94 65.585 111.305C65.585 111.663 65.6419 111.996 65.7559 112.306C65.8698 112.612 66.0439 112.859 66.2783 113.048C66.5127 113.237 66.8122 113.331 67.1768 113.331ZM70.9512 114V108.541H71.8008V109.381H71.8594C71.9603 109.104 72.1393 108.883 72.3965 108.717C72.6569 108.548 72.9499 108.463 73.2754 108.463C73.3405 108.463 73.417 108.465 73.5049 108.468C73.596 108.471 73.6676 108.474 73.7197 108.478V109.361C73.6937 109.355 73.6286 109.345 73.5244 109.332C73.4202 109.319 73.3096 109.312 73.1924 109.312C72.932 109.312 72.6976 109.368 72.4893 109.479C72.2842 109.586 72.123 109.736 72.0059 109.928C71.8887 110.117 71.8301 110.335 71.8301 110.582V114H70.9512Z" fill="#FAFAFA"/>
</g>
<path d="M11.2471 140.122C10.7035 140.122 10.2314 140.036 9.83105 139.863C9.43066 139.691 9.11654 139.445 8.88867 139.126C8.66406 138.804 8.54036 138.421 8.51758 137.979H9.63574C9.65853 138.242 9.74316 138.46 9.88965 138.633C10.0394 138.805 10.2331 138.934 10.4707 139.019C10.7083 139.103 10.9655 139.146 11.2422 139.146C11.5514 139.146 11.8249 139.098 12.0625 139.004C12.3034 138.906 12.4938 138.77 12.6338 138.594C12.7738 138.415 12.8438 138.208 12.8438 137.974C12.8438 137.762 12.7819 137.59 12.6582 137.456C12.5378 137.319 12.3734 137.207 12.165 137.119C11.96 137.028 11.7256 136.948 11.4619 136.88L10.6123 136.646C10.0166 136.486 9.55111 136.25 9.21582 135.938C8.88379 135.625 8.71777 135.22 8.71777 134.722C8.71777 134.302 8.83008 133.936 9.05469 133.623C9.28255 133.307 9.59017 133.063 9.97754 132.891C10.3682 132.715 10.8076 132.627 11.2959 132.627C11.7939 132.627 12.2318 132.715 12.6094 132.891C12.9902 133.063 13.2881 133.301 13.5029 133.604C13.721 133.906 13.835 134.251 13.8447 134.639H12.7607C12.7249 134.307 12.5703 134.049 12.2969 133.867C12.0267 133.685 11.6849 133.594 11.2715 133.594C10.9785 133.594 10.723 133.639 10.5049 133.73C10.29 133.822 10.1224 133.949 10.002 134.111C9.88477 134.271 9.82617 134.453 9.82617 134.658C9.82617 134.889 9.89616 135.076 10.0361 135.22C10.1794 135.36 10.3519 135.472 10.5537 135.557C10.7588 135.638 10.9541 135.703 11.1396 135.752L11.8477 135.938C12.0788 135.996 12.3164 136.076 12.5605 136.177C12.8079 136.274 13.0358 136.403 13.2441 136.562C13.4525 136.719 13.6201 136.914 13.7471 137.148C13.8773 137.38 13.9424 137.66 13.9424 137.988C13.9424 138.398 13.8366 138.765 13.625 139.087C13.4134 139.409 13.1058 139.663 12.7021 139.849C12.3018 140.031 11.8167 140.122 11.2471 140.122ZM17.541 140.112C17.0039 140.112 16.54 139.997 16.1494 139.766C15.7588 139.535 15.4577 139.209 15.2461 138.789C15.0378 138.369 14.9336 137.876 14.9336 137.31C14.9336 136.75 15.0361 136.257 15.2412 135.83C15.4495 135.404 15.7425 135.072 16.1201 134.834C16.4977 134.593 16.9404 134.473 17.4482 134.473C17.7607 134.473 18.0618 134.525 18.3516 134.629C18.6413 134.73 18.9017 134.889 19.1328 135.107C19.3639 135.326 19.5462 135.609 19.6797 135.957C19.8164 136.302 19.8848 136.722 19.8848 137.217V137.598H15.5342V136.797H19.333L18.8301 137.061C18.8301 136.725 18.778 136.431 18.6738 136.177C18.5697 135.92 18.415 135.719 18.21 135.576C18.0081 135.433 17.7542 135.361 17.4482 135.361C17.1455 135.361 16.8867 135.435 16.6719 135.581C16.457 135.728 16.2926 135.921 16.1787 136.162C16.068 136.4 16.0127 136.66 16.0127 136.943V137.49C16.0127 137.865 16.0762 138.182 16.2031 138.442C16.3333 138.7 16.514 138.895 16.7451 139.028C16.9762 139.159 17.2448 139.224 17.5508 139.224C17.7526 139.224 17.9349 139.196 18.0977 139.141C18.2604 139.082 18.4004 138.996 18.5176 138.882C18.638 138.765 18.7292 138.621 18.791 138.452L19.8018 138.691C19.7139 138.971 19.5658 139.219 19.3574 139.434C19.1523 139.648 18.8952 139.816 18.5859 139.937C18.2799 140.054 17.9316 140.112 17.541 140.112ZM23.4004 134.541V135.415H20.4414V134.541H23.4004ZM21.2373 133.242H22.3115V138.525C22.3115 138.743 22.3571 138.905 22.4482 139.009C22.5426 139.11 22.6956 139.16 22.9072 139.16C22.9626 139.16 23.0358 139.154 23.127 139.141C23.2181 139.128 23.2962 139.115 23.3613 139.102L23.5518 139.961C23.4378 140 23.3158 140.028 23.1855 140.044C23.0553 140.063 22.9268 140.073 22.7998 140.073C22.305 140.073 21.9209 139.946 21.6475 139.692C21.374 139.435 21.2373 139.076 21.2373 138.613V133.242ZM26.7695 134.541V135.415H23.8105V134.541H26.7695ZM24.6064 133.242H25.6807V138.525C25.6807 138.743 25.7262 138.905 25.8174 139.009C25.9118 139.11 26.0648 139.16 26.2764 139.16C26.3317 139.16 26.4049 139.154 26.4961 139.141C26.5872 139.128 26.6654 139.115 26.7305 139.102L26.9209 139.961C26.807 140 26.6849 140.028 26.5547 140.044C26.4245 140.063 26.2959 140.073 26.1689 140.073C25.6742 140.073 25.29 139.946 25.0166 139.692C24.7432 139.435 24.6064 139.076 24.6064 138.613V133.242ZM27.8438 140V134.541H28.918V140H27.8438ZM28.3857 133.706C28.2002 133.706 28.0407 133.644 27.9072 133.521C27.777 133.397 27.7119 133.247 27.7119 133.071C27.7119 132.892 27.777 132.741 27.9072 132.617C28.0407 132.493 28.2002 132.432 28.3857 132.432C28.5713 132.432 28.7308 132.493 28.8643 132.617C28.9977 132.741 29.0645 132.892 29.0645 133.071C29.0645 133.247 28.9977 133.397 28.8643 133.521C28.7308 133.644 28.5713 133.706 28.3857 133.706ZM31.4375 136.768V140H30.3633V134.541H31.3887L31.3984 135.879H31.2861C31.4456 135.391 31.6768 135.034 31.9795 134.81C32.2822 134.585 32.6484 134.473 33.0781 134.473C33.4492 134.473 33.7731 134.551 34.0498 134.707C34.3265 134.863 34.543 135.094 34.6992 135.4C34.8555 135.703 34.9336 136.081 34.9336 136.533V140H33.8594V136.665C33.8594 136.271 33.7568 135.964 33.5518 135.742C33.3467 135.521 33.0651 135.41 32.707 135.41C32.4661 135.41 32.2497 135.464 32.0576 135.571C31.8656 135.675 31.7142 135.828 31.6035 136.03C31.4928 136.232 31.4375 136.478 31.4375 136.768ZM38.6592 142.158C38.2393 142.158 37.8747 142.104 37.5654 141.997C37.2562 141.89 37.0007 141.746 36.7988 141.567C36.6003 141.388 36.4489 141.19 36.3447 140.972L37.2432 140.547C37.3083 140.651 37.3945 140.76 37.502 140.874C37.6126 140.991 37.7607 141.09 37.9463 141.172C38.1318 141.253 38.3695 141.294 38.6592 141.294C39.0758 141.294 39.4128 141.195 39.6699 140.996C39.9303 140.801 40.0605 140.493 40.0605 140.073V139.009H39.9678C39.9027 139.129 39.8115 139.259 39.6943 139.399C39.5804 139.539 39.4193 139.661 39.2109 139.766C39.0059 139.867 38.7373 139.917 38.4053 139.917C37.9756 139.917 37.5882 139.816 37.2432 139.614C36.9014 139.412 36.6296 139.113 36.4277 138.716C36.2259 138.319 36.125 137.83 36.125 137.251C36.125 136.672 36.2243 136.175 36.4229 135.762C36.6247 135.345 36.8981 135.026 37.2432 134.805C37.5915 134.583 37.9837 134.473 38.4199 134.473C38.7552 134.473 39.027 134.528 39.2354 134.639C39.4469 134.749 39.6113 134.881 39.7285 135.034C39.849 135.184 39.9401 135.316 40.002 135.43H40.0801V134.541H41.1299V140.078C41.1299 140.557 41.0208 140.949 40.8027 141.255C40.5879 141.564 40.2933 141.792 39.9189 141.938C39.5479 142.085 39.1279 142.158 38.6592 142.158ZM38.6543 139.023C38.9603 139.023 39.2174 138.953 39.4258 138.813C39.6374 138.67 39.7969 138.465 39.9043 138.198C40.0117 137.928 40.0654 137.607 40.0654 137.236C40.0654 136.868 40.0117 136.546 39.9043 136.27C39.7969 135.993 39.6374 135.776 39.4258 135.62C39.2174 135.464 38.9603 135.386 38.6543 135.386C38.3385 135.386 38.0749 135.469 37.8633 135.635C37.6517 135.798 37.4922 136.019 37.3848 136.299C37.2773 136.576 37.2236 136.888 37.2236 137.236C37.2236 137.591 37.2773 137.904 37.3848 138.174C37.4922 138.441 37.6517 138.649 37.8633 138.799C38.0781 138.949 38.3418 139.023 38.6543 139.023ZM44.5381 140.112C44.1442 140.112 43.7926 140.055 43.4834 139.941C43.1774 139.827 42.9251 139.66 42.7266 139.438C42.5312 139.214 42.401 138.94 42.3359 138.618L43.3467 138.408C43.4215 138.691 43.5615 138.901 43.7666 139.038C43.9717 139.175 44.2321 139.243 44.5479 139.243C44.8929 139.243 45.168 139.172 45.373 139.028C45.5781 138.882 45.6807 138.708 45.6807 138.506C45.6807 138.33 45.6172 138.185 45.4902 138.071C45.3665 137.957 45.1745 137.873 44.9141 137.817L43.9961 137.607C43.4883 137.493 43.1107 137.311 42.8633 137.061C42.6159 136.81 42.4922 136.489 42.4922 136.099C42.4922 135.773 42.5833 135.488 42.7656 135.244C42.9479 135 43.1969 134.811 43.5127 134.678C43.8285 134.541 44.193 134.473 44.6064 134.473C45.0003 134.473 45.3372 134.53 45.6172 134.644C45.8971 134.757 46.1234 134.917 46.2959 135.122C46.4717 135.327 46.597 135.565 46.6719 135.835L45.71 136.045C45.6416 135.853 45.5228 135.685 45.3535 135.542C45.1842 135.396 44.9385 135.322 44.6162 135.322C44.32 135.322 44.0726 135.389 43.874 135.522C43.6755 135.656 43.5762 135.825 43.5762 136.03C43.5762 136.213 43.6413 136.361 43.7715 136.475C43.9049 136.585 44.1214 136.675 44.4209 136.743L45.2998 136.938C45.8044 137.052 46.1787 137.231 46.4229 137.476C46.667 137.72 46.7891 138.032 46.7891 138.413C46.7891 138.745 46.693 139.04 46.501 139.297C46.3122 139.551 46.0485 139.751 45.71 139.897C45.3747 140.041 44.984 140.112 44.5381 140.112Z" fill="#A1A1AA"/>
<g clip-path="url(#clip4_1171_5155)">
<path d="M17.5 162.5V161.5C17.5 160.97 17.2893 160.461 16.9142 160.086C16.5391 159.711 16.0304 159.5 15.5 159.5H12.5C11.9696 159.5 11.4609 159.711 11.0858 160.086C10.7107 160.461 10.5 160.97 10.5 161.5V162.5" stroke="#FAFAFA" stroke-linecap="round" stroke-linejoin="round"/>
<path d="M14 157.5C15.1046 157.5 16 156.605 16 155.5C16 154.395 15.1046 153.5 14 153.5C12.8954 153.5 12 154.395 12 155.5C12 156.605 12.8954 157.5 14 157.5Z" stroke="#FAFAFA" stroke-linecap="round" stroke-linejoin="round"/>
<path d="M26.8789 162V154.725H29.3691C29.9355 154.725 30.401 154.829 30.7656 155.037C31.1335 155.242 31.4053 155.519 31.5811 155.867C31.7601 156.215 31.8496 156.606 31.8496 157.039C31.8496 157.472 31.7601 157.864 31.5811 158.216C31.4053 158.567 31.1351 158.847 30.7705 159.056C30.4059 159.264 29.9404 159.368 29.374 159.368H27.6113V158.553H29.3301C29.7142 158.553 30.0234 158.488 30.2578 158.357C30.4922 158.224 30.6615 158.043 30.7656 157.815C30.873 157.584 30.9268 157.326 30.9268 157.039C30.9268 156.753 30.873 156.497 30.7656 156.272C30.6615 156.045 30.4906 155.866 30.2529 155.735C30.0186 155.605 29.7077 155.54 29.3203 155.54H27.8066V162H26.8789ZM33.1582 162V156.541H34.0078V157.381H34.0664C34.1673 157.104 34.3464 156.883 34.6035 156.717C34.8639 156.548 35.1569 156.463 35.4824 156.463C35.5475 156.463 35.624 156.465 35.7119 156.468C35.8031 156.471 35.8747 156.474 35.9268 156.478V157.361C35.9007 157.355 35.8356 157.345 35.7314 157.332C35.6273 157.319 35.5166 157.312 35.3994 157.312C35.139 157.312 34.9046 157.368 34.6963 157.479C34.4912 157.586 34.3301 157.736 34.2129 157.928C34.0957 158.117 34.0371 158.335 34.0371 158.582V162H33.1582ZM38.9834 162.117C38.4886 162.117 38.054 162 37.6797 161.766C37.3086 161.531 37.0189 161.202 36.8105 160.779C36.6022 160.356 36.498 159.865 36.498 159.305C36.498 158.735 36.6022 158.239 36.8105 157.815C37.0189 157.389 37.3086 157.059 37.6797 156.824C38.054 156.59 38.4886 156.473 38.9834 156.473C39.4814 156.473 39.9176 156.59 40.292 156.824C40.6663 157.059 40.9577 157.389 41.166 157.815C41.3743 158.239 41.4785 158.735 41.4785 159.305C41.4785 159.865 41.3743 160.356 41.166 160.779C40.9577 161.202 40.6663 161.531 40.292 161.766C39.9176 162 39.4814 162.117 38.9834 162.117ZM38.9834 161.331C39.3512 161.331 39.654 161.237 39.8916 161.048C40.1292 160.859 40.305 160.612 40.4189 160.306C40.5329 159.996 40.5898 159.663 40.5898 159.305C40.5898 158.943 40.5329 158.608 40.4189 158.299C40.305 157.986 40.1292 157.736 39.8916 157.547C39.654 157.355 39.3512 157.259 38.9834 157.259C38.6188 157.259 38.3193 157.355 38.085 157.547C37.8506 157.736 37.6764 157.985 37.5625 158.294C37.4486 158.603 37.3916 158.94 37.3916 159.305C37.3916 159.663 37.4486 159.996 37.5625 160.306C37.6764 160.612 37.8506 160.859 38.085 161.048C38.3193 161.237 38.6188 161.331 38.9834 161.331ZM45.2969 156.541V157.293H42.084V156.541H45.2969ZM43.1582 162V155.813C43.1582 155.498 43.2314 155.234 43.3779 155.022C43.5277 154.811 43.7214 154.651 43.959 154.544C44.1966 154.437 44.4473 154.383 44.7109 154.383C44.9193 154.383 45.0918 154.401 45.2285 154.437C45.3652 154.469 45.4661 154.5 45.5312 154.529L45.2871 155.281C45.2415 155.265 45.1813 155.247 45.1064 155.228C45.0348 155.208 44.9372 155.198 44.8135 155.198C44.5433 155.198 44.3464 155.268 44.2227 155.408C44.099 155.545 44.0371 155.745 44.0371 156.009V162H43.1582ZM46.459 162V156.541H47.3379V162H46.459ZM46.9033 155.647C46.7373 155.647 46.5941 155.59 46.4736 155.477C46.3532 155.363 46.293 155.226 46.293 155.066C46.293 154.904 46.3532 154.767 46.4736 154.656C46.5941 154.542 46.7373 154.485 46.9033 154.485C47.0726 154.485 47.2174 154.542 47.3379 154.656C47.4583 154.767 47.5186 154.904 47.5186 155.066C47.5186 155.226 47.4583 155.363 47.3379 155.477C47.2174 155.59 47.0726 155.647 46.9033 155.647ZM49.7598 154.725V162H48.8809V154.725H49.7598ZM53.5977 162.117C53.0703 162.117 52.6146 162 52.2305 161.766C51.8496 161.531 51.555 161.204 51.3467 160.784C51.1416 160.364 51.0391 159.874 51.0391 159.314C51.0391 158.755 51.14 158.261 51.3418 157.835C51.5436 157.409 51.8285 157.075 52.1963 156.834C52.5674 156.593 53.0003 156.473 53.4951 156.473C53.7848 156.473 54.0697 156.521 54.3496 156.619C54.6328 156.714 54.8883 156.868 55.1162 157.083C55.3473 157.295 55.5312 157.575 55.668 157.923C55.8047 158.271 55.873 158.698 55.873 159.202V159.568H51.6348V158.826H55.3994L54.9893 159.1C54.9893 158.742 54.9323 158.424 54.8184 158.147C54.7077 157.868 54.5417 157.649 54.3203 157.493C54.099 157.334 53.8239 157.254 53.4951 157.254C53.1663 157.254 52.8848 157.335 52.6504 157.498C52.416 157.658 52.237 157.868 52.1133 158.128C51.9896 158.385 51.9277 158.662 51.9277 158.958V159.451C51.9277 159.855 51.9977 160.198 52.1377 160.481C52.2777 160.761 52.473 160.975 52.7236 161.121C52.9775 161.264 53.2705 161.336 53.6025 161.336C53.8174 161.336 54.0127 161.305 54.1885 161.243C54.3643 161.181 54.5156 161.089 54.6426 160.965C54.7695 160.838 54.8672 160.682 54.9355 160.496L55.7852 160.73C55.7005 161.004 55.5573 161.245 55.3555 161.453C55.1536 161.661 54.903 161.824 54.6035 161.941C54.3073 162.059 53.972 162.117 53.5977 162.117Z" fill="#FAFAFA"/>
<g clip-path="url(#clip5_1171_5155)">
<path d="M277.056 162.166C276.772 162.163 276.514 162.091 276.279 161.951C276.045 161.811 275.858 161.624 275.718 161.39C275.581 161.155 275.513 160.896 275.513 160.613C275.513 160.327 275.581 160.066 275.718 159.832C275.858 159.594 276.045 159.406 276.279 159.266C276.514 159.122 276.772 159.051 277.056 159.051H277.876V157.664H277.056C276.772 157.664 276.514 157.596 276.279 157.459C276.045 157.319 275.858 157.132 275.718 156.897C275.581 156.66 275.513 156.398 275.513 156.111C275.513 155.828 275.581 155.571 275.718 155.34C275.858 155.105 276.045 154.918 276.279 154.778C276.514 154.638 276.772 154.568 277.056 154.568C277.342 154.568 277.603 154.638 277.837 154.778C278.075 154.918 278.263 155.105 278.403 155.34C278.547 155.571 278.618 155.828 278.618 156.111V156.922H280.005V156.111C280.005 155.828 280.075 155.571 280.215 155.34C280.355 155.105 280.542 154.918 280.776 154.778C281.011 154.638 281.271 154.568 281.558 154.568C281.844 154.568 282.104 154.638 282.339 154.778C282.573 154.918 282.76 155.105 282.9 155.34C283.04 155.571 283.11 155.828 283.11 156.111C283.11 156.398 283.04 156.658 282.9 156.893C282.76 157.127 282.573 157.314 282.339 157.454C282.104 157.594 281.844 157.664 281.558 157.664H280.747V159.051H281.558C281.844 159.051 282.104 159.122 282.339 159.266C282.573 159.406 282.76 159.594 282.9 159.832C283.04 160.066 283.11 160.327 283.11 160.613C283.11 160.896 283.04 161.157 282.9 161.395C282.76 161.629 282.573 161.816 282.339 161.956C282.104 162.096 281.844 162.166 281.558 162.166C281.271 162.166 281.011 162.096 280.776 161.956C280.542 161.816 280.355 161.629 280.215 161.395C280.075 161.157 280.005 160.896 280.005 160.613V159.803H278.618V160.613C278.618 160.896 278.547 161.155 278.403 161.39C278.263 161.624 278.075 161.811 277.837 161.951C277.603 162.091 277.342 162.163 277.056 162.166ZM277.056 161.424C277.209 161.421 277.347 161.383 277.471 161.312C277.594 161.24 277.692 161.142 277.764 161.019C277.839 160.895 277.876 160.76 277.876 160.613V159.803H277.056C276.909 159.803 276.776 159.84 276.655 159.915C276.535 159.987 276.437 160.084 276.362 160.208C276.291 160.328 276.255 160.464 276.255 160.613C276.255 160.76 276.291 160.895 276.362 161.019C276.437 161.142 276.535 161.24 276.655 161.312C276.776 161.383 276.909 161.421 277.056 161.424ZM277.056 156.922H277.876V156.111C277.876 155.962 277.839 155.826 277.764 155.706C277.689 155.586 277.59 155.49 277.466 155.418C277.345 155.346 277.209 155.311 277.056 155.311C276.909 155.311 276.776 155.346 276.655 155.418C276.535 155.49 276.437 155.586 276.362 155.706C276.291 155.826 276.255 155.962 276.255 156.111C276.255 156.261 276.291 156.398 276.362 156.521C276.437 156.645 276.535 156.743 276.655 156.814C276.776 156.886 276.909 156.922 277.056 156.922ZM280.747 156.922H281.558C281.707 156.922 281.842 156.886 281.963 156.814C282.087 156.743 282.184 156.645 282.256 156.521C282.331 156.398 282.368 156.261 282.368 156.111C282.368 155.962 282.331 155.826 282.256 155.706C282.184 155.586 282.087 155.49 281.963 155.418C281.842 155.346 281.707 155.311 281.558 155.311C281.408 155.311 281.271 155.346 281.147 155.418C281.027 155.49 280.929 155.586 280.854 155.706C280.783 155.826 280.747 155.962 280.747 156.111V156.922ZM281.558 161.424C281.707 161.421 281.842 161.383 281.963 161.312C282.087 161.24 282.184 161.142 282.256 161.019C282.331 160.895 282.368 160.76 282.368 160.613C282.368 160.464 282.331 160.328 282.256 160.208C282.184 160.084 282.087 159.987 281.963 159.915C281.842 159.84 281.707 159.803 281.558 159.803H280.747V160.613C280.747 160.76 280.783 160.895 280.854 161.019C280.929 161.142 281.027 161.24 281.147 161.312C281.271 161.383 281.408 161.421 281.558 161.424ZM278.618 159.051H280.005V157.664H278.618V159.051ZM286.19 162V154.725H288.681C289.247 154.725 289.713 154.829 290.077 155.037C290.445 155.242 290.717 155.519 290.893 155.867C291.072 156.215 291.161 156.606 291.161 157.039C291.161 157.472 291.072 157.864 290.893 158.216C290.717 158.567 290.447 158.847 290.082 159.056C289.717 159.264 289.252 159.368 288.686 159.368H286.923V158.553H288.642C289.026 158.553 289.335 158.488 289.569 158.357C289.804 158.224 289.973 158.043 290.077 157.815C290.185 157.584 290.238 157.326 290.238 157.039C290.238 156.753 290.185 156.497 290.077 156.272C289.973 156.045 289.802 155.866 289.564 155.735C289.33 155.605 289.019 155.54 288.632 155.54H287.118V162H286.19Z" fill="#A1A1AA"/>
</g>
<path d="M18 178.5H10C9.44772 178.5 9 178.948 9 179.5V184.5C9 185.052 9.44772 185.5 10 185.5H18C18.5523 185.5 19 185.052 19 184.5V179.5C19 178.948 18.5523 178.5 18 178.5Z" stroke="#FAFAFA" stroke-linecap="round" stroke-linejoin="round"/>
<path d="M9 181H19" stroke="#FAFAFA" stroke-linecap="round" stroke-linejoin="round"/>
<path d="M26.8789 186V178.725H29.457C29.9648 178.725 30.3831 178.812 30.7119 178.988C31.0439 179.161 31.2897 179.394 31.4492 179.687C31.612 179.976 31.6934 180.299 31.6934 180.653C31.6934 180.966 31.638 181.225 31.5273 181.43C31.4167 181.632 31.2702 181.793 31.0879 181.913C30.9089 182.034 30.7135 182.123 30.502 182.182V182.25C30.7298 182.263 30.9561 182.341 31.1807 182.484C31.4085 182.628 31.5973 182.831 31.7471 183.095C31.9001 183.358 31.9766 183.681 31.9766 184.062C31.9766 184.426 31.8919 184.755 31.7227 185.048C31.5566 185.341 31.2946 185.574 30.9365 185.746C30.5785 185.915 30.113 186 29.54 186H26.8789ZM27.8066 185.18H29.5156C30.082 185.18 30.484 185.071 30.7217 184.853C30.9626 184.634 31.083 184.368 31.083 184.052C31.083 183.808 31.0212 183.583 30.8975 183.378C30.7738 183.173 30.598 183.008 30.3701 182.885C30.1455 182.761 29.877 182.699 29.5645 182.699H27.8066V185.18ZM27.8066 181.918H29.4082C29.6686 181.918 29.9046 181.868 30.1162 181.767C30.3278 181.662 30.4954 181.518 30.6191 181.332C30.7428 181.143 30.8047 180.924 30.8047 180.673C30.8047 180.357 30.694 180.09 30.4727 179.872C30.2546 179.654 29.9095 179.545 29.4375 179.545H27.8066V181.918ZM33.3145 186V180.541H34.1934V186H33.3145ZM33.7588 179.647C33.5928 179.647 33.4495 179.59 33.3291 179.477C33.2087 179.363 33.1484 179.226 33.1484 179.066C33.1484 178.904 33.2087 178.767 33.3291 178.656C33.4495 178.542 33.5928 178.485 33.7588 178.485C33.9281 178.485 34.0729 178.542 34.1934 178.656C34.3138 178.767 34.374 178.904 34.374 179.066C34.374 179.226 34.3138 179.363 34.1934 179.477C34.0729 179.59 33.9281 179.647 33.7588 179.647ZM36.6152 178.725V186H35.7363V178.725H36.6152ZM39.0371 178.725V186H38.1582V178.725H39.0371ZM40.5801 186V180.541H41.459V186H40.5801ZM41.0244 179.647C40.8584 179.647 40.7152 179.59 40.5947 179.477C40.4743 179.363 40.4141 179.226 40.4141 179.066C40.4141 178.904 40.4743 178.767 40.5947 178.656C40.7152 178.542 40.8584 178.485 41.0244 178.485C41.1937 178.485 41.3385 178.542 41.459 178.656C41.5794 178.767 41.6396 178.904 41.6396 179.066C41.6396 179.226 41.5794 179.363 41.459 179.477C41.3385 179.59 41.1937 179.647 41.0244 179.647ZM43.8809 182.729V186H43.002V180.541H43.8467L43.8516 181.864H43.7295C43.8955 181.36 44.1315 181.002 44.4375 180.79C44.7467 180.578 45.1081 180.473 45.5215 180.473C45.8893 180.473 46.2116 180.549 46.4883 180.702C46.765 180.852 46.9798 181.08 47.1328 181.386C47.2891 181.688 47.3672 182.071 47.3672 182.533V186H46.4883V182.606C46.4883 182.187 46.3776 181.858 46.1562 181.62C45.9382 181.382 45.6387 181.264 45.2578 181.264C44.9974 181.264 44.763 181.321 44.5547 181.435C44.3464 181.549 44.182 181.715 44.0615 181.933C43.9411 182.151 43.8809 182.416 43.8809 182.729ZM51.1221 188.158C50.7184 188.158 50.3685 188.106 50.0723 188.002C49.7793 187.901 49.5352 187.766 49.3398 187.597C49.1445 187.427 48.9899 187.243 48.876 187.045L49.5889 186.586C49.667 186.69 49.763 186.806 49.877 186.933C49.9941 187.06 50.1504 187.167 50.3457 187.255C50.5443 187.346 50.8031 187.392 51.1221 187.392C51.5583 187.392 51.9163 187.287 52.1963 187.079C52.4795 186.871 52.6211 186.542 52.6211 186.093V184.999H52.5381C52.4762 185.103 52.3883 185.227 52.2744 185.37C52.1637 185.513 52.0026 185.64 51.791 185.751C51.5827 185.858 51.3027 185.912 50.9512 185.912C50.515 185.912 50.1227 185.81 49.7744 185.604C49.4261 185.396 49.151 185.093 48.9492 184.696C48.7474 184.299 48.6465 183.816 48.6465 183.246C48.6465 182.683 48.7458 182.195 48.9443 181.781C49.1429 181.365 49.4163 181.042 49.7646 180.814C50.1162 180.587 50.5182 180.473 50.9707 180.473C51.3223 180.473 51.6022 180.531 51.8105 180.648C52.0221 180.762 52.1849 180.894 52.2988 181.044C52.4128 181.194 52.5007 181.317 52.5625 181.415H52.6455V180.541H53.5V186.142C53.5 186.61 53.3942 186.993 53.1826 187.289C52.971 187.589 52.6846 187.808 52.3232 187.948C51.9652 188.088 51.5648 188.158 51.1221 188.158ZM51.0977 185.131C51.4297 185.131 51.7096 185.056 51.9375 184.906C52.1654 184.753 52.3379 184.535 52.4551 184.252C52.5723 183.965 52.6309 183.624 52.6309 183.227C52.6309 182.839 52.5723 182.499 52.4551 182.206C52.3411 181.91 52.1702 181.679 51.9424 181.513C51.7145 181.343 51.4329 181.259 51.0977 181.259C50.7526 181.259 50.4645 181.348 50.2334 181.527C50.0023 181.703 49.8281 181.939 49.7109 182.235C49.597 182.532 49.54 182.862 49.54 183.227C49.54 183.601 49.5986 183.931 49.7158 184.218C49.833 184.504 50.0072 184.729 50.2383 184.892C50.4694 185.051 50.7559 185.131 51.0977 185.131Z" fill="#FAFAFA"/>
<g clip-path="url(#clip6_1171_5155)">
<path d="M276.978 186.166C276.694 186.163 276.436 186.091 276.201 185.951C275.967 185.811 275.78 185.624 275.64 185.39C275.503 185.155 275.435 184.896 275.435 184.613C275.435 184.327 275.503 184.066 275.64 183.832C275.78 183.594 275.967 183.406 276.201 183.266C276.436 183.122 276.694 183.051 276.978 183.051H277.798V181.664H276.978C276.694 181.664 276.436 181.596 276.201 181.459C275.967 181.319 275.78 181.132 275.64 180.897C275.503 180.66 275.435 180.398 275.435 180.111C275.435 179.828 275.503 179.571 275.64 179.34C275.78 179.105 275.967 178.918 276.201 178.778C276.436 178.638 276.694 178.568 276.978 178.568C277.264 178.568 277.524 178.638 277.759 178.778C277.996 178.918 278.185 179.105 278.325 179.34C278.468 179.571 278.54 179.828 278.54 180.111V180.922H279.927V180.111C279.927 179.828 279.997 179.571 280.137 179.34C280.277 179.105 280.464 178.918 280.698 178.778C280.933 178.638 281.193 178.568 281.479 178.568C281.766 178.568 282.026 178.638 282.261 178.778C282.495 178.918 282.682 179.105 282.822 179.34C282.962 179.571 283.032 179.828 283.032 180.111C283.032 180.398 282.962 180.658 282.822 180.893C282.682 181.127 282.495 181.314 282.261 181.454C282.026 181.594 281.766 181.664 281.479 181.664H280.669V183.051H281.479C281.766 183.051 282.026 183.122 282.261 183.266C282.495 183.406 282.682 183.594 282.822 183.832C282.962 184.066 283.032 184.327 283.032 184.613C283.032 184.896 282.962 185.157 282.822 185.395C282.682 185.629 282.495 185.816 282.261 185.956C282.026 186.096 281.766 186.166 281.479 186.166C281.193 186.166 280.933 186.096 280.698 185.956C280.464 185.816 280.277 185.629 280.137 185.395C279.997 185.157 279.927 184.896 279.927 184.613V183.803H278.54V184.613C278.54 184.896 278.468 185.155 278.325 185.39C278.185 185.624 277.996 185.811 277.759 185.951C277.524 186.091 277.264 186.163 276.978 186.166ZM276.978 185.424C277.131 185.421 277.269 185.383 277.393 185.312C277.516 185.24 277.614 185.142 277.686 185.019C277.76 184.895 277.798 184.76 277.798 184.613V183.803H276.978C276.831 183.803 276.698 183.84 276.577 183.915C276.457 183.987 276.359 184.084 276.284 184.208C276.213 184.328 276.177 184.464 276.177 184.613C276.177 184.76 276.213 184.895 276.284 185.019C276.359 185.142 276.457 185.24 276.577 185.312C276.698 185.383 276.831 185.421 276.978 185.424ZM276.978 180.922H277.798V180.111C277.798 179.962 277.76 179.826 277.686 179.706C277.611 179.586 277.511 179.49 277.388 179.418C277.267 179.346 277.131 179.311 276.978 179.311C276.831 179.311 276.698 179.346 276.577 179.418C276.457 179.49 276.359 179.586 276.284 179.706C276.213 179.826 276.177 179.962 276.177 180.111C276.177 180.261 276.213 180.398 276.284 180.521C276.359 180.645 276.457 180.743 276.577 180.814C276.698 180.886 276.831 180.922 276.978 180.922ZM280.669 180.922H281.479C281.629 180.922 281.764 180.886 281.885 180.814C282.008 180.743 282.106 180.645 282.178 180.521C282.253 180.398 282.29 180.261 282.29 180.111C282.29 179.962 282.253 179.826 282.178 179.706C282.106 179.586 282.008 179.49 281.885 179.418C281.764 179.346 281.629 179.311 281.479 179.311C281.33 179.311 281.193 179.346 281.069 179.418C280.949 179.49 280.851 179.586 280.776 179.706C280.705 179.826 280.669 179.962 280.669 180.111V180.922ZM281.479 185.424C281.629 185.421 281.764 185.383 281.885 185.312C282.008 185.24 282.106 185.142 282.178 185.019C282.253 184.895 282.29 184.76 282.29 184.613C282.29 184.464 282.253 184.328 282.178 184.208C282.106 184.084 282.008 183.987 281.885 183.915C281.764 183.84 281.629 183.803 281.479 183.803H280.669V184.613C280.669 184.76 280.705 184.895 280.776 185.019C280.851 185.142 280.949 185.24 281.069 185.312C281.193 185.383 281.33 185.421 281.479 185.424ZM278.54 183.051H279.927V181.664H278.54V183.051ZM286.112 186V178.725H288.69C289.198 178.725 289.617 178.812 289.945 178.988C290.277 179.161 290.523 179.394 290.683 179.687C290.845 179.976 290.927 180.299 290.927 180.653C290.927 180.966 290.871 181.225 290.761 181.43C290.65 181.632 290.504 181.793 290.321 181.913C290.142 182.034 289.947 182.123 289.735 182.182V182.25C289.963 182.263 290.189 182.341 290.414 182.484C290.642 182.628 290.831 182.831 290.98 183.095C291.133 183.358 291.21 183.681 291.21 184.062C291.21 184.426 291.125 184.755 290.956 185.048C290.79 185.341 290.528 185.574 290.17 185.746C289.812 185.915 289.346 186 288.773 186H286.112ZM287.04 185.18H288.749C289.315 185.18 289.717 185.071 289.955 184.853C290.196 184.634 290.316 184.368 290.316 184.052C290.316 183.808 290.255 183.583 290.131 183.378C290.007 183.173 289.831 183.008 289.604 182.885C289.379 182.761 289.11 182.699 288.798 182.699H287.04V185.18ZM287.04 181.918H288.642C288.902 181.918 289.138 181.868 289.35 181.767C289.561 181.662 289.729 181.518 289.853 181.332C289.976 181.143 290.038 180.924 290.038 180.673C290.038 180.357 289.927 180.09 289.706 179.872C289.488 179.654 289.143 179.545 288.671 179.545H287.04V181.918Z" fill="#A1A1AA"/>
</g>
</g>
</g>
<path d="M8 0.5H292C296.142 0.5 299.5 3.85786 299.5 8V184C299.5 188.142 296.142 191.5 292 191.5H7.99999C3.85786 191.5 0.5 188.142 0.5 184V8C0.5 3.85787 3.85787 0.5 8 0.5Z" stroke="#27272A"/>
<defs>
<clipPath id="clip0_1171_5155">
<path d="M0 8C0 3.58173 3.58172 0 8 0H292C296.418 0 300 3.58172 300 8V184C300 188.418 296.418 192 292 192H7.99999C3.58171 192 0 188.418 0 184V8Z" fill="white"/>
</clipPath>
<clipPath id="clip1_1171_5155">
<rect width="10" height="10" fill="white" transform="translate(8 9)"/>
</clipPath>
<clipPath id="clip2_1171_5155">
<rect width="292" height="72" fill="white" transform="translate(4 50)"/>
</clipPath>
<clipPath id="clip3_1171_5155">
<rect width="12" height="12" fill="white" transform="translate(8 80)"/>
</clipPath>
<clipPath id="clip4_1171_5155">
<rect width="292" height="72" fill="white" transform="translate(4 146)"/>
</clipPath>
<clipPath id="clip5_1171_5155">
<rect width="18" height="12" fill="white" transform="translate(274 152)"/>
</clipPath>
<clipPath id="clip6_1171_5155">
<rect width="18" height="12" fill="white" transform="translate(274 176)"/>
</clipPath>
</defs>
</svg>
