<svg width="64" height="58" viewBox="0 0 64 58" fill="none" xmlns="http://www.w3.org/2000/svg">
<g clip-path="url(#clip0_947_3205)">
<path d="M32.1125 22.877C28.7269 22.877 25.9824 25.5934 25.9824 28.9443C25.9824 32.2953 28.7269 35.0117 32.1125 35.0117C35.498 35.0117 38.2425 32.2953 38.2425 28.9443C38.2425 25.5934 35.498 22.877 32.1125 22.877Z" fill="#F7F8F8"/>
<path d="M63.9955 28.9994C63.9955 24.236 59.5389 20.0583 52.4431 17.3089C52.5379 16.6897 52.6237 16.0773 52.6846 15.476C53.3845 8.63157 51.7184 3.69162 47.9955 1.56364C43.8301 -0.81692 37.9467 0.910945 31.9977 5.6229C26.0488 0.910945 20.1654 -0.81692 16 1.56364C12.2771 3.69162 10.611 8.63157 11.3109 15.476C11.3718 16.0773 11.4553 16.692 11.5524 17.3134C10.9609 17.5369 10.3807 17.7738 9.82306 18.022C3.48808 20.8406 0 24.7434 0 28.9994C0 33.7627 4.45661 37.9405 11.5524 40.6898C11.4553 41.309 11.3718 41.9215 11.3109 42.5228C10.611 49.3672 12.2771 54.3071 16 56.4351C17.28 57.1535 18.7303 57.5208 20.2015 57.4991C23.728 57.4991 27.8459 55.6617 31.9977 52.3758C36.1473 55.6617 40.2675 57.4991 43.7985 57.4991C45.2696 57.5205 46.7199 57.1532 48 56.4351C51.7229 54.3071 53.389 49.3672 52.6891 42.5228C52.6282 41.9215 52.5424 41.309 52.4476 40.6898C59.5434 37.9449 64 33.7605 64 28.9994M43.7714 3.51727C44.7173 3.49468 45.6523 3.72149 46.4806 4.17444C49.0656 5.65196 50.2261 9.6598 49.6616 15.1697C49.6233 15.5453 49.5781 15.9253 49.5239 16.3075C46.5734 15.4278 43.5521 14.8003 40.4933 14.4321C38.639 11.9917 36.577 9.71312 34.3299 7.62123C37.8586 4.92102 41.1706 3.51727 43.7692 3.51727M42.5568 35.0346C41.415 36.9968 40.1716 38.8993 38.8317 40.7346C36.5604 40.9655 34.2787 41.0804 31.9955 41.0788C29.7131 41.0804 27.4321 40.9655 25.1616 40.7346C23.8252 38.8992 22.5856 36.9967 21.4477 35.0346C20.306 33.0779 19.2683 31.0634 18.3389 28.9994C19.2683 26.9354 20.306 24.9209 21.4477 22.9641C22.5838 21.0099 23.8196 19.1142 25.1503 17.2843C27.4249 17.0476 29.7106 16.9297 31.9977 16.9311C34.2802 16.9298 36.5612 17.0447 38.8317 17.2754C40.1669 19.1081 41.4072 21.0068 42.5478 22.9641C43.6887 24.9214 44.7263 26.9358 45.6566 28.9994C44.7263 31.0629 43.6887 33.0774 42.5478 35.0346M47.2098 32.7993C47.9263 34.7338 48.5146 36.7125 48.9708 38.7228C46.991 39.3339 44.9729 39.8155 42.9293 40.1646C43.7059 39.0052 44.4585 37.7989 45.187 36.5457C45.9072 35.3073 46.5822 34.0578 47.2189 32.8083M27.7105 43.96C29.1147 44.045 30.5483 44.0942 32 44.0942C33.4517 44.0942 34.8943 44.045 36.3008 43.96C34.9672 45.5415 33.5306 47.0349 32 48.4306C30.4727 47.0351 29.0398 45.5417 27.7105 43.96ZM21.0684 40.1601C19.0242 39.8126 17.0053 39.3325 15.0247 38.7228C15.4791 36.7157 16.065 34.74 16.7789 32.8083C17.4065 34.0578 18.0793 35.3073 18.8108 36.5457C19.5423 37.784 20.2986 39.0045 21.0684 40.1646M16.7789 25.1882C16.0676 23.2637 15.4831 21.2955 15.0292 19.2961C17.0049 18.6857 19.0184 18.2026 21.0571 17.8498C20.285 19.0055 19.5287 20.2036 18.7995 21.4531C18.0703 22.7026 17.4043 23.9365 16.7676 25.1882M36.2873 14.0365C34.883 13.9515 33.4494 13.9023 31.9865 13.9023C30.5355 13.9023 29.1057 13.9471 27.6969 14.0365C29.0262 12.4548 30.4592 10.9614 31.9865 9.56592C33.5176 10.961 34.9543 12.4545 36.2873 14.0365ZM45.1824 21.4531C44.451 20.1984 43.6947 18.9913 42.9135 17.832C44.9624 18.181 46.9859 18.6634 48.9708 19.2759C48.5154 21.2828 47.9294 23.2584 47.2166 25.1905C46.589 23.941 45.9139 22.6914 45.1847 21.4553M14.3429 15.172C13.7717 9.66427 14.9389 5.65419 17.5217 4.17668C18.3502 3.72442 19.285 3.49767 20.2308 3.51951C22.8294 3.51951 26.1414 4.92326 29.6701 7.62347C27.4215 9.71684 25.358 11.9969 23.5022 14.4388C20.4442 14.8088 17.4232 15.4339 14.4716 16.3075C14.4196 15.9253 14.3722 15.5475 14.3361 15.172M11.0738 20.7736C11.4215 20.6246 11.7759 20.4755 12.1372 20.3265C12.8473 23.2928 13.8103 26.1942 15.0157 28.9994C13.808 31.8101 12.8442 34.7175 12.1349 37.6901C6.38239 35.3543 3.04783 32.1176 3.04783 28.9994C3.04783 26.0443 5.98279 23.0468 11.0738 20.7736ZM17.5217 53.8221C14.9389 52.3446 13.7717 48.3345 14.3429 42.8268C14.379 42.4512 14.4264 42.0735 14.4783 41.689C17.4289 42.5685 20.4502 43.1959 23.509 43.5644C25.3638 46.0057 27.4258 48.2857 29.6724 50.3797C24.7529 54.1417 20.2579 55.3823 17.5284 53.8221M49.6594 42.8268C50.2238 48.3367 49.0634 52.3446 46.4783 53.8221C43.7511 55.3868 39.2538 54.1417 34.3367 50.3797C36.5825 48.2857 38.6437 46.0056 40.4978 43.5644C43.5567 43.1962 46.5779 42.5687 49.5284 41.689C49.5826 42.0735 49.6278 42.4512 49.6661 42.8268M51.8741 37.6856C51.1628 34.7148 50.1983 31.8089 48.9911 28.9994C50.1978 26.1883 51.1615 23.281 51.8719 20.3086C57.6131 22.6445 60.9567 25.8812 60.9567 28.9994C60.9567 32.1176 57.6221 35.3543 51.8696 37.6901" fill="#F7F8F8"/>
</g>
<defs>
<clipPath id="clip0_947_3205">
<rect width="64" height="57" fill="white" transform="translate(0 0.5)"/>
</clipPath>
</defs>
</svg>
