<svg width="64" height="50" viewBox="0 0 64 50" fill="none" xmlns="http://www.w3.org/2000/svg">
<g clip-path="url(#clip0_1170_3144)">
<path fill-rule="evenodd" clip-rule="evenodd" d="M41.1127 6.29884L46.8707 0.244141H0.115723V6.29884H41.1127Z" fill="#09090B"/>
<path d="M40.6775 24.2024L63.0132 0.925829L54.8728 0.925781L36.1221 20.2921L40.6775 24.2024Z" fill="#09090B"/>
<path d="M57.9616 33.0191C57.9616 38.9631 53.2043 43.7819 47.3359 43.7819C42.5959 43.7819 38.5768 40.6372 37.2093 36.2907L36.3721 33.6297L31.5854 38.4777L32.0228 39.5312C34.5339 45.5827 40.4425 49.8372 47.3359 49.8372C56.5063 49.8372 63.9402 42.3076 63.9402 33.0191C63.9402 26.8681 60.6261 21.5421 55.803 18.6152L54.6716 17.9287L50.2888 22.4248L52.2885 23.4941C55.6658 25.3 57.9616 28.8892 57.9616 33.0191Z" fill="#09090B"/>
<path fill-rule="evenodd" clip-rule="evenodd" d="M21.8947 48.4092L21.8947 11.4688H15.917V48.4092H21.8947Z" fill="#09090B"/>
</g>
<defs>
<clipPath id="clip0_1170_3144">
<rect width="64" height="50" fill="white"/>
</clipPath>
</defs>
</svg>
