<svg width="64" height="40" viewBox="0 0 64 40" fill="none" xmlns="http://www.w3.org/2000/svg">
<g clip-path="url(#clip0_947_3198)">
<path fill-rule="evenodd" clip-rule="evenodd" d="M32.0213 0.5C23.4817 0.5 18.1459 4.75477 16.01 13.2643C19.2126 9.00955 22.9484 7.41432 27.2176 8.47739C29.6533 9.08377 31.3951 10.8451 33.3214 12.7951C36.4612 15.9704 40.0954 19.6452 48.0314 19.6452C56.5697 19.6452 61.9068 15.3905 64.0414 6.88216C60.8402 11.1369 57.1043 12.7322 52.8351 11.6678C50.3981 11.0615 48.6563 9.30016 46.73 7.35142C43.5903 4.17355 39.9573 0.5 32.0213 0.5ZM16.01 19.6452C7.47169 19.6452 2.13459 23.9 0 32.4095C3.20251 28.1548 6.93835 26.5595 11.2063 27.6226C13.6433 28.229 15.3851 29.9903 17.3114 31.9403C20.4511 35.1156 24.0841 38.7905 32.0213 38.7905C40.5597 38.7905 45.8968 34.5369 48.0314 26.0274C44.8289 30.2822 41.093 31.8774 36.8238 30.8143C34.3881 30.2067 32.6463 28.4454 30.72 26.4966C27.5802 23.3213 23.946 19.6452 16.01 19.6452Z" fill="#F7F8F8"/>
</g>
<defs>
<clipPath id="clip0_947_3198">
<rect width="64" height="39" fill="white" transform="translate(0 0.5)"/>
</clipPath>
</defs>
</svg>
