<svg width="64" height="64" viewBox="0 0 64 64" fill="none" xmlns="http://www.w3.org/2000/svg">
<g clip-path="url(#clip0_1005_3497)">
<path d="M46.404 1.4541H17.5957C8.64615 1.4541 1.39111 8.69417 1.39111 17.6252V46.374C1.39111 55.3049 8.64615 62.5451 17.5957 62.5451H46.404C55.3534 62.5451 62.6085 55.3049 62.6085 46.374V17.6252C62.6085 8.69417 55.3534 1.4541 46.404 1.4541Z" fill="#09090B"/>
<path d="M31.6524 14.0322L16.6958 23.0675L24.1741 27.2771L16.6958 40.5221L31.6524 49.9682L46.1993 40.9328L39.0285 36.5177L46.4044 23.0675L31.6524 14.0322Z" fill="#09090B"/>
<path d="M46.4042 23.0674L47.4905 23.7185C47.832 23.0954 47.6299 22.3009 47.037 21.9379L46.4042 23.0674ZM31.6522 31.4866L31.0587 32.6392C31.4315 32.8493 31.8807 32.8478 32.2524 32.6357L31.6522 31.4866ZM16.6957 23.0674L16.0692 21.9339C15.6762 22.1714 15.4368 22.6126 15.4436 23.0871C15.4505 23.5616 15.7024 23.9951 16.102 24.22L16.6957 23.0674ZM31.6522 14.0321L32.2852 12.9026C31.8968 12.6646 31.4157 12.6631 31.0258 12.8986L31.6522 14.0321ZM31.6522 49.9681L31.005 51.0884C31.4001 51.338 31.8948 51.34 32.2919 51.0933L31.6522 49.9681ZM16.6957 40.522L15.6173 39.8564C15.2683 40.4746 15.4605 41.2714 16.0482 41.6426L16.6957 40.522ZM46.1991 40.9327L46.8388 42.058C47.2192 41.8218 47.4521 41.393 47.4513 40.9301C47.4505 40.4673 47.2162 40.0394 46.8347 39.8046L46.1991 40.9327ZM17.5959 2.76369H46.4042V0.145508H17.5959V2.76369ZM46.4042 2.76369C54.7175 2.76369 61.3566 9.47436 61.3566 17.6257H63.8609C63.8609 7.91494 55.9897 0.145508 46.4042 0.145508V2.76369ZM61.3566 17.6257V46.3745H63.8609V17.6257H61.3566ZM61.3566 46.3745C61.3566 54.5258 54.7175 61.2365 46.4042 61.2365V63.8546C55.9897 63.8546 63.8609 56.085 63.8609 46.3745H61.3566ZM46.4042 61.2365H17.5959V63.8546H46.4042V61.2365ZM17.5959 61.2365C9.28239 61.2365 2.64351 54.5258 2.64351 46.3745H0.13916C0.13916 56.085 8.01035 63.8546 17.5959 63.8546V61.2365ZM2.64351 46.3745V17.6257H0.13916V46.3745H2.64351ZM2.64351 17.6257C2.64351 9.47436 9.28239 2.76369 17.5959 2.76369V0.145508C8.01035 0.145508 0.13916 7.91494 0.13916 17.6257H2.64351ZM45.804 21.9184L31.0523 30.3375L32.2524 32.6357L47.0041 24.2164L45.804 21.9184ZM17.3222 24.2009L32.2789 15.1656L31.0258 12.8986L16.0692 21.9339L17.3222 24.2009ZM31.0194 15.1617L45.7712 24.1969L47.037 21.9379L32.2852 12.9026L31.0194 15.1617ZM32.2997 48.8475L17.3431 39.4014L16.0482 41.6426L31.005 51.0884L32.2997 48.8475ZM32.246 30.3341L24.7676 26.1244L23.5804 28.4297L31.0587 32.6392L32.246 30.3341ZM24.7676 26.1244L17.2893 21.9148L16.102 24.22L23.5804 28.4297L24.7676 26.1244ZM17.774 41.1873L25.2523 27.9425L23.0957 26.6116L15.6173 39.8564L17.774 41.1873ZM32.2919 51.0933L46.8388 42.058L45.5597 39.8072L31.0128 48.8426L32.2919 51.0933ZM45.3179 22.4163L37.942 35.8666L40.1144 37.1687L47.4905 23.7185L45.3179 22.4163ZM37.942 35.8666L30.5662 49.3167L32.7385 50.6191L40.1144 37.1687L37.942 35.8666ZM46.8347 39.8046L39.6636 35.3898L38.3928 37.6458L45.5639 42.0606L46.8347 39.8046Z" fill="#F7F8F8"/>
</g>
<defs>
<clipPath id="clip0_1005_3497">
<rect width="64" height="64" fill="white"/>
</clipPath>
</defs>
</svg>
